SplineFontDB: 3.0
FontName: Loma-Bold
FullName: Loma Bold
FamilyName: Loma
Weight: Bold
Copyright: Copyright (c) NECTEC, 2003. All rights reserved.\nModified under GNU General Public License by TLWG.
Version: 0.9.18: 2012-02-13
ItalicAngle: 0
UnderlinePosition: -170
UnderlineWidth: 10
Ascent: 1638
Descent: 410
LayerCount: 2
Layer: 0 0 "Back"  1
Layer: 1 0 "Fore"  0
NeedsXUIDChange: 1
FSType: 0
OS2Version: 0
OS2_WeightWidthSlopeOnly: 0
OS2_UseTypoMetrics: 0
CreationTime: 1153662462
ModificationTime: 1329132541
PfmFamily: 33
TTFWeight: 700
TTFWidth: 5
LineGap: 0
VLineGap: 0
Panose: 2 11 6 4 2 2 2 2 2 4
OS2TypoAscent: 0
OS2TypoAOffset: 1
OS2TypoDescent: 0
OS2TypoDOffset: 1
OS2TypoLinegap: 0
OS2WinAscent: 0
OS2WinAOffset: 1
OS2WinDescent: 0
OS2WinDOffset: 1
HheadAscent: 0
HheadAOffset: 1
HheadDescent: 0
HheadDOffset: 1
OS2Vendor: 'PfEd'
Lookup: 4 0 1 "'liga' Standard Ligatures lookup 0"  {"'liga' Standard Ligatures lookup 0"  } ['liga' ('latn' <'dflt' > ) ]
Lookup: 6 0 0 "'ccmp' Thai Conditional Descender Removal"  {"'ccmp' Thai Conditional Descender Removal"  } ['ccmp' ('DFLT' <'dflt' > 'thai' <'KUY ' 'THA ' 'dflt' > ) ]
Lookup: 1 0 0 "'ccmp' Pali-Sanskrit Descender Removal"  {"'ccmp' Pali-Sanskrit Descender Removal" ("descless" ) } ['ccmp' ('thai' <'PAL ' 'SAN ' > ) ]
Lookup: 6 0 0 "'ccmp' Thai General Composition"  {"'ccmp' Thai Below Vowel Tone Reordering"  "'ccmp' Thai General Composition"  } ['ccmp' ('DFLT' <'dflt' > 'thai' <'KUY ' 'PAL ' 'SAN ' 'THA ' 'dflt' > ) ]
Lookup: 1 0 0 "Thai Descender Removal Single Substitution"  {"Thai Descender Removal Single Substitution" ("descless" ) } []
Lookup: 2 0 0 "Thai Sara Am Decomposition"  {"Thai Sara Am Decomposition"  } []
Lookup: 2 0 0 "Thai Tone Nikhahit Attachment"  {"Thai Tone Nikhahit Attachment"  } []
Lookup: 1 0 0 "Thai Sara Am Lakkhang"  {"Thai Sara Am Lakkhang"  } []
Lookup: 1 0 0 "Thai Tone Low Variant"  {"Thai Tone Low Variant" ("low" ) } []

StartChar: .notdef
Encoding: 65536 -1 0
Width: 1536
Flags: W
HStem: 0 32<288 1248> 1248 32<288 1248>
VStem: 256 32<32 1248> 1248 32<32 1248>
LayerCount: 2
Fore
SplineSet
256 0 m 1
 256 1280 l 1
 1280 1280 l 1
 1280 0 l 1
 256 0 l 1
288 32 m 1
 1248 32 l 1
 1248 1248 l 1
 288 1248 l 1
 288 32 l 1
EndSplineSet
EndChar

StartChar: uni0E47.high
Encoding: 63263 63263 1
Width: 0
Flags: W
HStem: 1797.6 128.7<-638.877 -541.3> 1797.6 181.8<-508.806 -439.737> 1876.8 150.3<-775.423 -669.924> 2047.8 66.6<-509.071 -440.076>
VStem: -999.4 157.5<1981.05 2075.54> -585.4 75.6<1979.77 2047.68> -437.8 107.1<1924.05 2046.79>
AnchorPoint: "AboveMark" -665 1740 mark 0
LayerCount: 2
Back
SplineSet
-412 1524 m 0x3e
 -412 1543 -428 1562 -452 1562 c 0
 -476 1562 -492 1543 -492 1524 c 0
 -492 1505 -476 1486 -452 1486 c 0
 -428 1486 -412 1505 -412 1524 c 0x3e
-773 1539 m 0x7e
 -691 1539 -609 1427 -551 1427 c 0
 -533 1427 -528 1434 -527 1434 c 1
 -559 1454 -576 1483 -576 1522 c 0
 -576 1574 -529 1636 -449 1636 c 0
 -302 1636 -293 1521 -293 1476 c 0
 -293 1373 -359 1284 -469 1284 c 0xbe
 -544 1284 -608 1300 -661 1333 c 0
 -689 1348 -714 1372 -755 1372 c 0x7e
 -800 1372 -783 1288 -796 1284 c 1xbe
 -988 1284 -1036 1425 -1036 1510 c 0
 -1036 1614 -965 1722 -850 1751 c 0
 -671 1796 -458 1741 -408 1894 c 1
 -226 1894 l 1
 -237 1792 -354 1682 -444 1660 c 0
 -614 1619 -861 1654 -861 1522 c 0
 -861 1505 -856 1497 -850 1486 c 1
 -832 1521 -806 1539 -773 1539 c 0x7e
EndSplineSet
Fore
Refer: 190 3655 N 0.9 0 0 0.9 -67 642 2
EndChar

StartChar: uni0E4D.high
Encoding: 63262 63262 2
Width: 0
VWidth: 2561
Flags: W
HStem: 1719 104<-313.559 -208.548> 1928 107<-313.559 -208.441>
VStem: -419 104<1825.48 1927.07> -207 102<1825.48 1927.18>
AnchorPoint: "AboveMark" -261 1740 mark 0
LayerCount: 2
Fore
SplineSet
-419 1875 m 0
 -419 1965 -351 2035 -261 2035 c 0
 -171 2035 -105 1965 -105 1875 c 0
 -105 1785 -171 1719 -261 1719 c 0
 -351 1719 -419 1785 -419 1875 c 0
-315 1875 m 0
 -315 1845 -291 1823 -261 1823 c 0
 -231 1823 -207 1845 -207 1875 c 0
 -207 1905 -222 1928 -261 1928 c 0
 -291 1928 -315 1905 -315 1875 c 0
EndSplineSet
EndChar

StartChar: exclam
Encoding: 33 33 5
Width: 569
Flags: W
HStem: 0 194<176 400> 1430 20G<168 408>
VStem: 168 240<0 194 792.431 1450>
LayerCount: 2
Fore
SplineSet
168 999 m 1
 168 1450 l 1
 408 1450 l 1
 408 999 l 1
 365 365 l 1
 212 365 l 1
 168 999 l 1
176 194 m 1
 400 194 l 1
 400 0 l 1
 176 0 l 1
 176 194 l 1
EndSplineSet
EndChar

StartChar: quotedbl
Encoding: 34 34 6
Width: 727
Flags: W
HStem: 947 503<156 291 437 572>
VStem: 106 230<1139.59 1450> 156 135<947 1024.41> 389 230<1136.36 1450> 437 135<947 1027.64>
LayerCount: 2
Fore
SplineSet
156 947 m 1xa0
 106 1217 l 1
 106 1450 l 1
 336 1450 l 1
 336 1217 l 1xc0
 291 947 l 1
 156 947 l 1xa0
437 947 m 1x88
 389 1217 l 1
 389 1450 l 1
 619 1450 l 1
 619 1217 l 1x90
 572 947 l 1
 437 947 l 1x88
EndSplineSet
EndChar

StartChar: numbersign
Encoding: 35 35 7
Width: 1139
Flags: W
HStem: -10 21G<57 301.16 516 767.053> 365 220<21 135 421 594 884 1113> 875 220<21 241 527 700 988 1113> 1450 20G<360.84 605 819.84 1064>
DStem2: 57 -10 297 -10 0.203743 0.979024<48.8983 383.026 656.682 903.925 1177.58 1511.71> 516 -10 763 -10 0.203743 0.979024<50.3245 383.026 657.497 903.925 1177.99 1511.71>
LayerCount: 2
Back
SplineSet
21 365 m 1
 21 585 l 1
 1113 585 l 1
 1113 365 l 1
 21 365 l 1
21 875 m 1
 21 1095 l 1
 1113 1095 l 1
 1113 875 l 1
 21 875 l 1
763 -10 m 1
 516 -10 l 1
 824 1470 l 1
 1064 1470 l 1
 763 -10 l 1
297 -10 m 1
 57 -10 l 1
 365 1470 l 1
 605 1470 l 1
 297 -10 l 1
EndSplineSet
Fore
SplineSet
297 -10 m 1
 57 -10 l 1
 135 365 l 1
 21 365 l 1
 21 585 l 1
 181 585 l 1
 241 875 l 1
 21 875 l 1
 21 1095 l 1
 287 1095 l 1
 365 1470 l 1
 605 1470 l 1
 527 1095 l 1
 746 1095 l 1
 824 1470 l 1
 1064 1470 l 1
 988 1095 l 1
 1113 1095 l 1
 1113 875 l 1
 943 875 l 1
 884 585 l 1
 1113 585 l 1
 1113 365 l 1
 839 365 l 1
 763 -10 l 1
 516 -10 l 1
 594 365 l 1
 375 365 l 1
 297 -10 l 1
700 875 m 1
 481 875 l 1
 421 585 l 1
 640 585 l 1
 700 875 l 1
EndSplineSet
EndChar

StartChar: dollar
Encoding: 36 36 8
Width: 1139
Flags: W
VStem: 76 240<268.968 417> 106 240<897.214 1162.88> 443 240<-137 -25.9358 198 582 859 1188 1419.25 1507> 768 240<1050 1156.14> 802 240<251.51 533.165>
LayerCount: 2
Back
SplineSet
563 603 m 0xea
 330 628 106 742 106 1031 c 3
 106 1285 267 1434 563 1434 c 3
 845 1434 991 1317 1008 1050 c 1
 768 1050 l 1
 762 1127 713 1214 563 1214 c 3
 397 1214 346 1156 346 999 c 3xdc
 346 887 450 841 563 829 c 0
 728 812 1042 765 1042 397 c 3
 1042 121 865 -42 563 -42 c 3
 251 -42 81 108 76 417 c 1
 316 417 l 1
 316 263 399 178 563 178 c 3
 713 178 802 246 802 386 c 3
 802 562 714 587 563 603 c 0xea
683 -137 m 1
 443 -137 l 1
 443 1507 l 1
 683 1507 l 1
 683 -137 l 1
EndSplineSet
Fore
SplineSet
683 -137 m 1x28
 443 -137 l 1
 443 -34 l 1
 208 2 80 150 76 417 c 1
 316 417 l 1xa8
 316 307 359 232 443 198 c 1
 443 625 l 1
 259 673 106 792 106 1031 c 3
 106 1248 224 1389 443 1425 c 1
 443 1507 l 1
 683 1507 l 1
 683 1426 l 1
 887 1395 994 1276 1008 1050 c 1
 768 1050 l 1x70
 764 1101 741 1156 683 1188 c 1
 683 811 l 1
 847 777 1042 687 1042 397 c 3
 1042 160 911 7 683 -32 c 1
 683 -137 l 1x28
683 582 m 1
 683 197 l 1
 759 226 802 289 802 386 c 3
 802 508 760 558 683 582 c 1
443 859 m 1
 443 1197 l 1
 371 1170 346 1109 346 999 c 3x60
 346 930 386 885 443 859 c 1
EndSplineSet
EndChar

StartChar: percent
Encoding: 37 37 9
Width: 1821
Flags: W
HStem: -55 172<1297.85 1464.15> -10 21G<411 698.113> 548 172<1297.85 1464.15> 716 172<348.854 515.146> 1319 172<348.854 515.146>
VStem: 119 191<926.891 1280.7> 554 191<926.891 1280.7> 1068 191<155.891 509.704> 1503 191<155.891 509.704>
DStem2: 411 -10 688 -10 0.451252 0.892397<124.997 1681.99>
LayerCount: 2
Fore
SplineSet
1381 -55 m 3xaf80
 1173 -55 1068 105 1068 333 c 3
 1068 561 1173 720 1381 720 c 3
 1589 720 1694 561 1694 333 c 3
 1694 105 1589 -55 1381 -55 c 3xaf80
1503 333 m 3
 1503 485 1455 548 1381 548 c 3
 1307 548 1259 485 1259 333 c 3
 1259 181 1307 117 1381 117 c 3
 1455 117 1503 181 1503 333 c 3
432 716 m 3x1f80
 224 716 119 876 119 1104 c 3
 119 1332 224 1491 432 1491 c 3
 640 1491 745 1332 745 1104 c 3
 745 876 640 716 432 716 c 3x1f80
554 1104 m 3
 554 1256 506 1319 432 1319 c 3
 358 1319 310 1256 310 1104 c 3
 310 952 358 888 432 888 c 3
 506 888 554 952 554 1104 c 3
1170 1491 m 1
 1447 1491 l 1
 688 -10 l 1
 411 -10 l 1x4f80
 1170 1491 l 1
EndSplineSet
EndChar

StartChar: ampersand
Encoding: 38 38 10
Width: 1366
Flags: W
HStem: -13 220<408.135 722.582> 1262 220<534.363 714.067>
VStem: 88 240<291.474 529.511> 272 240<1039.52 1238.7> 737 240<1037.15 1237.93>
LayerCount: 2
Fore
SplineSet
977 1169 m 3xd8
 977 1007 873 894 720 812 c 1
 926 522 l 1
 956 579 979 648 995 727 c 1
 1221 649 l 1
 1192 540 1150 442 1095 357 c 1
 1162 270 1238 195 1324 132 c 1
 1173 -67 l 1
 1101 -19 1026 50 948 140 c 1
 925 115 794 -13 576 -13 c 3
 214 -13 88 233 88 403 c 3xe8
 88 593 194 743 407 843 c 1
 325 940 272 1026 272 1154 c 3
 272 1342 429 1482 637 1482 c 3
 820 1482 977 1355 977 1169 c 3xd8
627 1262 m 3
 566 1262 512 1220 512 1151 c 3xd8
 512 1105 544 1043 609 974 c 1
 687 1014 737 1071 737 1155 c 3
 737 1200 700 1262 627 1262 c 3
328 411 m 3xe8
 328 361 370 207 540 207 c 3
 639 207 751 239 800 326 c 1
 530 662 l 1
 400 585 328 500 328 411 c 3xe8
EndSplineSet
EndChar

StartChar: quotesingle
Encoding: 39 39 11
Width: 391
Flags: W
HStem: 947 519<107 276>
VStem: 61 263<1139.17 1466> 107 169<947 1028.83>
LayerCount: 2
Fore
SplineSet
107 947 m 1xa0
 61 1221 l 1
 61 1466 l 1
 324 1466 l 1
 324 1221 l 1xc0
 276 947 l 1
 107 947 l 1xa0
EndSplineSet
EndChar

StartChar: parenleft
Encoding: 40 40 12
Width: 682
Flags: W
VStem: 81 276<200.379 880.853>
LayerCount: 2
Fore
SplineSet
656 1491 m 1
 492 1212 357 980 357 530 c 3
 357 209 457 -111 656 -431 c 1
 436 -431 l 1
 253 -199 81 148 81 531 c 3
 81 918 217 1198 436 1491 c 1
 656 1491 l 1
EndSplineSet
EndChar

StartChar: parenright
Encoding: 41 41 13
Width: 682
Flags: W
VStem: 325 276<200.379 880.853>
LayerCount: 2
Fore
SplineSet
26 1491 m 1
 246 1491 l 1
 465 1198 601 918 601 531 c 3
 601 148 429 -199 246 -431 c 1
 26 -431 l 1
 225 -111 325 209 325 530 c 3
 325 980 190 1212 26 1491 c 1
EndSplineSet
EndChar

StartChar: asterisk
Encoding: 42 42 14
Width: 797
Flags: W
HStem: 862 629
VStem: 310 164<1284 1491>
LayerCount: 2
Fore
SplineSet
478 1491 m 1
 478 1416 478 1361 474 1284 c 1
 533 1316 610 1335 677 1357 c 1
 719 1176 l 1
 653 1161 582 1149 513 1136 c 1
 536 1115 584 1059 658 968 c 1
 507 862 l 1
 461 915 424 981 392 1041 c 1
 360 981 323 915 277 862 c 1
 126 968 l 1
 200 1059 248 1115 271 1136 c 1
 202 1149 131 1161 65 1176 c 1
 107 1357 l 1
 174 1335 251 1316 310 1284 c 1
 306 1361 306 1416 306 1491 c 1
 478 1491 l 1
EndSplineSet
EndChar

StartChar: plus
Encoding: 43 43 15
Width: 1196
Flags: W
HStem: 614 220<114 478 718 1082>
VStem: 478 240<237 614 834 1206>
LayerCount: 2
Fore
SplineSet
478 237 m 1
 478 614 l 1
 114 614 l 1
 114 834 l 1
 478 834 l 1
 478 1206 l 1
 718 1206 l 1
 718 834 l 1
 1082 834 l 1
 1082 614 l 1
 718 614 l 1
 718 237 l 1
 478 237 l 1
EndSplineSet
EndChar

StartChar: comma
Encoding: 44 44 16
Width: 569
Flags: W
HStem: -22 253<122 244>
VStem: 122 297<-22 231> 244 175<-135.047 -22>
LayerCount: 2
Fore
SplineSet
122 -22 m 1xc0
 122 231 l 1
 419 231 l 1
 419 -22 l 2xc0
 419 -201 354 -258 268 -300 c 1
 111 -207 l 1
 219 -159 242 -65 244 -22 c 1xa0
 122 -22 l 1xc0
EndSplineSet
EndChar

StartChar: hyphen
Encoding: 45 45 17
Width: 682
Flags: W
HStem: 411 220<65 618>
VStem: 65 553<411 631>
LayerCount: 2
Fore
SplineSet
65 411 m 1
 65 631 l 1
 618 631 l 1
 618 411 l 1
 65 411 l 1
EndSplineSet
EndChar

StartChar: period
Encoding: 46 46 18
Width: 569
Flags: W
HStem: 0 220<154 430>
VStem: 154 276<0 220>
LayerCount: 2
Fore
SplineSet
154 0 m 1
 154 220 l 1
 430 220 l 1
 430 0 l 1
 154 0 l 1
EndSplineSet
EndChar

StartChar: slash
Encoding: 47 47 19
Width: 595
Flags: W
HStem: -10 21G<-110 137.919> 1450 20G<468.081 716>
DStem2: -110 -10 130 -10 0.368139 0.929771<88.3534 1591.79>
LayerCount: 2
Fore
SplineSet
-110 -10 m 1
 476 1470 l 1
 716 1470 l 1
 130 -10 l 1
 -110 -10 l 1
EndSplineSet
EndChar

StartChar: zero
Encoding: 48 48 20
Width: 1139
Flags: W
HStem: -13 220<440.894 679.872> 1262 220<440.894 679.872>
VStem: 86 240<369.753 1099.94> 800 240<374.393 1095.31>
LayerCount: 2
Fore
SplineSet
560 -13 m 3
 221 -13 86 272 86 735 c 3
 86 1198 221 1482 560 1482 c 3
 899 1482 1040 1198 1040 735 c 3
 1040 272 899 -13 560 -13 c 3
560 1262 m 3
 399 1262 326 1104 326 735 c 3
 326 366 399 207 560 207 c 3
 721 207 800 366 800 735 c 3
 800 1104 721 1262 560 1262 c 3
EndSplineSet
EndChar

StartChar: one
Encoding: 49 49 21
Width: 1139
Flags: W
HStem: 0 21G<523 763> 1452 20G<497 763>
VStem: 523 240<0 1045 1349.19 1472>
LayerCount: 2
Fore
SplineSet
223 1104 m 1
 389 1183 471 1274 523 1472 c 1
 763 1472 l 1
 763 0 l 1
 523 0 l 1
 523 1045 l 1
 403 908 283 858 223 844 c 1
 223 1104 l 1
EndSplineSet
EndChar

StartChar: two
Encoding: 50 50 22
Width: 1139
Flags: W
HStem: 0 220<382 1031> 1262 220<420.459 708.845>
VStem: 96 240<1039 1168.53> 791 240<919.12 1183.74>
LayerCount: 2
Fore
SplineSet
572 1482 m 3
 850 1482 1029 1315 1029 1075 c 3
 1029 689 554 481 382 220 c 1
 1031 220 l 1
 1031 0 l 1
 62 0 l 1
 77 186 185 355 280 450 c 0
 494 666 791 830 791 1079 c 3
 791 1190 675 1262 568 1262 c 3
 423 1262 343 1175 336 1039 c 1
 96 1039 l 1
 96 1307 284 1482 572 1482 c 3
EndSplineSet
EndChar

StartChar: three
Encoding: 51 51 23
Width: 1139
Flags: W
HStem: -13 220<426.555 706.349> 665 220<441 654.684> 1070 21G<104 349.5> 1262 220<419.121 667.937>
VStem: 86 240<312.829 427> 104 240<1070 1185.43> 737 240<957.781 1195.21> 806 240<306.02 567.337>
LayerCount: 2
Fore
SplineSet
1046 449 m 3xf1
 1046 184 835 -13 552 -13 c 3
 299 -13 86 166 86 427 c 1
 326 427 l 1
 343 295 449 207 553 207 c 3
 717 207 806 317 806 445 c 3xf9
 806 576 688 665 537 665 c 3
 504 665 472 660 441 651 c 1
 441 885 l 1
 668 888 737 956 737 1105 c 3
 737 1190 633 1262 549 1262 c 3
 438 1262 355 1191 344 1070 c 1
 104 1070 l 1
 104 1305 296 1482 545 1482 c 3
 788 1482 977 1328 977 1101 c 3xf6
 977 930 928 838 812 794 c 1
 977 768 1046 645 1046 449 c 3xf1
EndSplineSet
EndChar

StartChar: four
Encoding: 52 52 24
Width: 1139
Flags: W
HStem: 0 21G<652 892> 327 220<321 652 892 1070> 1452 20G<639.114 892>
VStem: 652 240<0 327 547 1077>
DStem2: 56 547 321 547 0.54163 0.840617<143.532 768.339>
LayerCount: 2
Fore
SplineSet
652 0 m 1
 652 327 l 1
 56 327 l 1
 56 547 l 1
 652 1472 l 1
 892 1472 l 1
 892 547 l 1
 1070 547 l 1
 1070 327 l 1
 892 327 l 1
 892 0 l 1
 652 0 l 1
652 547 m 1
 652 1077 l 1
 321 547 l 1
 652 547 l 1
EndSplineSet
EndChar

StartChar: five
Encoding: 53 53 25
Width: 1139
Flags: W
HStem: -13 220<407.012 705.638> 774 220<430.138 710.734> 1230 220<460 988>
VStem: 85 240<287.773 412> 817 240<323.312 667.18>
LayerCount: 2
Fore
SplineSet
1057 509 m 3
 1057 208 871 -13 556 -13 c 3
 272 -13 112 155 85 412 c 1
 325 412 l 1
 336 239 472 207 556 207 c 3
 718 207 817 323 817 493 c 3
 817 677 720 774 553 774 c 3
 458 774 409 745 355 683 c 1
 117 705 l 1
 259 1450 l 1
 988 1450 l 1
 988 1230 l 1
 460 1230 l 1
 404 937 l 1
 477 975 523 994 591 994 c 3
 881.028 994 1057 781 1057 509 c 3
EndSplineSet
EndChar

StartChar: six
Encoding: 54 54 26
Width: 1139
Flags: W
HStem: -13 220<446.366 713.584> 757 220<437.968 708.94> 1262 220<460.168 730.739>
VStem: 77 274<350.153 890.212> 77 240<858 1079.42> 806 240<308.722 651.161>
LayerCount: 2
Fore
SplineSet
77 701 m 3xf4
 77 1265 287 1482 603 1482 c 3
 837 1482 1019 1330 1019 1103 c 1
 806 1104 l 1
 771 1222 679 1262 600 1262 c 3
 422 1262 326 1112 317 858 c 1xec
 382 937 473 977 589 977 c 3
 860 977 1046 752 1046 479 c 3
 1046 208 875 -13 586 -13 c 3
 179 -13 77 352 77 701 c 3xf4
573 757 m 3
 435 757 351 653 351 489 c 3xf4
 351 335 429 207 579 207 c 3
 724 207 806 319 806 481 c 3
 806 637 724 757 573 757 c 3
EndSplineSet
EndChar

StartChar: seven
Encoding: 55 55 27
Width: 1139
Flags: W
HStem: 0 21G<262 502> 1230 220<97 764>
VStem: 262 240<0 315.057>
LayerCount: 2
Fore
SplineSet
97 1230 m 1
 97 1450 l 1
 1046 1450 l 1
 1046 1230 l 1
 954 1136 728 856 666 692 c 0
 530 328 502 138 502 0 c 1
 262 0 l 1
 262 243 328 502 455 776 c 0
 506 885 631 1069 764 1230 c 1
 97 1230 l 1
EndSplineSet
EndChar

StartChar: eight
Encoding: 56 56 28
Width: 1139
Flags: W
HStem: -13 220<414.214 717.786> 666 220<445.337 686.663> 1262 220<443.92 688.08>
VStem: 83 240<295.009 587.077> 143 240<946.257 1202.91> 749 240<946.257 1202.91> 809 240<295.009 587.077>
LayerCount: 2
Fore
SplineSet
566 -13 m 3xe2
 315 -13 83 138 83 434 c 3xf2
 83 642 187 749 359 794 c 1
 197 854 143 959 143 1077 c 3
 143 1318 322 1482 566 1482 c 3
 810 1482 989 1318 989 1077 c 3xec
 989 959 935 854 773 794 c 1
 945 749 1049 642 1049 434 c 3
 1049 138 817 -13 566 -13 c 3xe2
566 886 m 3
 680 886 749 966 749 1074 c 3
 749 1198 663 1262 566 1262 c 3
 469 1262 383 1198 383 1074 c 3xec
 383 966 452 886 566 886 c 3
566 207 m 3
 722 207 809 303 809 434 c 3
 809 587 723 666 566 666 c 3
 409 666 323 587 323 434 c 3xf2
 323 303 410 207 566 207 c 3
EndSplineSet
EndChar

StartChar: nine
Encoding: 57 57 29
Width: 1139
Flags: W
HStem: -13 220<433.292 711.898> 495 220<448.015 716.834> 1262 220<448.689 710.971>
VStem: 113 240<820.274 1162.08> 129 240<267.183 369> 804 277<581.526 1118.4> 825 256<392.053 579>
LayerCount: 2
Fore
SplineSet
1081 771 m 3xf4
 1081 207 871 -13 555 -13 c 3
 310 -13 131 139 129 369 c 1
 369 369 l 1
 380 267 459 207 566 207 c 3
 773 207 815 358 825 579 c 1xea
 759 513 686 495 564 495 c 3
 301 495 113 704 113 981 c 3
 113 1273 298 1482 572 1482 c 3
 979 1482 1081 1119 1081 771 c 3xf4
584 715 m 3
 761 715 804 877 804 982 c 3
 804 1140 728 1262 579 1262 c 3
 431 1262 353 1144 353 991 c 3xf4
 353 822 444 715 584 715 c 3
EndSplineSet
EndChar

StartChar: colon
Encoding: 58 58 30
Width: 569
Flags: W
HStem: 0 230<160 415> 832 230<160 415>
VStem: 160 255<0 230 832 1062>
LayerCount: 2
Fore
SplineSet
160 832 m 1
 160 1062 l 1
 415 1062 l 1
 415 832 l 1
 160 832 l 1
160 0 m 1
 160 230 l 1
 415 230 l 1
 415 0 l 1
 160 0 l 1
EndSplineSet
EndChar

StartChar: semicolon
Encoding: 59 59 31
Width: 569
Flags: W
HStem: 0 205<157 259> 832 230<157 412>
VStem: 157 255<0 205 832 1062> 259 153<-156.375 0>
LayerCount: 2
Fore
SplineSet
157 832 m 1xe0
 157 1062 l 1
 412 1062 l 1
 412 832 l 1
 157 832 l 1xe0
157 0 m 1
 157 205 l 1
 412 205 l 1
 412 0 l 2xe0
 412 -163 365 -262 270 -297 c 1
 145 -213 l 1
 215 -182 255 -120 259 0 c 1xd0
 157 0 l 1
EndSplineSet
EndChar

StartChar: less
Encoding: 60 60 32
Width: 1196
Flags: W
DStem2: 112 809 423 724 0.921242 0.38899<253.442 964.933> 423 724 112 641 0.919536 -0.393005<0 712.612>
LayerCount: 2
Fore
SplineSet
112 641 m 1
 112 809 l 1
 1083 1219 l 1
 1083 990 l 1
 423 724 l 1
 1083 455 l 1
 1083 226 l 1
 112 641 l 1
EndSplineSet
EndChar

StartChar: equal
Encoding: 61 61 33
Width: 1196
Flags: W
HStem: 416 220<114 1082> 811 220<114 1082>
LayerCount: 2
Fore
SplineSet
1082 811 m 1
 114 811 l 1
 114 1031 l 1
 1082 1031 l 1
 1082 811 l 1
1082 416 m 1
 114 416 l 1
 114 636 l 1
 1082 636 l 1
 1082 416 l 1
EndSplineSet
EndChar

StartChar: greater
Encoding: 62 62 34
Width: 1196
Flags: W
DStem2: 112 1219 112 990 0.921242 -0.38899<89.0787 780.302> 112 455 112 226 0.919536 0.393005<0 692.383>
LayerCount: 2
Fore
SplineSet
1083 641 m 1
 112 226 l 1
 112 455 l 1
 750 724 l 1
 112 990 l 1
 112 1219 l 1
 1083 809 l 1
 1083 641 l 1
EndSplineSet
EndChar

StartChar: question
Encoding: 63 63 35
Width: 1139
Flags: W
HStem: 0 235<421 695> 1284 220<450.639 711.463>
VStem: 90 240<1046 1159.54> 421 274<0 235> 433 240<361 558.14> 796 240<945.121 1206.91>
LayerCount: 2
Fore
SplineSet
565 1504 m 3xec
 835 1504 1036 1340 1036 1084 c 3
 1036 1024 1023 924 895 782 c 0
 799 676 673 580 673 361 c 1
 433 361 l 1
 433 615 534 714 630 803 c 0
 784 946 796 1031 796 1088 c 3
 796 1243 642 1284 568 1284 c 3
 441 1284 330 1133 330 1046 c 1
 90 1046 l 1
 90 1300 293 1504 565 1504 c 3xec
421 0 m 1xf4
 421 235 l 1
 695 235 l 1
 695 0 l 1
 421 0 l 1xf4
EndSplineSet
EndChar

StartChar: at
Encoding: 64 64 36
Width: 2079
Flags: W
HStem: -428 200<807.239 1436.19> -13 200<803.246 1037.65 1277 1538.16> 895 200<874.62 1141.24> 1042 20G<1304 1523> 1282 200<837.074 1343.44>
VStem: 111 220<212.779 746.234> 502 220<276.986 701.356> 1208 157<270 643> 1736 220<464.457 923.013>
LayerCount: 2
Fore
SplineSet
1354 -13 m 3xdf80
 1200 -13 1168 59 1161 121 c 1
 1090 28 987 -13 854 -13 c 3
 633 -13 502 199 502 461 c 3
 502 801 737 1095 1011 1095 c 3xef80
 1198 1095 1265 988 1278 938 c 1
 1309 1062 l 1
 1523 1062 l 1
 1380 379 l 2
 1374 350 1365 308 1365 270 c 3
 1365 225 1378 187 1422 187 c 3
 1609 187 1736 475 1736 716 c 3
 1736 1068 1413 1282 1100 1282 c 3
 545 1282 331 800 331 485 c 3
 331 174 490 -228 1120 -228 c 3
 1445 -228 1573 -142 1748 19 c 1
 2005 19 l 1
 1873 -253 1545 -428 1123 -428 c 3
 508 -428 111 -120 111 469 c 3
 111 1039 484 1482 1102 1482 c 3
 1590 1482 1956 1181 1956 713 c 3
 1956 355 1688 -13 1354 -13 c 3xdf80
722 474 m 3
 722 270 820 187 906 187 c 3
 1100 187 1208 422 1208 643 c 3
 1208 855 1103 895 1013 895 c 3
 810 895 722 664 722 474 c 3
EndSplineSet
EndChar

StartChar: A
Encoding: 65 65 37
Width: 1366
Flags: W
HStem: 0 21G<1 262.991 1101.01 1363> 433 220<516 848> 1430 20G<572.014 791.986>
DStem2: 1 0 255 0 0.370838 0.928697<94.193 560.474 797.421 1246.25> 784 1450 682 1070 0.370838 -0.928697<315.079 763.905 1000.85 1467.13>
LayerCount: 2
Back
SplineSet
633 1193 m 1
 784 1450 l 1
 1363 0 l 1
 1109 0 l 1
 633 1193 l 1
969 433 m 1
 396 433 l 1
 464 653 l 1
 901 653 l 1
 969 433 l 1
731 1193 m 1
 255 0 l 1
 1 0 l 1
 580 1450 l 1
 731 1193 l 1
EndSplineSet
Fore
SplineSet
516 653 m 1
 848 653 l 1
 682 1070 l 1
 516 653 l 1
784 1450 m 1
 1363 0 l 1
 1109 0 l 1
 936 433 l 1
 428 433 l 1
 255 0 l 1
 1 0 l 1
 580 1450 l 1
 784 1450 l 1
EndSplineSet
EndChar

StartChar: B
Encoding: 66 66 38
Width: 1366
Flags: W
HStem: 0 220<404 944.099> 626 220<404 872.596> 1230 220<404 898.281>
VStem: 164 240<220 626 846 1230> 946 240<912.523 1181.07> 1017 240<284.715 562.552>
LayerCount: 2
Fore
SplineSet
1186 1079 m 3xf8
 1186 843 1050 791 1021 772 c 1
 1178 726 1257 609 1257 421 c 3xf4
 1257 230 1165 0 709 0 c 2
 164 0 l 1
 164 1450 l 1
 700 1450 l 2
 990 1450 1186 1330 1186 1079 c 3xf8
404 846 m 1
 661 846 l 2
 871 846 946 905 946 1056 c 3xf8
 946 1210 866 1230 637 1230 c 2
 404 1230 l 1
 404 846 l 1
404 220 m 1
 709 220 l 2
 887 220 1017 240 1017 421 c 3xf4
 1017 595 920 626 683 626 c 2
 404 626 l 1
 404 220 l 1
EndSplineSet
EndChar

StartChar: C
Encoding: 67 67 39
Width: 1479
Flags: W
HStem: -13 220<604.627 971.755> 1262 220<591.647 984.166>
VStem: 102 240<504.357 991.349> 1158 240<378.713 480>
LayerCount: 2
Fore
SplineSet
788 207 m 3
 967 207 1139 328 1158 480 c 1
 1398 480 l 1
 1327 201 1144 -13 791 -13 c 3
 356 -13 102 276 102 745 c 3
 102 1182 379 1482 794 1482 c 3
 1100 1482 1303 1304 1373 1050 c 1
 1133 1050 l 1
 1091 1182 965 1262 790 1262 c 3
 507 1262 342 1051 342 746 c 3
 342 438 528 207 788 207 c 3
EndSplineSet
EndChar

StartChar: D
Encoding: 68 68 40
Width: 1479
Flags: W
HStem: 0 220<408 882.346> 1230 220<408 887.357>
VStem: 168 240<220 1230> 1140 240<489.272 979.137>
LayerCount: 2
Fore
SplineSet
1380 733 m 3
 1380 147 1038 0 697 0 c 2
 168 0 l 1
 168 1450 l 1
 673 1450 l 2
 1239 1450 1380 1125 1380 733 c 3
675 220 m 2
 969 220 1140 424 1140 736 c 3
 1140 1053 970 1230 670 1230 c 2
 408 1230 l 1
 408 220 l 1
 675 220 l 2
EndSplineSet
EndChar

StartChar: E
Encoding: 69 69 41
Width: 1320
Flags: W
HStem: 0 220<407 1227> 626 220<407 1026> 1230 220<407 1227>
VStem: 167 240<220 626 846 1230>
LayerCount: 2
Fore
SplineSet
167 0 m 1
 167 1450 l 1
 1227 1450 l 1
 1227 1230 l 1
 407 1230 l 1
 407 846 l 1
 1026 846 l 1
 1026 626 l 1
 407 626 l 1
 407 220 l 1
 1227 220 l 1
 1227 0 l 1
 167 0 l 1
EndSplineSet
EndChar

StartChar: F
Encoding: 70 70 42
Width: 1251
Flags: W
HStem: 0 21G<167 407> 626 220<407 1008> 1230 220<407 1158>
VStem: 167 240<0 626 846 1230>
LayerCount: 2
Fore
SplineSet
167 0 m 1
 167 1450 l 1
 1158 1450 l 1
 1158 1230 l 1
 407 1230 l 1
 407 846 l 1
 1008 846 l 1
 1008 626 l 1
 407 626 l 1
 407 0 l 1
 167 0 l 1
EndSplineSet
EndChar

StartChar: G
Encoding: 71 71 43
Width: 1479
Flags: W
HStem: -13 220<600.796 1016.12> 464 220<905 1164> 1262 220<608.129 960.561>
VStem: 102 240<504.027 969.608> 1164 242<342.641 464>
LayerCount: 2
Fore
SplineSet
342 746 m 3
 342 448 513 207 788 207 c 3
 991 207 1157 287 1164 464 c 1
 905 464 l 1
 905 684 l 1
 1404 684 l 1
 1405 660 1406 636 1406 613 c 3
 1406 204 1203 -13 791 -13 c 3
 352 -13 102 294 102 745 c 3
 102 1175 371 1482 794 1482 c 3
 1113 1482 1301 1300 1373 1050 c 1
 1115 1050 l 1
 1068 1167 948 1262 790 1262 c 3
 550 1262 342 1050 342 746 c 3
EndSplineSet
EndChar

StartChar: H
Encoding: 72 72 44
Width: 1479
Flags: W
HStem: 0 21G<164 404 1074 1314> 631 220<404 1074> 1430 20G<164 404 1074 1314>
VStem: 164 240<0 631 851 1450> 1074 240<0 631 851 1450>
LayerCount: 2
Fore
SplineSet
164 0 m 1
 164 1450 l 1
 404 1450 l 1
 404 851 l 1
 1074 851 l 1
 1074 1450 l 1
 1314 1450 l 1
 1314 0 l 1
 1074 0 l 1
 1074 631 l 1
 404 631 l 1
 404 0 l 1
 164 0 l 1
EndSplineSet
EndChar

StartChar: I
Encoding: 73 73 45
Width: 650
Flags: W
HStem: 0 220<25 205 445 625> 1230 220<25 205 445 625>
VStem: 25 600<0 220 1230 1450>
LayerCount: 2
Fore
SplineSet
625 220 m 1
 625 0 l 1
 25 0 l 1
 25 220 l 1
 205 220 l 1
 205 1230 l 1
 25 1230 l 1
 25 1450 l 1
 625 1450 l 1
 625 1230 l 1
 445 1230 l 1
 445 220 l 1
 625 220 l 1
EndSplineSet
EndChar

StartChar: J
Encoding: 74 74 46
Width: 1024
Flags: W
HStem: -13 220<373.562 562.731> 1230 220<408 625>
VStem: 64 240<284.442 455> 625 240<274.243 1230>
LayerCount: 2
Fore
SplineSet
468 207 m 3
 583 207 625 328 625 471 c 2
 625 1230 l 1
 408 1230 l 1
 408 1450 l 1
 865 1450 l 1
 865 456 l 2
 865 116 706 -13 463 -13 c 3
 224 -13 64 112 64 455 c 1
 304 455 l 1
 312 260 401 207 468 207 c 3
EndSplineSet
EndChar

StartChar: K
Encoding: 75 75 47
Width: 1366
Flags: W
HStem: 0 21G<150 390 1034.21 1346> 1430 20G<150 390 1001.28 1316>
VStem: 150 240<0 514 840 1450>
LayerCount: 2
Fore
SplineSet
150 0 m 1
 150 1450 l 1
 390 1450 l 1
 390 840 l 1
 1022 1450 l 1
 1316 1450 l 1
 659 806 l 1
 1346 0 l 1
 1053 -1 l 1
 479 610 l 1
 390 514 l 1
 390 0 l 1
 150 0 l 1
EndSplineSet
EndChar

StartChar: L
Encoding: 76 76 48
Width: 1139
Flags: W
HStem: 0 220<390 1060> 1430 20G<150 390>
VStem: 150 240<220 1450>
LayerCount: 2
Fore
SplineSet
150 0 m 1
 150 1450 l 1
 390 1450 l 1
 390 220 l 1
 1060 220 l 1
 1060 0 l 1
 150 0 l 1
EndSplineSet
EndChar

StartChar: M
Encoding: 77 77 49
Width: 1706
Flags: W
HStem: 0 21G<152 392 668.546 1033.45 1310 1550> 1430 20G<152 393.452 1308.55 1550>
VStem: 152 240<0 762> 1310 240<0 762>
DStem2: 386 1450 392 762 0.349148 -0.937068<646.797 1331.81> 851 202 1026 0 0.349148 0.937068<0 685.017>
LayerCount: 2
Fore
SplineSet
152 0 m 1
 152 1450 l 1
 386 1450 l 1
 851 202 l 1
 1316 1450 l 1
 1550 1450 l 1
 1550 0 l 1
 1310 0 l 1
 1310 762 l 1
 1026 0 l 1
 676 0 l 1
 392 762 l 1
 392 0 l 1
 152 0 l 1
EndSplineSet
EndChar

StartChar: N
Encoding: 78 78 50
Width: 1479
Flags: W
HStem: 0 21G<156 396 1057.15 1311> 1430 20G<156 409.79 1071 1311>
VStem: 156 240<0 975> 1071 240<471 1450>
DStem2: 396 1450 396 975 0.567635 -0.823281<391.058 1189.15>
LayerCount: 2
Fore
SplineSet
156 0 m 1
 156 1450 l 1
 396 1450 l 1
 1071 471 l 1
 1071 1450 l 1
 1311 1450 l 1
 1311 0 l 1
 1071 0 l 1
 396 975 l 1
 396 0 l 1
 156 0 l 1
EndSplineSet
EndChar

StartChar: O
Encoding: 79 79 51
Width: 1593
Flags: W
HStem: -13 220<589.038 1012.23> 1262 220<588.05 1009.57>
VStem: 104 240<469.273 997.201> 1256 240<474.886 991.751>
LayerCount: 2
Fore
SplineSet
800 -13 m 3
 376 -13 104 286 104 714 c 3
 104 1183 355 1482 801 1482 c 3
 1233 1482 1496 1184 1496 731 c 3
 1496 291 1240 -13 800 -13 c 3
803 1262 m 3
 435 1262 344 993 344 712 c 3
 344 401 503 207 800 207 c 3
 1166 207 1256 487 1256 731 c 3
 1256 1053 1103 1262 803 1262 c 3
EndSplineSet
EndChar

StartChar: P
Encoding: 80 80 52
Width: 1366
Flags: W
HStem: 0 21G<158 398> 580 220<398 931.062> 1230 220<398 940.286>
VStem: 158 240<0 580 800 1230> 1037 240<890.087 1148.14>
LayerCount: 2
Fore
SplineSet
1277 1026 m 3
 1277 669 1006 580 728 580 c 2
 398 580 l 1
 398 0 l 1
 158 0 l 1
 158 1450 l 1
 711 1450 l 2
 1147 1450 1277 1280 1277 1026 c 3
1037 1020 m 3
 1037 1187 899 1230 687 1230 c 2
 398 1230 l 1
 398 800 l 1
 691 800 l 2
 959 800 1037 891 1037 1020 c 3
EndSplineSet
EndChar

StartChar: Q
Encoding: 81 81 53
Width: 1659
Flags: W
HStem: -13 220<740.259 1022.42 1318.07 1522.21> 341 220<790.691 1021.8> 1262 220<588.238 1013.43>
VStem: 104 240<486.176 1000.36> 1256 240<492.518 991.105>
LayerCount: 2
Back
SplineSet
894 503 m 0
 1058 503 1148 412 1167 392 c 1
 1229 467 1262 585 1262 736 c 0
 1262 1056 1104 1251 802 1251 c 0
 430 1251 337 983 337 717 c 0
 337 463 450 337 560 280 c 1
 598 424 747 503 894 503 c 0
801 1478 m 1
 1233 1478 1496 1177 1496 731 c 0
 1496 474 1436 299 1317 204 c 1
 1334 185 1359 176 1392 175 c 1
 1431 175 1489 192 1533 228 c 1
 1659 90 l 1
 1585 21 1498 -14 1399 -14 c 0
 1291 -14 1208 27 1156 88 c 1
 1039 11 934 -10 800 -10 c 0
 376 -10 104 286 104 714 c 0
 104 1183 355 1474 801 1478 c 1
1050 226 m 1
 1010 273 965 297 914 298 c 1
 856 298 770 272 738 174 c 1
 762 167 790 164 821 164 c 0
 932 164 1015 199 1050 226 c 1
EndSplineSet
Fore
SplineSet
894 561 m 3
 1058 561 1148 455 1167 435 c 1
 1223 471 1256 589 1256 740 c 3
 1256 1067 1098 1262 802 1262 c 3
 437 1262 344 994 344 721 c 3
 344 467 457 341 560 323 c 1
 598 467 747 561 894 561 c 3
801 1482 m 3
 1233 1482 1496 1181 1496 735 c 3
 1496 478 1436 346 1317 247 c 1
 1334 228 1359 207 1392 207 c 3
 1431 207 1489 224 1533 260 c 1
 1659 90 l 1
 1585 21 1498 -13 1399 -13 c 3
 1291 -13 1208 27 1156 88 c 1
 1039 11 934 -13 800 -13 c 3
 376 -13 104 290 104 718 c 3
 104 1187 355 1482 801 1482 c 3
1050 269 m 1
 1010 316 965 341 914 341 c 3
 856 341 770 315 738 217 c 1
 762 210 790 207 821 207 c 3
 932 207 1015 242 1050 269 c 1
EndSplineSet
EndChar

StartChar: R
Encoding: 82 82 54
Width: 1400
Flags: W
HStem: 0 21G<158 398 1057.9 1387> 580 220<398 663> 1230 220<398 937.577>
VStem: 158 240<0 580 800 1230> 1037 240<894.256 1148.17>
LayerCount: 2
Fore
SplineSet
1277 1026 m 3
 1277 682 1006 611 924 596 c 1
 1387 0 l 1
 1072 0 l 1
 663 580 l 1
 398 580 l 1
 398 0 l 1
 158 0 l 1
 158 1450 l 1
 711 1450 l 2
 1140 1450 1277 1280 1277 1026 c 3
1037 1026 m 3
 1037 1183 896 1230 687 1230 c 2
 398 1230 l 1
 398 800 l 1
 691 800 l 2
 954 800 1037 894 1037 1026 c 3
EndSplineSet
EndChar

StartChar: S
Encoding: 83 83 55
Width: 1366
Flags: W
HStem: -13 220<500.715 907.387> 1262 220<471.905 847.966>
VStem: 92 240<365.238 502> 148 240<978.641 1184.34> 975 240<1019 1133.94> 1019 240<306.212 520.483>
LayerCount: 2
Fore
SplineSet
1259 429 m 3xd4
 1259 157 1015 -13 717 -13 c 3
 200 -13 97 291 92 502 c 1
 332 502 l 1
 359 237 602 207 708 207 c 3
 908 207 1019 302 1019 413 c 3xe4
 1019 540 942 570 598 667 c 0
 405 722 148 776 148 1067 c 3
 148 1325 374 1482 664 1482 c 3
 992 1482 1171 1308 1215 1019 c 1
 975 1019 l 1xd8
 951 1173 849 1262 672 1262 c 3
 528 1262 388 1212 388 1080 c 3
 388 962 460 941 873 816 c 0
 1086 752 1259 688 1259 429 c 3xd4
EndSplineSet
EndChar

StartChar: T
Encoding: 84 84 56
Width: 1251
Flags: W
HStem: 0 21G<508 748> 1230 220<48 508 748 1210>
VStem: 508 240<0 1230>
LayerCount: 2
Fore
SplineSet
508 0 m 1
 508 1230 l 1
 48 1230 l 1
 48 1450 l 1
 1210 1450 l 1
 1210 1230 l 1
 748 1230 l 1
 748 0 l 1
 508 0 l 1
EndSplineSet
EndChar

StartChar: U
Encoding: 85 85 57
Width: 1479
Flags: W
HStem: -13 220<546.817 925.028> 1430 20G<161 401 1074 1314>
VStem: 161 240<358.526 1450> 1074 240<356.168 1450>
LayerCount: 2
Fore
SplineSet
737 207 m 3
 962 207 1074 332 1074 564 c 2
 1074 1450 l 1
 1314 1450 l 1
 1314 564 l 2
 1314 179 1123 -13 741 -13 c 3
 277 -13 161 259 161 564 c 2
 161 1450 l 1
 401 1450 l 1
 401 564 l 2
 401 321 528 207 737 207 c 3
EndSplineSet
EndChar

StartChar: V
Encoding: 86 86 58
Width: 1366
Flags: W
HStem: 0 21G<569.166 783.917> 1430 20G<9 350.803 1015.93 1350>
LayerCount: 2
Fore
SplineSet
577 0 m 1
 9 1450 l 1
 344 1450 l 1
 677 471 l 1
 1023 1450 l 1
 1350 1450 l 1
 776 0 l 1
 577 0 l 1
EndSplineSet
EndChar

StartChar: W
Encoding: 87 87 59
Width: 1933
Flags: W
HStem: 0 21G<361.297 624.867 1292.23 1570.57> 1430 20G<25 284.027 815.362 1098.81 1621.34 1897>
DStem2: 279 1450 25 1450 0.228927 -0.973444<0 959.845> 513 519 618 0 0.324736 0.945805<0 599.468> 1092 1450 961 999 0.320491 -0.947251<385.226 983.487> 1409 519 1566 0 0.222551 0.974921<0 955.945>
LayerCount: 2
Fore
SplineSet
366 0 m 1
 25 1450 l 1
 279 1450 l 1
 513 519 l 1
 822 1450 l 1
 1092 1450 l 1
 1409 519 l 1
 1626 1450 l 1
 1897 1450 l 1
 1566 0 l 1
 1299 0 l 1
 961 999 l 1
 618 0 l 1
 366 0 l 1
EndSplineSet
EndChar

StartChar: X
Encoding: 88 88 60
Width: 1366
Flags: W
HStem: 0 21G<9 332.309 1029.69 1353> 1430 20G<76 398.343 989.527 1313>
DStem2: 9 0 319 0 0.53997 0.841685<167.391 820.736> 386 1450 76 1450 0.515947 -0.85662<0 561.669> 681 972 868 756 0.539776 0.841808<0 576.192> 868 756 681 544 0.53997 -0.841685<77.4628 730.808>
LayerCount: 2
Fore
SplineSet
9 0 m 1
 494 756 l 1
 76 1450 l 1
 386 1450 l 1
 681 972 l 1
 1003 1450 l 1
 1313 1450 l 1
 868 756 l 1
 1353 0 l 1
 1043 0 l 1
 681 544 l 1
 319 0 l 1
 9 0 l 1
EndSplineSet
EndChar

StartChar: Y
Encoding: 89 89 61
Width: 1366
Flags: W
HStem: 0 21G<548 788> 1431 20G<6 316.908 1038.38 1350>
VStem: 548 240<0 621>
DStem2: 304 1451 6 1451 0.54676 -0.837289<0 671.252> 668 887 788 621 0.560672 0.828038<0 682.311>
LayerCount: 2
Fore
SplineSet
548 0 m 1
 548 621 l 1
 6 1451 l 1
 304 1451 l 1
 668 887 l 1
 1052 1451 l 1
 1350 1451 l 1
 788 621 l 1
 788 0 l 1
 548 0 l 1
EndSplineSet
EndChar

StartChar: Z
Encoding: 90 90 62
Width: 1251
Flags: W
HStem: 0 220<375 1200> 1230 220<45 885>
DStem2: 41 227 375 220 0.638534 0.769594<207.883 1310.83>
LayerCount: 2
Fore
SplineSet
41 0 m 1
 41 227 l 1
 885 1230 l 1
 45 1230 l 1
 45 1450 l 1
 1213 1450 l 1
 1213 1230 l 1
 375 220 l 1
 1200 220 l 1
 1200 0 l 1
 41 0 l 1
EndSplineSet
EndChar

StartChar: bracketleft
Encoding: 91 91 63
Width: 569
Flags: W
HStem: -407 200<359 536> 1266 200<359 536>
VStem: 139 397<-407 -207 1266 1466> 139 220<-207 1266>
LayerCount: 2
Fore
SplineSet
139 -407 m 1xe0
 139 1466 l 1
 536 1466 l 1
 536 1266 l 1xe0
 359 1266 l 1
 359 -207 l 1xd0
 536 -207 l 1
 536 -407 l 1
 139 -407 l 1xe0
EndSplineSet
EndChar

StartChar: backslash
Encoding: 92 92 64
Width: 569
Flags: W
VStem: -39 648
DStem2: 185 1491 -39 1491 0.269936 -0.962878<0 1513.98>
LayerCount: 2
Fore
SplineSet
386 -25 m 1
 -39 1491 l 1
 185 1491 l 1
 609 -25 l 1
 386 -25 l 1
EndSplineSet
EndChar

StartChar: bracketright
Encoding: 93 93 65
Width: 569
Flags: W
HStem: -407 200<33 210> 1266 200<33 210>
VStem: 33 397<-407 -207 1266 1466> 210 220<-207 1266>
LayerCount: 2
Fore
SplineSet
430 -407 m 1xe0
 33 -407 l 1
 33 -207 l 1xe0
 210 -207 l 1
 210 1266 l 1xd0
 33 1266 l 1
 33 1466 l 1
 430 1466 l 1
 430 -407 l 1xe0
EndSplineSet
EndChar

StartChar: asciicircum
Encoding: 94 94 66
Width: 961
Flags: W
DStem2: 54 690 288 690 0.383879 0.923384<89.8276 642.384>
LayerCount: 2
Fore
SplineSet
288 690 m 1
 54 690 l 1
 387 1491 l 1
 572 1491 l 1
 907 690 l 1
 676 690 l 1
 479 1209 l 1
 288 690 l 1
EndSplineSet
EndChar

StartChar: underscore
Encoding: 95 95 67
Width: 1139
Flags: W
HStem: -427 200<-31 1162>
LayerCount: 2
Fore
SplineSet
-31 -427 m 1
 -31 -227 l 1
 1162 -227 l 1
 1162 -427 l 1
 -31 -427 l 1
EndSplineSet
EndChar

StartChar: grave
Encoding: 96 96 68
Width: 682
Flags: W
HStem: 1194 280<291 360>
VStem: 60 435
LayerCount: 2
Fore
SplineSet
495 1194 m 1
 291 1194 l 1
 60 1474 l 1
 360 1474 l 1
 495 1194 l 1
EndSplineSet
EndChar

StartChar: a
Encoding: 97 97 69
Width: 1139
Flags: W
HStem: -13 200<335.481 678.779> 495 200<607.963 775> 895 200<405.793 716.271>
VStem: 74 220<226.365 390.79> 775 220<283.906 495 680.834 828.099>
LayerCount: 2
Fore
SplineSet
995 445 m 2
 995 153 1000 93 1052 0 c 1
 814 0 l 1
 803 31 795 63 792 96 c 1
 685 6 579 -13 437 -13 c 3
 149 -13 74 164 74 289 c 3
 74 499 230 600 492 633 c 0
 600 646 695 666 776 695 c 1
 770 836 707 895 558 895 c 3
 422 895 342 818 318 738 c 1
 105 768 l 1
 152 991 304 1095 584 1095 c 3
 864 1095 995 1017 995 694 c 2
 995 445 l 2
294 308 m 3
 294 212 412 187 487 187 c 3
 675 187 775 262 775 444 c 2
 775 495 l 1
 554 414 294 469 294 308 c 3
EndSplineSet
EndChar

StartChar: b
Encoding: 98 98 70
Width: 1139
Flags: W
HStem: -13 200<463.184 715.469> 895 200<468.168 730.54> 1446 20G<134 354>
VStem: 134 220<0 84 316.845 759.416 990 1466> 835 220<321.055 768.951>
LayerCount: 2
Fore
SplineSet
596 -13 m 3
 445 -13 358 67 341 84 c 1
 341 0 l 1
 134 0 l 1
 134 1466 l 1
 354 1466 l 1
 354 990 l 1
 432 1054 518 1095 605 1095 c 3
 892 1095 1055 861 1055 550 c 3
 1055 222 895 -13 596 -13 c 3
591 895 m 3
 449 895 354 748 354 549 c 3
 354 249 496 187 584 187 c 3
 741 187 835 320 835 542 c 3
 835 749 767 895 591 895 c 3
EndSplineSet
EndChar

StartChar: c
Encoding: 99 99 71
Width: 1024
Flags: W
HStem: -13 200<419.61 713.775> 895 200<425.848 702.462>
VStem: 80 220<320.95 750.524> 785 220<261.91 403 696 809.7>
LayerCount: 2
Fore
SplineSet
561 187 m 3
 701 187 782 256 785 403 c 1
 1005 403 l 1
 994 62 740 -13 563 -13 c 3
 271 -13 80 201 80 530 c 3
 80 867 245 1095 564 1095 c 3
 825 1095 1003 929 1003 696 c 1
 785 696 l 1
 783 814 682 895 571 895 c 3
 358 895 300 692 300 535 c 3
 300 334 386 187 561 187 c 3
EndSplineSet
EndChar

StartChar: d
Encoding: 100 100 72
Width: 1139
Flags: W
HStem: -13 200<405.753 659.816> 895 200<401.325 650.577> 1446 20G<769 989>
VStem: 68 220<320.425 769.905> 769 220<0 84 315.715 755.141 990 1466>
LayerCount: 2
Fore
SplineSet
68 550 m 3
 68 871 234 1095 518 1095 c 3
 605 1095 691 1054 769 990 c 1
 769 1466 l 1
 989 1466 l 1
 989 0 l 1
 782 0 l 1
 782 84 l 1
 765 67 678 -13 527 -13 c 3
 228 -13 68 221 68 550 c 3
539 187 m 3
 627 187 769 249 769 545 c 3
 769 740 675 895 532 895 c 3
 435 895 288 839 288 538 c 3
 288 320 374 187 539 187 c 3
EndSplineSet
EndChar

StartChar: e
Encoding: 101 101 73
Width: 1139
Flags: W
HStem: -13 200<431.202 749.74> 475 200<307 829> 895 200<414.898 739.845>
VStem: 75 226<324.048 475 675 783.839> 829 226<265.529 333 675 793.967>
LayerCount: 2
Fore
SplineSet
582 187 m 3
 775 187 812 293 820 333 c 1
 1048 333 l 1
 1006 118 839 -13 581 -13 c 3
 249 -13 75 188 75 525 c 3
 75 870 250 1095 571 1095 c 3
 876 1095 1055 878 1055 539 c 3
 1055 521 1054 493 1053 475 c 1
 301 475 l 1
 312 313 409 187 582 187 c 3
829 675 m 1
 815 818 733 895 572 895 c 3
 415 895 315 795 307 675 c 1
 829 675 l 1
EndSplineSet
EndChar

StartChar: f
Encoding: 102 102 74
Width: 569
Flags: W
HStem: 0 21G<157 377> 862 200<19 157 377 536> 1315 200<415.499 637.409>
VStem: 157 220<0 862 1062 1278.03>
LayerCount: 2
Fore
SplineSet
524 1315 m 3
 438 1315 377 1271 377 1132 c 2
 377 1062 l 1
 536 1062 l 1
 536 862 l 1
 377 862 l 1
 377 0 l 1
 157 0 l 1
 157 862 l 1
 19 862 l 1
 19 1062 l 1
 157 1062 l 1
 157 1175 l 2
 157 1447 330 1515 462 1515 c 3
 529 1515 589 1506 640 1488 c 1
 640 1288 l 1
 580 1307 559 1315 524 1315 c 3
EndSplineSet
EndChar

StartChar: g
Encoding: 103 103 75
Width: 1139
Flags: W
HStem: -428 200<381.072 681.76> -13 200<386.554 687.517> 895 200<392.86 680.594> 1042 20G<782 1002>
VStem: 66 220<303.553 779.139> 95 220<-166.826 -74> 782 220<-115.996 75 294.914 779.28 984 1062>
LayerCount: 2
Fore
SplineSet
522 -428 m 3xda
 153 -428 95 -236 95 -74 c 1
 315 -74 l 1xd6
 315 -127 370 -228 521 -228 c 3
 698 -228 782 -121 782 75 c 1
 719 25 628 -13 525 -13 c 3
 237 -13 66 220 66 535 c 3
 66 874 250 1095 526 1095 c 3xea
 639 1095 743 1049 782 984 c 1
 782 1062 l 1
 1002 1062 l 1
 1002 144 l 2
 1002 -330 834 -428 522 -428 c 3xda
538 895 m 3xea
 331 895 286 722 286 544 c 3
 286 298 361 187 540 187 c 3
 710 187 782 296 782 539 c 3
 782 845 651 895 538 895 c 3xea
EndSplineSet
EndChar

StartChar: h
Encoding: 104 104 76
Width: 1139
Flags: W
HStem: 0 21G<135 355 780 1000> 895 200<466.96 725.978> 1446 20G<135 355>
VStem: 135 220<0 769.351 1008 1466> 780 220<0 843.953>
LayerCount: 2
Fore
SplineSet
596 895 m 3
 435 895 355 735 355 595 c 2
 355 0 l 1
 135 0 l 1
 135 1466 l 1
 355 1466 l 1
 355 1008 l 1
 406 1066 495 1095 600 1095 c 3
 920 1095 1000 858 1000 673 c 2
 1000 0 l 1
 780 0 l 1
 780 687 l 2
 780 849 710 895 596 895 c 3
EndSplineSet
EndChar

StartChar: i
Encoding: 105 105 77
Width: 455
Flags: W
HStem: 0 21G<116 336> 1042 20G<116 336> 1220 246<121 332>
VStem: 116 220<0 1062 1220 1466>
LayerCount: 2
Fore
SplineSet
121 1220 m 1
 121 1466 l 1
 332 1466 l 1
 332 1220 l 1
 121 1220 l 1
116 0 m 1
 116 1062 l 1
 336 1062 l 1
 336 0 l 1
 116 0 l 1
EndSplineSet
EndChar

StartChar: j
Encoding: 106 106 78
Width: 455
Flags: W
HStem: -428 200<-92.0349 80.1743> 1042 20G<116 336> 1220 246<116 336>
VStem: 116 220<-185.337 1062 1220 1466>
LayerCount: 2
Fore
SplineSet
116 1220 m 1
 116 1466 l 1
 336 1466 l 1
 336 1220 l 1
 116 1220 l 1
336 -58 m 2
 336 -336 230 -428 65 -428 c 3
 8 -428 -45 -423 -94 -412 c 1
 -94 -220 l 1
 -59 -225 -38 -228 -29 -228 c 3
 56 -228 116 -191 116 -35 c 2
 116 1062 l 1
 336 1062 l 1
 336 -58 l 2
EndSplineSet
EndChar

StartChar: k
Encoding: 107 107 79
Width: 1024
Flags: W
HStem: 0 21G<136 356 727.727 1016> 1042 20G<678.011 975> 1446 20G<136 356>
VStem: 136 220<0 390 684 1466>
DStem2: 356 684 592 636 0.677507 0.735516<124.587 508.378>
LayerCount: 2
Fore
SplineSet
136 0 m 1
 136 1466 l 1
 356 1466 l 1
 356 684 l 1
 696 1062 l 1
 975 1062 l 1
 592 636 l 1
 1016 0 l 1
 740 0 l 1
 443 484 l 1
 356 390 l 1
 356 0 l 1
 136 0 l 1
EndSplineSet
EndChar

StartChar: l
Encoding: 108 108 80
Width: 455
Flags: W
HStem: 0 21G<112 332> 1446 20G<112 332>
VStem: 112 220<0 1466>
LayerCount: 2
Fore
SplineSet
112 0 m 1
 112 1466 l 1
 332 1466 l 1
 332 0 l 1
 112 0 l 1
EndSplineSet
EndChar

StartChar: m
Encoding: 109 109 81
Width: 1706
Flags: W
HStem: 0 21G<135 355 744 964 1353 1573> 895 200<442.931 702.566 1050.06 1305.93> 1042 20G<135 355>
VStem: 135 220<0 800.125 990 1062> 744 220<0 809.585> 1353 220<0 847.178>
CounterMasks: 1 1c
LayerCount: 2
Fore
SplineSet
578 895 m 3xdc
 398 895 355 742 355 595 c 2
 355 0 l 1
 135 0 l 1
 135 1062 l 1
 355 1062 l 1xbc
 355 990 l 1
 411 1050 503 1095 618 1095 c 3
 814 1095 878 1003 900 957 c 1
 961 1056 1125 1095 1245 1095 c 3
 1507 1095 1573 912 1573 729 c 2
 1573 0 l 1
 1353 0 l 1
 1353 713 l 2
 1353 826 1298 895 1205 895 c 3
 1089 895 964 841 964 661 c 2
 964 0 l 1
 744 0 l 1
 744 734 l 2
 744 856 665 895 578 895 c 3xdc
EndSplineSet
EndChar

StartChar: n
Encoding: 110 110 82
Width: 1139
Flags: W
HStem: 0 21G<135 355 780 1000> 895 200<448.578 725.353> 1044 20G<135 355>
VStem: 135 220<0 793.38 1012 1064> 780 220<0 843.953>
LayerCount: 2
Fore
SplineSet
592 895 m 3xd8
 401 895 355 737 355 599 c 2
 355 0 l 1
 135 0 l 1
 135 1064 l 1
 355 1064 l 1xb8
 355 1012 l 1
 422 1074 488 1095 600 1095 c 3
 920 1095 1000 858 1000 673 c 2
 1000 0 l 1
 780 0 l 1
 780 691 l 2
 780 846 708 895 592 895 c 3xd8
EndSplineSet
EndChar

StartChar: o
Encoding: 111 111 83
Width: 1139
Flags: W
HStem: -13 200<410.297 721.558> 895 200<410.297 721.558>
VStem: 68 220<316.445 765.555> 843 220<316.445 765.555>
LayerCount: 2
Fore
SplineSet
566 -13 m 3
 244 -13 68 187 68 541 c 3
 68 895 244 1095 566 1095 c 3
 888 1095 1063 895 1063 541 c 3
 1063 187 888 -13 566 -13 c 3
566 895 m 3
 340 895 288 723 288 541 c 3
 288 359 340 187 566 187 c 3
 792 187 843 359 843 541 c 3
 843 723 792 895 566 895 c 3
EndSplineSet
EndChar

StartChar: p
Encoding: 112 112 84
Width: 1139
Flags: W
HStem: -13 200<455.966 705.849> 895 200<448.203 701.237> 1042 20G<120 340>
VStem: 120 220<-390 86 326.859 765.841 999 1062> 821 220<322.673 761.149>
LayerCount: 2
Fore
SplineSet
1041 532 m 3xd8
 1041 213 876 -13 591 -13 c 3
 504 -13 418 22 340 86 c 1
 340 -390 l 1
 120 -390 l 1
 120 1062 l 1
 340 1062 l 1xb8
 340 999 l 1
 400 1048 477 1095 582 1095 c 3
 881 1095 1041 860 1041 532 c 3xd8
567 895 m 3xd8
 482 895 340 832 340 537 c 3
 340 342 434 187 574 187 c 3
 666 187 821 244 821 544 c 3
 821 761 728 895 567 895 c 3xd8
EndSplineSet
EndChar

StartChar: q
Encoding: 113 113 85
Width: 1139
Flags: W
HStem: -13 200<422.56 671.975> 895 200<427.137 680.904> 1042 20G<788 1008>
VStem: 87 220<322.039 761.364> 788 220<-390 86 326.859 766.285 999 1062>
LayerCount: 2
Fore
SplineSet
546 1095 m 3xd8
 697 1095 780 1009 788 999 c 1
 788 1062 l 1
 1008 1062 l 1xb8
 1008 -390 l 1
 788 -390 l 1
 788 86 l 1
 710 22 624 -13 537 -13 c 3
 254 -13 87 211 87 532 c 3
 87 860 247 1095 546 1095 c 3xd8
555 187 m 3
 693 187 788 342 788 537 c 3
 788 833 646 895 562 895 c 3xd8
 401 895 307 762 307 544 c 3
 307 243 462 187 555 187 c 3
EndSplineSet
EndChar

StartChar: r
Encoding: 114 114 86
Width: 682
Flags: W
HStem: 0 21G<133 353> 895 200<437.162 660.292> 1042 20G<133 353>
VStem: 133 220<0 815.919 947 1062>
LayerCount: 2
Fore
SplineSet
133 0 m 1xd0
 133 1062 l 1
 353 1062 l 1xb0
 353 947 l 1
 426 1068 486 1095 580 1095 c 3
 636 1095 675 1069 710 1046 c 1
 648 856 l 1
 622 870 607 895 565 895 c 3
 362 895 353 713 353 590 c 2
 353 0 l 1
 133 0 l 1xd0
EndSplineSet
EndChar

StartChar: s
Encoding: 115 115 87
Width: 1024
Flags: W
HStem: -14 200<353.749 678.277> 895 200<344.316 645.174>
VStem: 63 220<253.92 358> 93 220<699.992 861.471> 725 220<231.464 401.532>
LayerCount: 2
Fore
SplineSet
945 325 m 3xd8
 945 114 758 -14 517 -14 c 3
 154 -14 73 210 63 358 c 1
 283 358 l 1xe8
 296 245 381 186 516 186 c 3
 660 186 725 253 725 306 c 3
 725 409 649 426 523 449 c 0
 272 495 93 543 93 783 c 3
 93 978 260 1095 484 1095 c 3
 839 1095 903 898 905 767 c 1
 685 767 l 1
 678 854 612 895 497 895 c 3
 356 895 313 834 313 786 c 3
 313 693 398 670 517 648 c 0
 826 591 945 524 945 325 c 3xd8
EndSplineSet
EndChar

StartChar: t
Encoding: 116 116 88
Width: 569
Flags: W
HStem: -13 200<381.485 530.004> 862 200<18 146 366 497>
VStem: 146 220<205.9 862 1062 1433>
LayerCount: 2
Fore
SplineSet
528 195 m 1
 554 2 l 1
 506 -8 456 -13 406 -13 c 0
 146 -13 146 129 146 311 c 2
 146 862 l 1
 18 862 l 1
 18 1062 l 1
 146 1062 l 1
 146 1433 l 1
 366 1433 l 1
 366 1062 l 1
 497 1062 l 1
 497 862 l 1
 366 862 l 1
 366 297 l 2
 366 234 391 187 474 187 c 0
 475 187 493 190 528 195 c 1
EndSplineSet
EndChar

StartChar: u
Encoding: 117 117 89
Width: 1139
Flags: W
HStem: -13 200<402.92 677.324> 1042 20G<104 324 749 969>
VStem: 104 220<261.609 1062> 749 220<0 34 259.867 1062>
LayerCount: 2
Fore
SplineSet
534 187 m 3
 688 187 749 289 749 403 c 2
 749 1062 l 1
 969 1062 l 1
 969 0 l 1
 749 0 l 1
 749 34 l 1
 688 -2 576 -13 537 -13 c 3
 191 -13 104 210 104 412 c 2
 104 1062 l 1
 324 1062 l 1
 324 408 l 2
 324 234 446 187 534 187 c 3
EndSplineSet
EndChar

StartChar: v
Encoding: 118 118 90
Width: 1024
Flags: W
HStem: 0 21G<421.411 606.552> 1042 20G<26 275.179 753.162 1000>
DStem2: 268 1062 26 1062 0.354787 -0.934947<0 745.739> 520 360 599 0 0.353246 0.93553<0 741.521>
LayerCount: 2
Fore
SplineSet
429 0 m 1
 26 1062 l 1
 268 1062 l 1
 520 360 l 1
 760 1062 l 1
 1000 1062 l 1
 599 0 l 1
 429 0 l 1
EndSplineSet
EndChar

StartChar: w
Encoding: 119 119 91
Width: 1479
Flags: W
HStem: 0 21G<290.539 549.799 935.5 1204.95> 1042 20G<6 260.814 641.582 838.791 1231.21 1463>
DStem2: 256 1062 6 1062 0.263425 -0.96468<0 717.602> 424 364 544 0 0.305568 0.95217<0 393.637> 1069 364 1200 0 0.240384 0.970678<0 717.677>
LayerCount: 2
Fore
SplineSet
296 0 m 1
 6 1062 l 1
 256 1062 l 1
 424 364 l 1
 648 1062 l 1
 832 1062 l 1
 1069 364 l 1
 1236 1062 l 1
 1463 1062 l 1
 1200 0 l 1
 956 0 l 1
 915 149 843 374 740 676 c 1
 544 0 l 1
 296 0 l 1
EndSplineSet
EndChar

StartChar: x
Encoding: 120 120 92
Width: 1024
Flags: W
HStem: 0 21G<15 295.978 719.696 1009> 1042 20G<44 335.006 687.359 981>
DStem2: 15 0 284 0 0.548691 0.836025<147.598 147.598 887.569 1263.71> 324 1062 44 1062 0.509525 -0.860456<0 362.792> 657 562 505 369 0.530812 -0.84749<82.8821 516.1>
LayerCount: 2
Fore
SplineSet
15 0 m 1
 346 552 l 1
 44 1062 l 1
 324 1062 l 1
 499 744 l 1
 700 1062 l 1
 981 1062 l 1
 657 562 l 1
 1009 0 l 1
 732 0 l 1
 505 369 l 1
 284 0 l 1
 15 0 l 1
EndSplineSet
EndChar

StartChar: y
Encoding: 121 121 93
Width: 1024
Flags: W
HStem: -428 200<127 345.04> 1042 20G<33 298.754 737.652 1006>
DStem2: 292 1062 33 1062 0.332959 -0.942941<0 728.209> 525 372 642 0 0.324233 0.945977<0 723.731>
LayerCount: 2
Fore
SplineSet
214 -228 m 3
 330 -228 417 -143 417 -54 c 3
 417 -37 414 -19 408 0 c 2
 33 1062 l 1
 292 1062 l 1
 525 372 l 1
 744 1062 l 1
 1006 1062 l 1
 642 0 l 1
 617 -253 472 -428 239 -428 c 3
 197 -428 157 -427 127 -415 c 1
 107 -214 l 1
 141 -223 177 -228 214 -228 c 3
EndSplineSet
EndChar

StartChar: z
Encoding: 122 122 94
Width: 1024
Flags: W
HStem: 0 200<344 980> 862 200<60 664>
DStem2: 40 200 344 200 0.685913 0.727683<208.518 909.736>
LayerCount: 2
Fore
SplineSet
40 0 m 1
 40 200 l 1
 664 862 l 1
 60 862 l 1
 60 1062 l 1
 948 1062 l 1
 948 862 l 1
 344 200 l 1
 980 200 l 1
 980 0 l 1
 40 0 l 1
EndSplineSet
EndChar

StartChar: braceleft
Encoding: 123 123 95
Width: 684
Flags: W
HStem: -422 200<515.557 636> 448 164<57 186.32> 1282 200<515.557 636>
VStem: 264 220<-191.475 359.354 700.646 1251.47>
CounterMasks: 1 e0
LayerCount: 2
Fore
SplineSet
57 612 m 17
 251 616 264 785 264 971 c 3
 264 1312 284 1482 580 1482 c 2
 636 1482 l 1
 636 1282 l 1
 595 1282 l 2
 508 1282 484 1228 484 981 c 3
 484 729 446 618 308 530 c 1
 446 442 484 331 484 79 c 3
 484 -168 508 -222 595 -222 c 2
 636 -222 l 1
 636 -422 l 1
 580 -422 l 2
 284 -422 264 -252 264 89 c 3
 264 275 251 444 57 448 c 9
 57 612 l 17
EndSplineSet
EndChar

StartChar: bar
Encoding: 124 124 96
Width: 532
Flags: W
VStem: 156 220<-431 1491>
LayerCount: 2
Fore
SplineSet
156 -431 m 1
 156 1491 l 1
 376 1491 l 1
 376 -431 l 1
 156 -431 l 1
EndSplineSet
EndChar

StartChar: braceright
Encoding: 125 125 97
Width: 684
Flags: W
HStem: -422 200<48 168.443> 448 164<497.68 627> 1282 200<48 168.443>
VStem: 200 220<-191.475 359.354 700.646 1251.47>
CounterMasks: 1 e0
LayerCount: 2
Fore
SplineSet
627 612 m 9
 627 448 l 17
 433 444 420 275 420 89 c 3
 420 -252 400 -422 104 -422 c 2
 48 -422 l 1
 48 -222 l 1
 89 -222 l 2
 176 -222 200 -168 200 79 c 3
 200 331 238 442 376 530 c 1
 238 618 200 729 200 981 c 3
 200 1228 176 1282 89 1282 c 2
 48 1282 l 1
 48 1482 l 1
 104 1482 l 2
 400 1482 420 1312 420 971 c 3
 420 785 433 616 627 612 c 9
EndSplineSet
EndChar

StartChar: asciitilde
Encoding: 126 126 98
Width: 1196
Flags: W
HStem: 540 220<688.953 994.271> 674 220<197.32 520.352>
LayerCount: 2
Fore
SplineSet
348 674 m 3x40
 246 674 178 626 87 538 c 1
 87 774 l 1
 158 854 250 894 365 894 c 3x40
 559 894 716 760 852 760 c 3
 955 760 1055 838 1110 897 c 1
 1110 654 l 1
 1025 575 944 540 833 540 c 3x80
 635 540 510 674 348 674 c 3x40
EndSplineSet
EndChar

StartChar: exclamdown
Encoding: 161 161 100
Width: 569
Flags: W
HStem: 0 21G<168 408> 1065 20G<209.644 365.388> 1256 194<176 400>
VStem: 168 240<0 657.569 1256 1450>
LayerCount: 2
Fore
SplineSet
408 451 m 1
 408 0 l 1
 168 0 l 1
 168 451 l 1
 211 1085 l 1
 364 1085 l 1
 408 451 l 1
400 1256 m 1
 176 1256 l 1
 176 1450 l 1
 400 1450 l 1
 400 1256 l 1
EndSplineSet
EndChar

StartChar: cent
Encoding: 162 162 101
Width: 1118
Flags: W
HStem: -14 206<724 853.621> 821 226<891.335 991> 925 202<724 857.889> 1455 20G<504 724>
VStem: 98 220<332.623 786.831> 504 220<-361 -9 201 917 1119.9 1475>
LayerCount: 2
Back
SplineSet
614 181 m 3xbc
 696 181 811 195 959 297 c 1
 991 297 l 1
 991 73 l 1
 982 68 l 1
 816 -9 744 -19 614 -19 c 3
 270 -19 98 238 98 557 c 3
 98 893 288 1135 614 1135 c 3xbc
 765 1135 898 1089 991 1047 c 1
 991 821 l 1
 959 821 l 1xdc
 816 925 690 935 614 935 c 3
 487 935 318 872 318 557 c 3
 318 249 493 181 614 181 c 3xbc
724 -361 m 1
 504 -361 l 1
 504 1475 l 1
 724 1475 l 1
 724 -361 l 1
EndSplineSet
Fore
SplineSet
724 -361 m 1xbc
 504 -361 l 1
 504 -9 l 1
 233 40 98 274 98 557 c 3
 98 853 246 1076 504 1125 c 1
 504 1475 l 1
 724 1475 l 1
 724 1127 l 1xbc
 829 1112 921 1078 991 1047 c 1
 991 821 l 1
 959 821 l 1xdc
 872 884 791 912 724 925 c 1
 724 192 l 1
 790 205 868 234 959 297 c 1
 991 297 l 1
 991 73 l 1
 982 68 l 1
 868 15 798 -6 724 -14 c 1
 724 -361 l 1xbc
504 201 m 1
 504 917 l 1
 407 881 318 785 318 557 c 3
 318 336 408 238 504 201 c 1
EndSplineSet
EndChar

StartChar: sterling
Encoding: 163 163 102
Width: 1118
Flags: W
HStem: 0 200<299 1047> 597 200<114 277 497 863> 1231 235<908.147 1017> 1318 200<582.772 912.744>
VStem: 277 220<369.326 597 797 1222.32>
LayerCount: 2
Fore
SplineSet
986 1231 m 1xe8
 901 1290 805 1318 727 1318 c 3
 564 1318 497 1212 497 1036 c 2
 497 797 l 1
 863 797 l 1
 863 597 l 1
 497 597 l 1
 497 353 390 262 299 200 c 1
 1047 200 l 1
 1047 0 l 1
 73 0 l 1
 73 232 l 1
 231 279 275 384 277 597 c 1
 114 597 l 1
 114 797 l 1
 277 797 l 1
 277 1055 l 2
 277 1331 450 1518 708 1518 c 3xd8
 787 1518 859 1511 1017 1466 c 1
 1017 1231 l 1
 986 1231 l 1xe8
EndSplineSet
EndChar

StartChar: currency
Encoding: 164 164 103
Width: 1118
Flags: W
HStem: 310 200<466.4 653.786> 812 200<466.178 653.237>
VStem: 209 220<547.92 774.264> 691 220<547.948 774.134>
DStem2: 172 1180 42 1051 0.707496 -0.706717<0 319.502 965.62 1284.01> 43 273 170 141 0.706718 0.707495<0 318.388 963.122 1280.57>
LayerCount: 2
Fore
SplineSet
911 661 m 3
 911 608 897 546 863 488 c 1
 1080 272 l 1
 951 143 l 1
 735 358 l 1
 676 324 629 310 560 310 c 3
 492 310 429 334 387 359 c 1
 170 141 l 1
 43 273 l 1
 257 489 l 1
 223 549 209 613 209 661 c 3
 209 729 231 787 258 833 c 1
 42 1051 l 1
 172 1180 l 1
 388 964 l 1
 448 1000 508 1012 560 1012 c 3
 628 1012 689 989 733 965 c 1
 948 1179 l 1
 1080 1052 l 1
 863 834 l 1
 895 780 911 729 911 661 c 3
560 510 m 3
 641 510 691 586 691 661 c 3
 691 736 641 812 560 812 c 3
 479 812 429 736 429 661 c 3
 429 586 479 510 560 510 c 3
EndSplineSet
EndChar

StartChar: yen
Encoding: 165 165 104
Width: 1118
Flags: W
HStem: 0 21G<439 679> 320 220<99 439 679 1019> 1431 20G<14 292.187 831.68 1101>
VStem: 439 240<0 320 540 587>
DStem2: 283 1451 14 1451 0.443058 -0.896493<0 663.312> 560 848 677 608 0.449332 0.893365<0 664.961>
LayerCount: 2
Fore
SplineSet
1101 1451 m 1
 677 608 l 1
 677 540 l 1
 1019 540 l 1
 1019 320 l 1
 679 320 l 1
 679 0 l 1
 439 0 l 1
 439 320 l 1
 99 320 l 1
 99 540 l 1
 441 540 l 1
 441 587 l 1
 14 1451 l 1
 283 1451 l 1
 560 848 l 1
 841 1451 l 1
 1101 1451 l 1
EndSplineSet
EndChar

StartChar: brokenbar
Encoding: 166 166 105
Width: 783
Flags: W
VStem: 281 220<-392 406 758 1556>
LayerCount: 2
Fore
SplineSet
501 758 m 1
 281 758 l 1
 281 1556 l 1
 501 1556 l 1
 501 758 l 1
501 -392 m 1
 281 -392 l 1
 281 406 l 1
 501 406 l 1
 501 -392 l 1
EndSplineSet
EndChar

StartChar: section
Encoding: 167 167 106
Width: 1118
Flags: W
HStem: -404 200<279.834 691.615> -338 221<156 284.552> 1252 221<832.039 962> 1339 200<422.174 834.038>
VStem: 103 220<450.538 706.987> 132 220<1062.59 1276.44> 765 220<-139.153 78.2885> 794 220<423.176 678.244>
DStem2: 527 995 452 802 0.962064 -0.272824<-47.6195 316.226> 497 384 456 177 0.955286 -0.295684<-170.596 203.699>
LayerCount: 2
Back
SplineSet
667 315 m 1x09
 700 335 810 411 810 555 c 0
 810 711 707 745 549 788 c 1
 450 819 l 1
 324 741 308 624 308 579 c 0
 308 444 385 402 492 369 c 2
 667 315 l 1x09
490 -385 m 0x92
 368 -385 263 -360 172 -327 c 1
 172 -133 l 1
 182 -133 l 1x42
 245 -166 370 -220 509 -220 c 0
 618 -220 776 -183 776 -36 c 0
 776 76 711 121 594 154 c 2
 460 192 l 2
 287 242 119 308 119 533 c 0x8a
 119 611 144 752 318 858 c 1
 318 865 l 1
 249 902 148 978 148 1147 c 0
 148 1320 268 1519 628 1519 c 0x94
 755 1519 848 1497 946 1462 c 1
 946 1268 l 1
 936 1268 l 1x24
 765 1354 660 1355 607 1355 c 0
 470 1355 340 1302 340 1176 c 0
 340 1036 430 1000 657 942 c 1
 863 887 998 805 998 601 c 0x15
 998 516 973 381 799 277 c 1
 799 270 l 1
 872 231 969 158 969 -10 c 0
 969 -160 866 -385 490 -385 c 0x92
EndSplineSet
Fore
SplineSet
665 332 m 1x09
 703 356 794 428 794 555 c 3
 794 699 703 724 545 773 c 2
 452 802 l 1
 337 727 323 620 323 579 c 3
 323 453 391 417 497 384 c 2
 665 332 l 1x09
932 1252 m 1x24
 765 1336 659 1339 607 1339 c 3
 471 1339 352 1287 352 1176 c 3
 352 1078 412 1028 527 995 c 2
 661 957 l 2
 869 898 1014 815 1014 601 c 3x15
 1014 515 989 380 825 274 c 1
 899 231 985 151 985 -10 c 3
 985 -168 874 -404 490 -404 c 3x92
 361 -404 252 -373 156 -338 c 1
 156 -117 l 1
 186 -117 l 1x42
 249 -150 372 -204 509 -204 c 3
 618 -204 765 -167 765 -36 c 3
 765 67 705 107 590 139 c 2
 456 177 l 2
 283 227 103 296 103 533 c 3x8a
 103 612 130 754 293 861 c 1
 222 903 132 985 132 1147 c 3
 132 1329 261 1539 628 1539 c 3x94
 762 1539 860 1510 962 1473 c 1
 962 1252 l 1
 932 1252 l 1x24
EndSplineSet
EndChar

StartChar: dieresis
Encoding: 168 168 107
Width: 1118
Flags: W
HStem: 1288 227<237 470 650 883>
VStem: 237 233<1288 1515> 650 233<1288 1515>
LayerCount: 2
Fore
SplineSet
883 1288 m 1
 650 1288 l 1
 650 1515 l 1
 883 1515 l 1
 883 1288 l 1
470 1288 m 1
 237 1288 l 1
 237 1515 l 1
 470 1515 l 1
 470 1288 l 1
EndSplineSet
EndChar

StartChar: copyright
Encoding: 169 169 108
Width: 1902
Flags: W
HStem: -226 142<713.827 1188.17> 164 200<837.592 1157.62> 245 226<1192.55 1290> 852 228<1191.93 1290> 959 200<837.874 1155.16> 1393 142<705.565 1196.44>
VStem: 70 148<408.797 901.126> 515 220<469.957 849.929> 1684 148<408.797 901.126>
LayerCount: 2
Back
SplineSet
1816 655 m 0x8780
 1816 416 1732 212 1562 44 c 1
 1394 -126 1190 -210 951 -210 c 0
 712 -210 508 -126 340 44 c 1
 170 212 86 416 86 655 c 0
 86 894 170 1097 340 1266 c 1
 508 1435 712 1519 951 1519 c 0
 1190 1519 1394 1435 1562 1266 c 1
 1732 1097 1816 894 1816 655 c 0x8780
1701 655 m 0
 1701 864 1628 1042 1482 1188 c 0
 1335 1336 1159 1409 952 1409 c 0
 745 1409 569 1336 422 1188 c 0
 276 1042 203 864 203 655 c 0
 203 446 276 268 422 121 c 0
 569 -26 745 -100 952 -100 c 0
 1159 -100 1335 -26 1482 121 c 0
 1628 268 1701 446 1701 655 c 0
986 327 m 0xcf80
 1124 327 1238 416 1258 434 c 1
 1274 434 l 1
 1274 255 l 1xa780
 1136 194 1076 180 982 180 c 0
 781 180 531 276 531 660 c 0
 531 973 718 1143 982 1143 c 0xcf80
 1099 1143 1202 1106 1274 1070 c 1
 1274 889 l 1
 1258 889 l 1x9780
 1203 937 1095 996 986 996 c 0
 878 996 716 948 716 660 c 0
 716 375 878 327 986 327 c 0xcf80
EndSplineSet
Fore
SplineSet
1832 655 m 3x8780
 1832 173 1433 -226 951 -226 c 3
 469 -226 70 173 70 655 c 3
 70 1136 469 1535 951 1535 c 3
 1433 1535 1832 1136 1832 655 c 3x8780
1684 655 m 3
 1684 1061 1354 1393 951 1393 c 3
 548 1393 218 1061 218 655 c 3
 218 250 547 -84 951 -84 c 3
 1355 -84 1684 250 1684 655 c 3
1252 852 m 1x9780
 1198 899 1093 959 986 959 c 3
 887 959 735 918 735 660 c 3
 735 405 887 364 986 364 c 3xcf80
 1122 364 1230 452 1252 471 c 1
 1290 471 l 1
 1290 245 l 1xa780
 1153 185 1079 164 982 164 c 3
 776 164 515 266 515 660 c 3
 515 981 710 1159 982 1159 c 3xcf80
 1108 1159 1213 1118 1290 1080 c 1
 1290 852 l 1
 1252 852 l 1x9780
EndSplineSet
EndChar

StartChar: ordfeminine
Encoding: 170 170 109
Width: 1010
Flags: W
HStem: 525 200<345.578 592.28> 999 200<391.943 670> 1286 200<173 403.205> 1335 200<223.5 642.738>
VStem: 98 220<753.592 937.111> 670 220<550 625 785.535 999 1197.11 1300.85>
LayerCount: 2
Fore
SplineSet
173 1486 m 1xec
 216 1499 352 1535 483 1535 c 3
 785 1535 890 1397 890 1194 c 2
 890 550 l 1
 670 550 l 1
 670 625 l 1
 597 549 481 525 404 525 c 3
 229 525 98 654 98 839 c 3
 98 1126 314 1180 670 1199 c 1
 670 1306 610 1335 482 1335 c 3xdc
 427 1335 369 1330 207 1286 c 1
 173 1286 l 1
 173 1486 l 1xec
461 725 m 3
 506 725 577 730 670 823 c 1
 670 999 l 1
 476 985 318 978 318 849 c 3
 318 790 347 725 461 725 c 3
EndSplineSet
EndChar

StartChar: guillemotleft
Encoding: 171 171 110
Width: 1174
Flags: W
HStem: 1128 20G<1035.68 1059>
DStem2: 87 704 306 652 0.753437 0.65752<130.812 562.88> 306 652 87 601 0.752749 -0.658308<0 432.072> 539 702 751 652 0.75905 0.651032<128.367 535.329> 751 652 539 603 0.758329 -0.651872<0 406.963>
LayerCount: 2
Fore
SplineSet
1059 156 m 1
 539 603 l 1
 539 702 l 1
 1059 1148 l 1
 1059 918 l 1
 751 652 l 1
 1059 386 l 1
 1059 156 l 1
629 127 m 1
 87 601 l 1
 87 704 l 1
 629 1177 l 1
 629 939 l 1
 306 652 l 1
 629 365 l 1
 629 127 l 1
EndSplineSet
EndChar

StartChar: logicalnot
Encoding: 172 172 111
Width: 1490
Flags: W
HStem: 578 200<141 1119>
VStem: 1119 220<41 578>
LayerCount: 2
Fore
SplineSet
1339 41 m 1
 1119 41 l 1
 1119 578 l 1
 141 578 l 1
 141 778 l 1
 1339 778 l 1
 1339 41 l 1
EndSplineSet
EndChar

StartChar: registered
Encoding: 174 174 113
Width: 1902
Flags: W
HStem: -226 142<713.827 1188.17> 554 200<854 930> 946 200<854 1085.3> 1393 142<705.565 1196.44>
VStem: 70 148<408.797 901.126> 634 220<199 554 754 946> 1098 220<784.564 928.707> 1684 148<408.797 901.126>
DStem2: 1149 619 930 554 0.62242 -0.782684<0 368.562>
LayerCount: 2
Fore
SplineSet
1832 655 m 3
 1832 173 1433 -226 951 -226 c 3
 469 -226 70 173 70 655 c 3
 70 1136 469 1535 951 1535 c 3
 1433 1535 1832 1136 1832 655 c 3
1684 655 m 3
 1684 1061 1354 1393 951 1393 c 3
 548 1393 218 1061 218 655 c 3
 218 250 547 -84 951 -84 c 3
 1355 -84 1684 250 1684 655 c 3
1318 879 m 3
 1318 772 1270 682 1149 619 c 1
 1483 199 l 1
 1213 199 l 1
 930 554 l 1
 854 554 l 1
 854 199 l 1
 634 199 l 1
 634 1146 l 1
 929 1146 l 2
 1177 1146 1318 1062 1318 879 c 3
913 754 m 2
 1067 754 1098 815 1098 868 c 3
 1098 934 1025 946 930 946 c 2
 854 946 l 1
 854 754 l 1
 913 754 l 2
EndSplineSet
EndChar

StartChar: macron
Encoding: 175 175 114
Width: 1118
Flags: W
HStem: 1643 162<-16 1134>
LayerCount: 2
Fore
SplineSet
1134 1643 m 1
 -16 1643 l 1
 -16 1805 l 1
 1134 1805 l 1
 1134 1643 l 1
EndSplineSet
EndChar

StartChar: degree
Encoding: 176 176 115
Width: 964
Flags: W
HStem: 739 200<379.452 585.911> 1331 200<378.724 585.545>
VStem: 85 220<1012.94 1256.67> 659 220<1012.53 1258.1>
LayerCount: 2
Fore
SplineSet
482 1531 m 3
 703 1531 879 1363 879 1135 c 3
 879 908 704 739 482 739 c 3
 262 739 85 905 85 1135 c 3
 85 1362 260 1531 482 1531 c 3
482 939 m 3
 576 939 659 1037 659 1135 c 3
 659 1244 567 1331 482 1331 c 3
 391 1331 305 1238 305 1135 c 3
 305 1024 401 939 482 939 c 3
EndSplineSet
EndChar

StartChar: plusminus
Encoding: 177 177 116
Width: 1490
Flags: W
HStem: 143 220<146 625 865 1344> 723 220<146 625 865 1344>
VStem: 625 240<363 723 943 1418>
LayerCount: 2
Fore
SplineSet
1344 143 m 1
 146 143 l 1
 146 363 l 1
 625 363 l 1
 625 723 l 1
 146 723 l 1
 146 943 l 1
 625 943 l 1
 625 1418 l 1
 865 1418 l 1
 865 943 l 1
 1344 943 l 1
 1344 723 l 1
 865 723 l 1
 865 363 l 1
 1344 363 l 1
 1344 143 l 1
EndSplineSet
EndChar

StartChar: uni00B2
Encoding: 178 178 117
Width: 1010
Flags: W
HStem: 534 200<450 819> 1318 200<416.292 585.86>
VStem: 175 220<1179 1294.99> 599 220<1120.67 1301.29>
LayerCount: 2
Fore
SplineSet
502 1518 m 3
 689 1518 818 1401 818 1233 c 3
 818 998 568 862 450 734 c 1
 819 734 l 1
 819 534 l 1
 150 534 l 1
 163 681 224 794 298 868 c 0
 439 1010 599 1105 599 1236 c 3
 599 1282 546 1318 501 1318 c 3
 421 1318 398 1266 395 1179 c 1
 175 1179 l 1
 175 1385 288 1518 502 1518 c 3
EndSplineSet
EndChar

StartChar: uni00B3
Encoding: 179 179 118
Width: 1010
Flags: W
HStem: 528 200<419.932 586.045> 946 200<390.268 552.013> 1318 200<421.421 554.274>
VStem: 168 220<756.332 863 1198 1289.59> 564 220<1161.39 1307.7> 608 220<751.392 921.44>
LayerCount: 2
Fore
SplineSet
828 845 m 3xf4
 828 661 681 528 490 528 c 3
 299 528 168 659 168 863 c 1
 388 863 l 1
 400 784 436 728 490 728 c 3
 572 728 608 780 608 842 c 3xf4
 608 900 559 946 480 946 c 3
 446 946 416 936 389 928 c 1
 389 1146 l 1
 531 1146 564 1165 564 1252 c 3
 564 1280 518 1318 490 1318 c 3
 428 1318 408 1273 400 1198 c 1
 180 1198 l 1
 180 1386 294 1518 485 1518 c 3
 649 1518 784 1411 784 1249 c 3xf8
 784 1170 769 1109 726 1068 c 1
 801 1027 828 945 828 845 c 3xf4
EndSplineSet
EndChar

StartChar: acute
Encoding: 180 180 119
Width: 1118
Flags: W
HStem: 1286 406
VStem: 424 478
LayerCount: 2
Fore
SplineSet
902 1692 m 1
 606 1286 l 1
 424 1286 l 1
 618 1692 l 1
 902 1692 l 1
EndSplineSet
EndChar

StartChar: mu
Encoding: 181 181 120
Width: 1163
Flags: W
HStem: -13 200<417.368 740.953>
VStem: 120 220<-412 91 255.474 1117> 823 220<0 99 255.874 1117>
LayerCount: 2
Fore
SplineSet
578 187 m 3
 684 187 757 228 823 297 c 1
 823 1117 l 1
 1043 1117 l 1
 1043 0 l 1
 823 0 l 1
 823 99 l 1
 721 -1 658 -13 578 -13 c 3
 483 -13 420 10 340 91 c 1
 340 -412 l 1
 120 -412 l 1
 120 1117 l 1
 340 1117 l 1
 340 297 l 1
 401 227 480 187 578 187 c 3
EndSplineSet
EndChar

StartChar: paragraph
Encoding: 182 182 121
Width: 1118
Flags: W
HStem: 1289 200<671 778>
VStem: 41 630<813.911 1242.18> 451 220<-363 566.389> 778 220<-363 1289>
LayerCount: 2
Fore
SplineSet
41 1034 m 0xd0
 41 1334 244 1489 512 1489 c 2
 998 1489 l 1
 998 -363 l 1
 778 -363 l 1
 778 1289 l 1
 671 1289 l 1
 671 -363 l 1
 451 -363 l 1
 451 562 l 1xb0
 225 575 41 756 41 1034 c 0xd0
EndSplineSet
EndChar

StartChar: periodcentered
Encoding: 183 183 122
Width: 724
Flags: W
HStem: 816 317<227 498>
VStem: 227 271<816 1133>
LayerCount: 2
Fore
SplineSet
498 816 m 1
 227 816 l 1
 227 1133 l 1
 498 1133 l 1
 498 816 l 1
EndSplineSet
EndChar

StartChar: cedilla
Encoding: 184 184 123
Width: 1118
Flags: W
HStem: -428 200<289.633 546.082> -400 206<273 437.751>
VStem: 569 220<-203.061 47>
LayerCount: 2
Fore
SplineSet
301 -194 m 1x60
 345 -214 392 -228 440 -228 c 3
 526 -228 569 -190 569 -96 c 3
 569 -51 567 -40 564 47 c 1
 782 47 l 1
 785 11 789 -44 789 -78 c 3
 789 -354 597 -428 466 -428 c 3xa0
 428 -428 341 -420 273 -400 c 1
 273 -194 l 1
 301 -194 l 1x60
EndSplineSet
EndChar

StartChar: uni0E01
Encoding: 3585 3585 124
Width: 1240
Flags: W
HStem: 0 21G<188 408 862 1082> 949 200<460.04 772.932>
VStem: 188 220<0 555.544> 862 220<0 852.732>
LayerCount: 2
Fore
SplineSet
624 1149 m 0
 909 1149 1082 976 1082 673 c 2
 1082 0 l 1
 862 0 l 1
 862 657 l 2
 862 858 783 949 624 949 c 0
 518 949 440 916 390 831 c 1
 464 795 516 739 546 663 c 1
 439 552 408 523 408 363 c 2
 408 0 l 1
 188 0 l 1
 188 363 l 2
 188 524 209 560 316 671 c 1
 269 726 203 767 118 792 c 1
 142 912 308 1149 624 1149 c 0
EndSplineSet
EndChar

StartChar: uni0E02
Encoding: 3586 3586 125
Width: 1400
Flags: W
HStem: 0 200<757 997> 531 129<273.788 380.748> 953 196<408.323 608.195>
VStem: 91 176<664.663 824.451> 389 131<663.562 824.488> 537 220<200 678.689> 664 220<727.598 893.234> 997 220<200 1139>
LayerCount: 2
Fore
SplineSet
326 828 m 0xf9
 286 828 267 784 267 744 c 0
 267 704 286 660 326 660 c 0
 366 660 389 704 389 744 c 0
 389 784 366 828 326 828 c 0xf9
91 789 m 0
 91 970 234 1149 476 1149 c 0
 829 1149 884 849 884 771 c 1xfb
 799 688 757 623 757 575 c 2
 757 200 l 1
 997 200 l 1
 997 1139 l 1
 1217 1139 l 1
 1217 0 l 1
 537 0 l 1
 537 575 l 2xfd
 537 622 572 682 664 771 c 1xfb
 664 866 601 953 499 953 c 0
 427 953 407 922 406 922 c 1
 406 921 406 920 405 920 c 1
 481 911 520 835 520 748 c 0
 520 628 436 531 307 531 c 0
 162 531 91 637 91 789 c 0
EndSplineSet
EndChar

StartChar: uni0E03
Encoding: 3587 3587 126
Width: 1450
Flags: W
HStem: 0 200<810 1050> 457 129<253.406 358.807> 754 108<324 355.304> 1129 10G<296 389.444 636.333 741 1050 1270>
VStem: 74 171<589.777 749.916> 367 131<591.806 749.04> 590 220<200 675.176> 731 206<734.718 891.065> 1050 220<200 1139>
LayerCount: 2
Fore
SplineSet
304 754 m 0xfc80
 264 754 245 710 245 670 c 0
 245 630 264 586 304 586 c 0
 344 586 367 630 367 670 c 0
 367 710 344 754 304 754 c 0xfc80
590 575 m 2xfe80
 590 628 633 691 731 771 c 1
 731 816 693 896 663 929 c 1
 519 821 l 1
 360 929 l 1
 337 897 324 869 324 862 c 1
 466 862 498 742 498 674 c 0
 498 553 413 457 286 457 c 0
 116 457 74 615 74 703 c 0
 74 948 232 1096 360 1149 c 1
 519 1041 l 1
 663 1149 l 1
 819 1108 937 912 937 771 c 1xfd80
 852 688 810 623 810 575 c 2
 810 200 l 1
 1050 200 l 1
 1050 1139 l 1
 1270 1139 l 1
 1270 0 l 1
 590 0 l 1
 590 575 l 2xfe80
EndSplineSet
EndChar

StartChar: uni0E04
Encoding: 3588 3588 127
Width: 1370
Flags: W
HStem: 0 21G<251 492.5 980 1200> 305 111<665.52 789.882> 574 142<667.147 788.602> 949 200<522.855 849.311>
VStem: 169 220<385.871 817.133> 798 119<422.691 566.283> 980 220<0 821.097>
LayerCount: 2
Fore
SplineSet
798 495 m 0
 798 535 768 574 728 574 c 0
 688 574 658 535 658 495 c 0
 658 455 688 416 728 416 c 0
 768 416 798 455 798 495 c 0
169 680 m 0
 169 996 384 1149 681 1149 c 0
 940 1149 1200 1016 1200 677 c 2
 1200 0 l 1
 980 0 l 1
 980 664 l 2
 980 878 808 949 685 949 c 0
 583 949 389 890 389 647 c 0
 389 567 418 434 421 384 c 1
 482 592 578 716 720 716 c 0
 826 716 917 612 917 514 c 0
 917 409 824 305 707 305 c 0
 662 305 623 325 618 338 c 1
 588 304 494 52 491 0 c 1
 251 0 l 1
 251 108 l 2
 251 221 169 491 169 680 c 0
EndSplineSet
EndChar

StartChar: uni0E05
Encoding: 3589 3589 128
Width: 1370
Flags: W
HStem: 0 21G<238 478 967 1187> 305 111<652.974 776.671> 574 142<653.238 775.414> 1129 20G<423.5 541.276 820.172 1018>
VStem: 155 221<385.892 839.212> 238 240<0 147.209> 785 119<422.241 567.512> 967 220<0 835.693>
LayerCount: 2
Fore
SplineSet
785 495 m 0xf3
 785 535 755 574 715 574 c 0
 675 574 645 535 645 495 c 0
 645 455 675 416 715 416 c 0
 755 416 785 455 785 495 c 0xf3
513 909 m 1
 419 869 376 797 376 668 c 0xfb
 376 604 402 441 408 384 c 1
 469 592 561 716 706 716 c 0
 825 716 904 595 904 514 c 0
 904 417 810 305 694 305 c 0
 647 305 610 326 605 338 c 1
 570 299 478 37 478 0 c 1
 238 0 l 1
 238 108 l 2xf7
 238 209 155 518 155 706 c 0xfb
 155 988 334 1129 513 1149 c 1
 677 1033 l 1
 850 1149 l 1
 1186 1073 1187 764 1187 677 c 2
 1187 0 l 1
 967 0 l 1
 967 664 l 2
 967 746 966 833 850 909 c 1
 677 795 l 1
 513 909 l 1
EndSplineSet
EndChar

StartChar: uni0E06
Encoding: 3590 3590 129
Width: 1520
Flags: W
HStem: -13 263<1014.37 1197> -10 166<523.956 658> 457 129<243.406 348.807> 754 108<314 345.304> 1119 20G<286 379.444 626.333 731 1139 1359>
VStem: 64 171<589.777 749.916> 357 131<591.806 749.04> 366 156<157.924 309.388> 580 220<497.747 676.221> 721 206<734.718 891.065> 1139 220<250.509 1139>
LayerCount: 2
Fore
SplineSet
294 754 m 0x3e20
 254 754 235 710 235 670 c 0
 235 630 254 586 294 586 c 0
 334 586 357 630 357 670 c 0
 357 710 334 754 294 754 c 0x3e20
927 771 m 1x7e60
 841 689 800 624 800 575 c 2
 800 430 l 1
 920 315 1034 250 1087 250 c 0
 1151 250 1139 329 1139 377 c 2
 1139 1139 l 1
 1359 1139 l 1
 1359 218 l 2
 1359 14 1231 -13 1163 -13 c 0xbca0
 1034 -13 808 156 799 164 c 1
 799 66 716 -10 600 -10 c 0
 400 -10 366 159 366 249 c 0
 366 351 428 484 580 507 c 1
 580 575 l 2x7da0
 580 628 621 691 721 771 c 1
 721 808 683 896 653 929 c 1
 509 821 l 1
 350 929 l 1
 327 897 314 869 314 862 c 1
 456 862 488 742 488 674 c 0
 488 553 403 457 276 457 c 0
 106 457 64 615 64 703 c 0
 64 948 222 1096 350 1149 c 1
 509 1041 l 1
 653 1149 l 1
 809 1108 927 912 927 771 c 1x7e60
555 156 m 0x7d20
 587 156 595 179 595 222 c 2
 595 317 l 1
 551 317 523 272 522 219 c 0
 522 177 533 156 555 156 c 0x7d20
EndSplineSet
EndChar

StartChar: uni0E07
Encoding: 3591 3591 130
Width: 1000
Flags: W
HStem: -10 200<472.823 624.264> 752 105<561.998 634.665> 1026 123<563.503 668.66>
VStem: 438 116<862.17 1021.29> 635 220<203.796 759> 674 181<857.717 1024.38>
DStem2: 386 640 145 719 0.180434 -0.983587<0 453.005>
LayerCount: 2
Fore
SplineSet
651 1149 m 0xf8
 733 1149 855 1106 855 881 c 2xf4
 855 272 l 2
 855 46 686 -10 553 -10 c 0
 292 -10 240 200 227 272 c 2
 145 719 l 1
 386 640 l 1
 452 292 l 1
 467 200 521 190 550 190 c 0
 606 190 635 224 635 292 c 2
 635 759 l 1
 628 754 611 752 585 752 c 0
 537 752 438 792 438 922 c 0
 438 1061 526 1149 651 1149 c 0xf8
674 945 m 0
 674 989 663 1026 619 1026 c 0
 588 1026 554 992 554 941 c 0
 554 897 583 857 620 857 c 0
 663 857 674 897 674 945 c 0
EndSplineSet
EndChar

StartChar: uni0E08
Encoding: 3592 3592 131
Width: 1200
Flags: W
HStem: -10 200<693.146 804.566> 344 113<353.461 462.072> 625 124<353.428 460.88> 949 200<377.911 704.904>
VStem: 233 114<460.745 622.903> 468 220<191.427 373 459.051 619.548> 808 220<195.298 849.301>
LayerCount: 2
Fore
SplineSet
455 749 m 0
 558 749 688 702 688 517 c 2
 688 263 l 2
 688 214 708 190 748 190 c 0
 788 190 808 213 808 259 c 2
 808 695 l 2
 808 898 654 949 546 949 c 0
 403 949 291 861 242 775 c 1
 104 929 l 1
 172 1046 348 1149 544 1149 c 0
 819 1149 1028 1023 1028 740 c 2
 1028 279 l 2
 1028 85 934 -10 745 -10 c 0
 560 -10 468 89 468 283 c 2
 468 373 l 1
 449 351 413 344 389 344 c 0
 327 344 233 404 233 524 c 0
 233 687 345 749 455 749 c 0
347 541 m 0
 347 485 369 457 407 457 c 0
 445 457 467 485 467 541 c 0
 467 597 445 625 407 625 c 0
 369 625 347 597 347 541 c 0
EndSplineSet
EndChar

StartChar: uni0E09
Encoding: 3593 3593 132
Width: 1395
Flags: W
HStem: -13 246<516 695.284> -10 166<1033.5 1167.85> 365 111<238.427 346.73> 644 122<238.96 346.397> 949 200<453.907 793.901>
VStem: 121 111<477.734 641.199> 354 220<233.058 393 478.481 639.016> 893 220<479.639 848.699> 1169 148<157.999 309.397>
AnchorPoint: "AboveBase" 1118 1227 basechar 0
LayerCount: 2
Fore
SplineSet
232 560 m 0x3f80
 232 504 254 476 292 476 c 0
 330 476 352 504 352 560 c 0
 352 616 330 644 292 644 c 0
 254 644 232 616 232 560 c 0x3f80
622 233 m 0xbf80
 701 233 878 395 893 410 c 1
 893 714 l 2
 893 876 768 949 629 949 c 0
 446 949 343 826 322 788 c 1
 180 942 l 1
 248 1055 428 1149 625 1149 c 0
 926 1149 1113 1000 1113 713 c 2
 1113 487 l 1
 1304 468 1317 282 1317 244 c 0
 1317 112 1254 -10 1093 -10 c 0x7f80
 974 -10 894 62 894 164 c 1
 806 104 672 -13 550 -13 c 0
 482 -13 354 14 354 218 c 2
 354 393 l 1
 335 374 309 365 276 365 c 0
 173 365 121 457 121 550 c 0
 121 723 261 766 325 766 c 0
 476 766 574 687 574 544 c 2
 574 357 l 2
 574 252 573 233 622 233 c 0xbf80
1096 222 m 2
 1096 167 1112 156 1136 156 c 0
 1158 156 1169 177 1169 219 c 0
 1169 272 1140 317 1096 317 c 1
 1096 222 l 2
EndSplineSet
EndChar

StartChar: uni0E0A
Encoding: 3594 3594 133
Width: 1390
Flags: W
HStem: 0 200<751 991> 531 129<269.048 374.807> 953 196<402.323 597.578>
VStem: 85 176<662.257 824.451> 383 131<663.562 824.488> 531 220<200 645.235> 991 220<200 670.878> 1086 235<1031.74 1188>
LayerCount: 2
Fore
SplineSet
320 828 m 0xfc
 280 828 261 784 261 744 c 0
 261 704 280 660 320 660 c 0
 360 660 383 704 383 744 c 0
 383 784 360 828 320 828 c 0xfc
878 719 m 1
 815 678 751 606 751 545 c 2
 751 200 l 1
 991 200 l 1
 991 546 l 2xfe
 991 660 940 679 878 719 c 1
85 789 m 0
 85 970 228 1149 470 1149 c 0
 684 1149 788 1056 841 924 c 1
 971 942 1086 1020 1086 1163 c 2
 1086 1188 l 1
 1321 1188 l 1
 1321 1164 l 2xfd
 1321 1010 1208 865 1084 825 c 1
 1175 770 1211 707 1211 629 c 2
 1211 0 l 1
 531 0 l 1
 531 575 l 2
 531 622 566 682 658 771 c 1
 658 858 596 953 493 953 c 0
 421 953 401 922 400 922 c 1
 400 921 400 920 399 920 c 1
 475 911 514 835 514 748 c 0
 514 628 429 531 302 531 c 0
 128 531 85 675 85 789 c 0
EndSplineSet
EndChar

StartChar: uni0E0B
Encoding: 3595 3595 134
Width: 1450
Flags: W
HStem: 0 200<823 1063> 457 129<253.406 358.807> 754 108<324 355.304> 1129 20G<296 389.444 636.333 709>
VStem: 74 171<589.777 749.916> 367 131<591.806 749.04> 603 220<200 645.235> 1063 220<200 673.656> 1158 235<1029.28 1188>
LayerCount: 2
Fore
SplineSet
304 754 m 0xfe
 264 754 245 710 245 670 c 0
 245 630 264 586 304 586 c 0
 344 586 367 630 367 670 c 0
 367 710 344 754 304 754 c 0xfe
663 1149 m 1
 755 1119 867 1027 913 924 c 1
 1043 942 1158 1020 1158 1163 c 2
 1158 1188 l 1
 1393 1188 l 1
 1393 1164 l 2xfe80
 1393 1013 1285 868 1156 825 c 1
 1247 770 1283 707 1283 629 c 2
 1283 0 l 1xff
 603 0 l 1
 603 575 l 2
 603 622 638 682 730 771 c 1
 730 822 687 903 663 929 c 1
 519 821 l 1
 360 929 l 1
 337 897 324 869 324 862 c 1
 466 862 498 742 498 674 c 0
 498 553 413 457 286 457 c 0
 116 457 74 615 74 703 c 0
 74 948 232 1096 360 1149 c 1
 519 1041 l 1
 663 1149 l 1
950 719 m 1
 887 678 823 606 823 545 c 2
 823 200 l 1
 1063 200 l 1
 1063 546 l 2xff
 1063 669 1012 679 950 719 c 1
EndSplineSet
EndChar

StartChar: uni0E0C
Encoding: 3596 3596 135
Width: 1750
Flags: W
HStem: -10 166<803.333 935.025> -10 120<405.034 507.026> 280 111<406.643 507.814> 949 200<461.409 767.478>
VStem: 186 209<115.475 277.469 363 543.526> 515 125<112.584 275.708> 646 156<157.211 309.231> 860 219<480.288 843.898> 1373 220<246 1139>
LayerCount: 2
Fore
SplineSet
395 195 m 0x7f80
 395 155 415 110 455 110 c 0
 495 110 515 155 515 195 c 0
 515 235 495 280 455 280 c 0
 415 280 395 235 395 195 c 0x7f80
646 249 m 0
 646 340 708 474 860 487 c 1
 860 657 l 2
 860 848 781 949 622 949 c 0
 516 949 438 906 388 831 c 1
 462 795 514 739 544 663 c 1
 435 551 406 537 406 363 c 1
 423 382 446 391 477 391 c 0
 537 391 640 343 640 206 c 0
 640 98 570 -10 429 -10 c 0x7f80
 198 -10 186 158 186 303 c 2
 186 366 l 2
 186 523 208 560 314 671 c 1
 267 726 201 767 116 792 c 1
 140 912 306 1149 622 1149 c 0
 901 1149 1079 983 1079 673 c 2
 1079 410 l 5
 1373 246 l 1
 1373 1139 l 1
 1593 1139 l 1
 1593 0 l 1
 1374 0 l 1
 1079 164 l 1
 1079 62 996 -10 880 -10 c 0xbf80
 676 -10 646 168 646 249 c 0
835 156 m 0xbf80
 867 156 875 179 875 222 c 2
 875 317 l 1
 831 317 802 272 802 219 c 0
 802 177 813 156 835 156 c 0xbf80
EndSplineSet
EndChar

StartChar: uni0E0D
Encoding: 3597 3597 136
Width: 1745
Flags: W
HStem: -417 180<1036.98 1288.29> -130 108<1036.44 1136.45> -10 120<461.892 562.871> 0 200<1135 1360> 280 111<461.801 562.717> 949 200<516.409 823.452>
VStem: 241 220<115.657 279.709 363 557.871> 570 125<113.959 274.117> 915 220<200 849.854> 928 106<-234.864 -130.853> 1139 117<-236.092 -131.91> 1360 220<200 1139> 1444 170<-153.15 -48>
LayerCount: 2
Fore
SplineSet
369 671 m 1xefb0
 323 726 256 767 171 792 c 1
 195 912 361 1149 677 1149 c 0
 961 1149 1135 976 1135 673 c 2
 1135 200 l 1
 1360 200 l 1
 1360 1139 l 1
 1580 1139 l 1
 1580 0 l 1
 915 0 l 1xdfb0
 915 657 l 2
 915 848 836 949 677 949 c 0
 571 949 493 906 443 831 c 1
 517 795 570 739 599 663 c 1
 494 550 461 536 461 376 c 2
 461 363 l 1
 478 382 501 391 532 391 c 1
 592 393 695 343 695 206 c 1
 698 101 628 -10 484 -10 c 0
 282 -10 241 116 241 303 c 2
 241 366 l 2
 241 523 263 560 369 671 c 1xefb0
510 280 m 0
 470 280 450 235 450 195 c 0
 450 155 475 110 510 110 c 0xef20
 551 110 570 155 570 195 c 0
 570 235 550 280 510 280 c 0
928 -199 m 0xcf68
 928 -94 996 -22 1094 -22 c 0
 1196 -22 1256 -86 1256 -178 c 0
 1256 -215 1248 -239 1221 -265 c 1
 1381 -235 1436 -118 1444 -34 c 1
 1614 -48 l 1
 1606 -250 1442 -417 1214 -417 c 0
 983 -417 928 -286 928 -199 c 0xcf68
1086 -130 m 0
 1056 -130 1034 -153 1034 -183 c 0
 1034 -213 1056 -237 1086 -237 c 0
 1116 -237 1139 -213 1139 -183 c 0
 1139 -153 1116 -130 1086 -130 c 0
EndSplineSet
Substitution2: "'ccmp' Pali-Sanskrit Descender Removal" uni0E0D.descless
Substitution2: "Thai Descender Removal Single Substitution" uni0E0D.descless
EndChar

StartChar: uni0E0E
Encoding: 3598 3598 137
Width: 1375
Flags: W
HStem: -430 157<450.362 601.287> -132 142<472.127 660.471> -10 120<231.401 332.526> 280 111<230.367 332.125> 949 200<607.409 914.638>
VStem: 98 125<113.833 275.432> 264 185<-272.559 -155.891> 332 220<111.322 279.709 363 557.871> 1006 220<-155 849.854>
AnchorPoint: "BelowBase" 1226 -453 basechar 0
LayerCount: 2
Fore
SplineSet
264 -255 m 0xbe80
 264 -170 337 10 589 10 c 0xde80
 638 10 688 3 738 -12 c 1
 820 142 l 1
 956 88 l 1
 878 -67 l 1
 917 -82 970 -117 1006 -155 c 1
 1006 657 l 2
 1006 848 927 949 768 949 c 0
 662 949 584 906 534 831 c 1
 608 795 660 739 690 663 c 1
 585 550 552 536 552 376 c 2
 552 303 l 2
 552 148 530 -10 309 -10 c 0
 156 -10 98 114 98 206 c 0
 98 329 182 391 260 391 c 0
 290 391 314 382 332 363 c 1
 332 384 l 2xbd80
 332 523 358 565 460 671 c 1
 413 726 347 767 262 792 c 1
 286 912 452 1149 768 1149 c 0
 1053 1149 1226 976 1226 673 c 2
 1226 -410 l 1
 1006 -410 l 1
 945 -322 881 -259 812 -220 c 1
 756 -329 663 -430 492 -430 c 0
 342 -430 264 -348 264 -255 c 0xbe80
223 195 m 0
 223 155 243 110 283 110 c 0xbc80
 323 110 343 155 343 195 c 0
 343 235 323 280 283 280 c 0
 243 280 223 235 223 195 c 0
449 -237 m 0xde80
 449 -246 459 -273 499 -273 c 0
 567 -273 639 -207 661 -154 c 1
 643 -138 615 -132 579 -132 c 0
 516 -132 449 -165 449 -237 c 0xde80
EndSplineSet
EndChar

StartChar: uni0E0F
Encoding: 3599 3599 138
Width: 1375
Flags: W
HStem: -429 136<352.358 515.262> -245 235<830.896 963.776> -152 153<365.404 566.905> -10 120<230.53 332.026> 280 111<231.699 331.237> 949 200<606.409 913.013>
VStem: 97 126<113.169 275.432> 190 159<-290.763 -174.935> 331 220<111.322 279.87 363 557.871> 1005 220<-410 -284.232 -61 849.854>
AnchorPoint: "BelowBase" 1225 -453 basechar 0
LayerCount: 2
Fore
SplineSet
223 195 m 0x9e40
 223 155 243 110 283 110 c 0
 323 110 343 155 343 195 c 0
 343 235 323 280 283 280 c 0
 243 280 223 235 223 195 c 0x9e40
784 -122 m 1
 825 -48 871 -10 893 -10 c 0xcd40
 923 -10 960 -27 1005 -61 c 1
 1005 657 l 2
 1005 848 924 949 767 949 c 0
 661 949 583 906 533 831 c 1
 607 795 659 739 689 663 c 1
 584 550 551 536 551 376 c 2
 551 303 l 2
 551 148 529 -10 308 -10 c 0x9cc0
 153 -10 97 111 97 206 c 0
 97 329 181 391 259 391 c 0
 289 391 313 382 331 363 c 1
 331 384 l 2
 331 523 357 565 459 671 c 1
 412 726 346 767 261 792 c 1
 285 912 451 1149 767 1149 c 0
 1051 1149 1225 976 1225 673 c 2
 1225 -410 l 1
 1008 -410 l 1
 984 -288 939 -245 893 -245 c 0xcec0
 839 -245 782 -368 768 -403 c 1
 705 -294 685 -286 674 -276 c 1
 612 -368 545 -429 410 -429 c 0
 229 -429 190 -305 190 -234 c 0
 190 -93 329 1 482 1 c 0xad40
 541 1 587 -11 630 -32 c 1
 716 119 l 1
 843 73 l 1
 760 -90 l 1
 769 -97 777 -108 784 -122 c 1
349 -245 m 0
 349 -266 371 -293 411 -293 c 0
 474 -293 543 -243 568 -173 c 1
 553 -159 523 -152 478 -152 c 0xad40
 411 -152 349 -183 349 -245 c 0
EndSplineSet
EndChar

StartChar: uni0E10
Encoding: 3600 3600 139
Width: 1130
Flags: W
HStem: -541 106<194.214 328.396> -450 168<587.925 733.896> -346 112<197.13 353.653> -276 71<683.677 746.371> -106 72<682.143 772.571> -10 200<572.378 679.82> 260 113<231.431 340.982> 541 123<231.928 339.38> 864 200<709.036 935> 949 200<367.252 688.992>
VStem: 68 126<-434.561 -356.062> 111 115<376.273 538.833> 346 220<198.702 289 374.661 535.426> 596 84<-204.099 -106.765> 686 220<195.632 599.023> 777 158<-204.985 -106.787>
LayerCount: 2
Fore
SplineSet
226 457 m 0x0f1c
 226 401 248 373 286 373 c 0
 324 373 346 401 346 457 c 0
 346 513 324 541 286 541 c 0
 248 541 226 513 226 457 c 0x0f1c
333 664 m 0
 436 664 566 618 566 433 c 2
 566 263 l 2
 566 214 586 190 626 190 c 0
 666 190 686 213 686 259 c 2
 686 529 l 2
 686 562 671 587 641 603 c 1
 562 636 l 1
 453 672 278 707 37 742 c 1
 85 976 213 1149 506 1149 c 0x0f5e
 705 1149 727 1064 899 1064 c 0
 926 1064 951 1067 974 1072 c 1
 935 872 l 1
 915 867 888 864 860 864 c 0x0f8d
 722 864 653 949 495 949 c 0
 422 949 376 929 357 892 c 1
 699 826 906 764 906 573 c 2
 906 279 l 2x0f4e
 906 86 813 -10 626 -10 c 0
 439 -10 346 88 346 283 c 2
 346 289 l 1
 326 267 291 260 267 260 c 0
 202 262 111 317 111 440 c 0
 111 603 223 664 333 664 c 0
68 -414 m 0x8f2d
 68 -306 153 -235 280 -234 c 0xaf2d
 334 -234 368 -243 402 -258 c 1
 418 -236 435 -217 448 -192 c 1
 568 -239 l 1
 525 -306 l 1
 532 -309 545 -319 564 -336 c 1
 588 -300 622 -282 665 -282 c 0
 697 -282 724 -294 747 -319 c 1
 747 -273 l 1
 720 -276 l 1
 653 -275 596 -231 596 -168 c 0
 596 -87 674 -34 746 -34 c 0
 925 -34 935 -137 935 -223 c 2
 935 -530 l 1
 752 -530 l 1
 732 -479 703 -450 665 -450 c 0x5f2d
 623 -450 587 -493 560 -529 c 1
 537 -495 502 -458 457 -418 c 1
 407 -483 329 -541 229 -541 c 0
 157 -541 68 -504 68 -414 c 0x8f2d
777 -156 m 0
 777 -128 758 -106 731 -106 c 0
 701 -106 680 -125 680 -156 c 0
 680 -187 701 -205 731 -205 c 0x1f0d
 758 -205 777 -184 777 -156 c 0
194 -402 m 0xaf2c
 194 -422 219 -435 238 -435 c 0
 306 -435 354 -360 354 -360 c 1
 341 -351 321 -346 294 -346 c 0
 240 -346 194 -368 194 -402 c 0xaf2c
EndSplineSet
Substitution2: "'ccmp' Pali-Sanskrit Descender Removal" uni0E10.descless
Substitution2: "Thai Descender Removal Single Substitution" uni0E10.descless
EndChar

StartChar: uni0E11
Encoding: 3601 3601 140
Width: 1700
Flags: W
HStem: 0 21G<645 927.859 1323 1543> 457 129<308.406 413.807> 754 108<379 410.304> 788 361<1250.25 1428>
VStem: 129 171<589.777 749.916> 422 131<591.806 749.04> 645 220<380 675.176> 786 206<734.718 895.172> 1323 220<0 787.973>
DStem2: 865 380 919 0 0.404992 0.91432<0 545.385>
LayerCount: 2
Fore
SplineSet
359 754 m 0xec80
 319 754 300 710 300 670 c 0
 300 630 319 586 359 586 c 0
 399 586 422 630 422 670 c 0
 422 710 399 754 359 754 c 0xec80
718 1149 m 1xdd80
 866 1108 992 939 992 771 c 1xdd80
 907 688 865 623 865 575 c 2
 865 380 l 1
 1141 1003 l 2
 1194 1122 1286 1149 1347 1149 c 0
 1509 1149 1543 1005 1543 923 c 2
 1543 0 l 1
 1323 0 l 1
 1323 682 l 2
 1323 751 1324 788 1292 788 c 0
 1262 788 1253 750 1214 666 c 1
 919 0 l 1
 645 0 l 1
 645 575 l 2xde80
 645 628 688 691 786 771 c 1
 786 819 751 896 718 929 c 1
 574 821 l 1
 415 929 l 1
 392 897 379 869 379 862 c 1xed80
 521 862 553 742 553 674 c 0
 553 553 468 457 341 457 c 0
 171 457 129 615 129 703 c 0
 129 948 287 1096 415 1149 c 1
 574 1041 l 1
 718 1149 l 1xdd80
EndSplineSet
EndChar

StartChar: uni0E12
Encoding: 3602 3602 141
Width: 1850
Flags: W
HStem: -10 166<899.224 1029.03> 349 106<501.58 555> 624 120<502.112 607.462> 1129 10G<450 527.276 806.172 1004 1467 1687>
VStem: 142 216<375.01 829.345> 397 97<457.731 620.573> 614 178<458.16 618.751> 769 127<157.189 309.284> 953 220<474.974 835.693> 1467 220<246 1139>
LayerCount: 2
Fore
SplineSet
836 1149 m 1xfec0
 1172 1073 1173 764 1173 677 c 2
 1173 410 l 1
 1467 246 l 5
 1467 1139 l 1
 1687 1139 l 1
 1687 0 l 1
 1468 0 l 1
 1173 164 l 1
 1173 65 1090 -10 992 -10 c 0
 848 -10 769 102 769 249 c 0xfdc0
 769 368 848 470 953 487 c 1
 953 664 l 2
 953 749 952 831 836 909 c 1
 663 793 l 1
 499 909 l 1
 400 866 358 783 358 650 c 0
 358 556 384 422 443 234 c 1
 497 256 543 318 555 349 c 1
 470 349 397 420 397 547 c 0
 397 668 480 744 599 744 c 0
 688 744 792 697 792 515 c 0
 792 206 558 45 464 0 c 1
 224 0 l 1
 224 108 l 2
 224 223 142 512 142 706 c 0
 142 1060 401 1138 499 1149 c 1
 663 1033 l 1
 836 1149 l 1xfec0
929 156 m 0
 961 156 969 179 969 222 c 2
 969 317 l 1
 925 317 896 272 896 219 c 0
 896 177 907 156 929 156 c 0
554 624 m 0
 514 624 494 580 494 540 c 0
 494 500 514 455 554 455 c 0
 594 455 614 500 614 540 c 0xfec0
 614 580 594 624 554 624 c 0
EndSplineSet
EndChar

StartChar: uni0E13
Encoding: 3603 3603 142
Width: 1900
Flags: W
HStem: -10 166<1530.07 1662.28> -10 120<419.892 520.723> 280 111<419.643 520.814> 949 200<474.229 779.606>
VStem: 199 220<115.657 279.709 363 557.871> 528 125<113.245 275.708> 872 220<246 844.285> 1386 220<479.235 1139> 1664 156<157.303 307.974>
AnchorPoint: "AboveBase" 1611 1227 basechar 0
LayerCount: 2
Fore
SplineSet
635 1149 m 0x7f80
 912 1149 1092 984 1092 673 c 2
 1092 246 l 1
 1386 410 l 1
 1386 1139 l 1
 1606 1139 l 1
 1606 487 l 1
 1741 473 1820 368 1820 244 c 0
 1820 38 1678 -10 1586 -10 c 0xbf80
 1468 -10 1386 61 1386 164 c 1
 1092 0 l 1
 872 0 l 1
 872 657 l 2
 872 848 793 949 634 949 c 0
 528 949 451 906 401 831 c 1
 475 795 527 739 557 663 c 1
 452 550 419 536 419 376 c 2
 419 363 l 1
 436 382 459 391 490 391 c 0
 550 391 653 343 653 206 c 0
 653 101 586 -10 442 -10 c 0
 240 -10 199 116 199 303 c 2
 199 366 l 2
 199 523 221 560 327 671 c 1
 280 726 214 767 129 792 c 1
 153 912 319 1149 635 1149 c 0x7f80
1591 222 m 2
 1591 167 1607 156 1631 156 c 0
 1653 156 1664 177 1664 219 c 0
 1664 272 1635 317 1591 317 c 1
 1591 222 l 2
468 280 m 0
 428 280 408 235 408 195 c 0
 408 155 433 110 468 110 c 0x7f80
 509 110 528 155 528 195 c 0
 528 235 508 280 468 280 c 0
EndSplineSet
EndChar

StartChar: uni0E14
Encoding: 3604 3604 143
Width: 1330
Flags: W
HStem: 0 21G<222 509.5 951 1171> 349 105<513.6 553> 624 120<512.396 618.093> 949 200<495.437 821.945>
VStem: 140 216<375.503 804.285> 395 110<457.231 620.746> 625 165<458.077 618.962> 951 220<0 824.042>
LayerCount: 2
Fore
SplineSet
565 454 m 0
 605 454 625 499 625 539 c 0
 625 579 605 624 565 624 c 0
 525 624 505 579 505 539 c 0
 505 499 525 454 565 454 c 0
597 744 m 0
 687 744 790 697 790 516 c 0
 790 206 557 46 462 0 c 1
 222 0 l 1
 222 108 l 2
 222 221 140 491 140 680 c 0
 140 991 356 1149 652 1149 c 0
 944 1149 1171 992 1171 677 c 2
 1171 0 l 1
 951 0 l 1
 951 664 l 2
 951 876 784 949 656 949 c 0
 508 949 356 848 356 627 c 0
 356 540 396 372 441 234 c 1
 495 256 541 318 553 349 c 1
 466 349 395 420 395 547 c 0
 395 669 472 744 597 744 c 0
EndSplineSet
EndChar

StartChar: uni0E15
Encoding: 3605 3605 144
Width: 1330
Flags: W
HStem: 0 21G<222 509.5 951 1171> 349 105<513.6 553> 624 120<512.818 618.093> 1129 20G<448 525.276 804.172 1002>
VStem: 140 216<375.01 829.345> 395 110<457.231 620.145> 625 165<458.077 618.962> 951 220<0 835.693>
LayerCount: 2
Fore
SplineSet
565 454 m 0
 605 454 625 499 625 539 c 0
 625 579 605 624 565 624 c 0
 525 624 505 579 505 539 c 0
 505 499 525 454 565 454 c 0
597 744 m 0
 687 744 790 697 790 516 c 0
 790 206 557 46 462 0 c 1
 222 0 l 1
 222 108 l 2
 222 223 140 512 140 706 c 0
 140 1060 399 1138 497 1149 c 1
 661 1033 l 1
 834 1149 l 1
 1170 1073 1171 764 1171 677 c 2
 1171 0 l 1
 951 0 l 1
 951 664 l 2
 951 749 950 831 834 909 c 1
 661 793 l 1
 497 909 l 1
 398 866 356 783 356 650 c 0
 356 556 382 422 441 234 c 1
 495 256 541 318 553 349 c 1
 466 349 395 420 395 547 c 0
 395 666 474 744 597 744 c 0
EndSplineSet
EndChar

StartChar: uni0E16
Encoding: 3606 3606 145
Width: 1240
Flags: W
HStem: -10 120<408.892 509.723> 280 111<408.643 509.814> 949 200<463.409 770.638>
VStem: 188 220<115.657 279.709 363 557.871> 517 125<113.245 275.708> 862 220<0 849.854>
LayerCount: 2
Fore
SplineSet
316 671 m 1
 267 726 203 767 118 792 c 1
 142 912 308 1149 624 1149 c 0
 909 1149 1082 976 1082 673 c 2
 1082 0 l 1
 862 0 l 1
 862 657 l 2
 862 848 783 949 624 949 c 0
 518 949 440 906 390 831 c 1
 464 795 514 739 546 663 c 1
 441 550 408 536 408 376 c 2
 408 363 l 1
 425 382 448 391 479 391 c 0
 539 391 642 343 642 206 c 0
 642 101 575 -10 431 -10 c 0
 229 -10 188 116 188 303 c 2
 188 366 l 2
 188 523 210 560 316 671 c 1
457 280 m 0
 417 280 397 235 397 195 c 0
 397 155 422 110 457 110 c 0
 498 110 517 155 517 195 c 0
 517 235 497 280 457 280 c 0
EndSplineSet
EndChar

StartChar: uni0E17
Encoding: 3607 3607 146
Width: 1350
Flags: W
HStem: 0 21G<318 600.915 996 1216> 752 105<243.051 317.443> 788 361<926.084 1096> 1025 124<242.693 350.294>
VStem: 121 115<860.83 1022.15> 318 220<380 759> 358 180<860.656 1017.8> 996 220<0 787.964>
DStem2: 538 380 592 0 0.407135 0.913368<0 546.285>
LayerCount: 2
Fore
SplineSet
295 1025 m 0xdb
 255 1025 236 981 236 941 c 0
 236 901 255 857 295 857 c 0
 335 857 358 901 358 941 c 0
 358 981 335 1025 295 1025 c 0xdb
334 1149 m 0
 416 1149 538 1106 538 881 c 2xdb
 538 380 l 1
 814 1003 l 2
 867 1122 959 1149 1020 1149 c 0
 1172 1149 1216 1007 1216 923 c 2
 1216 0 l 1
 996 0 l 1
 996 669 l 2
 996 738 994 788 965 788 c 0
 954 788 940 780 933 765 c 2
 592 0 l 1
 318 0 l 1
 318 759 l 1xad
 311 754 294 752 268 752 c 0
 216 752 121 792 121 922 c 0
 121 1061 209 1149 334 1149 c 0
EndSplineSet
EndChar

StartChar: uni0E18
Encoding: 3608 3608 147
Width: 1250
Flags: W
HStem: 0 200<470 804> 864 200<826.547 1053> 949 200<485.833 806.473>
VStem: 250 220<200 650> 804 220<200 597.344>
LayerCount: 2
Fore
SplineSet
465 882 m 1xb8
 806 817 1024 754 1024 563 c 2
 1024 0 l 1
 250 0 l 1
 250 650 l 1
 470 650 l 1
 470 200 l 1
 804 200 l 1
 804 529 l 2
 804 562 789 587 759 603 c 1
 680 636 l 1
 573 671 398 707 155 742 c 1
 203 976 332 1149 624 1149 c 0xb8
 823 1149 845 1064 1017 1064 c 0
 1042 1064 1067 1067 1092 1072 c 1
 1053 872 l 1
 1036 868 1017 864 994 864 c 0xd8
 826 864 777 949 613 949 c 0
 540 949 484 916 465 882 c 1xb8
EndSplineSet
EndChar

StartChar: uni0E19
Encoding: 3609 3609 148
Width: 1400
Flags: W
HStem: -10 166<1061.57 1194.5> 748 109<245.488 353.649> 1025 124<246.02 352.832>
VStem: 127 112<859.888 1020.1> 360 220<246 776 860.04 1021.96> 919 220<479.774 1139> 1197 146<157.303 308.862>
AnchorPoint: "AboveBase" 1144 1227 basechar 0
LayerCount: 2
Fore
SplineSet
298 1025 m 0
 258 1025 239 981 239 941 c 0
 239 901 258 857 298 857 c 0
 338 857 361 901 361 941 c 0
 361 981 338 1025 298 1025 c 0
1139 487 m 1
 1330 468 1343 290 1343 244 c 0
 1343 38 1211 -10 1119 -10 c 0
 998 -10 920 66 920 164 c 1
 580 0 l 1
 360 0 l 1
 360 776 l 1
 341 757 315 748 282 748 c 0
 179 748 127 840 127 933 c 0
 127 1106 267 1149 331 1149 c 0
 482 1149 580 1070 580 927 c 2
 580 246 l 1
 919 410 l 1
 919 1139 l 1
 1139 1139 l 1
 1139 487 l 1
1124 222 m 2
 1124 167 1140 156 1164 156 c 0
 1186 156 1197 177 1197 219 c 0
 1197 272 1168 317 1124 317 c 1
 1124 222 l 2
EndSplineSet
EndChar

StartChar: uni0E1A
Encoding: 3610 3610 149
Width: 1300
Flags: W
HStem: 0 200<547 933> 749 109<217.859 325.729> 1026 125<217.329 322.497>
VStem: 97 114<861.819 1022.25> 327 220<200 759 859.516 1019.39> 933 220<200 1139>
LayerCount: 2
Fore
SplineSet
270 1026 m 0
 230 1026 211 982 211 942 c 0
 211 902 230 858 270 858 c 0
 310 858 333 902 333 942 c 0
 333 982 310 1026 270 1026 c 0
273 749 m 0
 170 749 97 821 97 929 c 0
 97 1104 222 1151 311 1151 c 0
 488 1151 547 1052 547 881 c 2
 547 200 l 1
 933 200 l 1
 933 1139 l 1
 1153 1139 l 1
 1153 0 l 1
 327 0 l 1
 327 759 l 1
 313 754 295 749 273 749 c 0
EndSplineSet
EndChar

StartChar: uni0E1B
Encoding: 3611 3611 150
Width: 1300
Flags: W
HStem: 0 200<547 933> 749 109<217.859 325.729> 1026 125<217.329 322.497> 1460 20G<933 1153>
VStem: 97 114<861.819 1022.25> 327 220<200 759 859.516 1019.39> 933 220<200 1480>
AnchorPoint: "AboveBase" 861 1227 basechar 0
LayerCount: 2
Fore
SplineSet
270 1026 m 0
 230 1026 211 982 211 942 c 0
 211 902 230 858 270 858 c 0
 310 858 333 902 333 942 c 0
 333 982 310 1026 270 1026 c 0
547 200 m 1
 933 200 l 1
 933 1480 l 1
 1153 1480 l 1
 1153 0 l 1
 327 0 l 1
 327 759 l 1
 313 754 295 749 273 749 c 0
 170 749 97 821 97 929 c 0
 97 1104 222 1151 311 1151 c 0
 488 1151 547 1052 547 881 c 2
 547 200 l 1
EndSplineSet
EndChar

StartChar: uni0E1C
Encoding: 3612 3612 151
Width: 1200
Flags: W
HStem: 0 21G<133 366.955 810.401 1043> 749 111<353.225 461.323> 1028 123<258.604 459.381>
VStem: 133 220<330 759 860.783 1025.1> 469 114<864.547 1023.97> 823 220<330 1139>
LayerCount: 2
Fore
SplineSet
406 1028 m 0
 366 1028 347 984 347 944 c 0
 347 904 366 860 406 860 c 0
 446 860 469 904 469 944 c 0
 469 984 446 1028 406 1028 c 0
408 749 m 0
 375 749 358 757 353 759 c 1
 353 330 l 1
 577 698 l 1
 619 698 l 1
 823 330 l 1
 823 1139 l 1
 1043 1139 l 1
 1043 0 l 1
 823 0 l 1
 600 354 l 1
 353 0 l 1
 133 0 l 1
 133 835 l 2
 133 1026 164 1151 356 1151 c 0
 476 1151 583 1096 583 930 c 0
 583 844 532 749 408 749 c 0
EndSplineSet
EndChar

StartChar: uni0E1D
Encoding: 3613 3613 152
Width: 1200
Flags: W
HStem: 0 21G<133 366.955 810.401 1043> 749 111<353.225 461.323> 1028 123<258.604 459.381> 1460 20G<823 1043>
VStem: 133 220<330 759 860.783 1025.1> 469 114<864.547 1023.97> 823 220<330 1480>
AnchorPoint: "AboveBase" 751 1227 basechar 0
LayerCount: 2
Fore
SplineSet
406 1028 m 0
 366 1028 347 984 347 944 c 0
 347 904 366 860 406 860 c 0
 446 860 469 904 469 944 c 0
 469 984 446 1028 406 1028 c 0
408 749 m 0
 375 749 358 757 353 759 c 1
 353 330 l 1
 577 698 l 1
 619 698 l 1
 823 330 l 1
 823 1480 l 1
 1043 1480 l 1
 1043 0 l 1
 823 0 l 1
 600 354 l 1
 353 0 l 1
 133 0 l 1
 133 835 l 2
 133 1026 164 1151 356 1151 c 0
 476 1151 583 1096 583 930 c 0
 583 844 532 749 408 749 c 0
EndSplineSet
EndChar

StartChar: uni0E1E
Encoding: 3614 3614 153
Width: 1350
Flags: W
HStem: 0 21G<297 524.933 979.267 1207> 749 111<187.673 295.729> 1028 123<187.855 292.724>
VStem: 67 114<862.819 1025.72> 297 220<500 759 861.516 1022.29> 987 220<500 1139>
LayerCount: 2
Fore
SplineSet
240 1028 m 0
 200 1028 181 984 181 944 c 0
 181 904 200 860 240 860 c 0
 280 860 303 904 303 944 c 0
 303 984 280 1028 240 1028 c 0
243 749 m 0
 139 749 67 821 67 929 c 0
 67 1088 174 1151 281 1151 c 0
 468 1151 517 1038 517 909 c 2
 517 500 l 1
 721 1039 l 1
 778 1039 l 1
 987 500 l 1
 987 1139 l 1
 1207 1139 l 1
 1207 0 l 1
 987 0 l 1
 755 600 l 1
 517 0 l 1
 297 0 l 1
 297 759 l 1
 283 754 265 749 243 749 c 0
EndSplineSet
EndChar

StartChar: uni0E1F
Encoding: 3615 3615 154
Width: 1350
Flags: W
HStem: 0 21G<297 524.933 979.267 1207> 749 111<187.673 295.729> 1028 123<187.855 292.724> 1460 20G<987 1207>
VStem: 67 114<862.819 1025.72> 297 220<500 759 861.516 1022.29> 987 220<500 1480>
AnchorPoint: "AboveBase" 915 1227 basechar 0
LayerCount: 2
Fore
SplineSet
240 1028 m 0
 200 1028 181 984 181 944 c 0
 181 904 200 860 240 860 c 0
 280 860 303 904 303 944 c 0
 303 984 280 1028 240 1028 c 0
517 909 m 2
 517 500 l 1
 721 1039 l 1
 778 1039 l 1
 987 500 l 1
 987 1480 l 1
 1207 1480 l 1
 1207 0 l 1
 987 0 l 1
 755 600 l 1
 517 0 l 1
 297 0 l 1
 297 759 l 1
 283 754 265 749 243 749 c 0
 139 749 67 821 67 929 c 0
 67 1088 174 1151 281 1151 c 0
 468 1151 517 1038 517 909 c 2
EndSplineSet
EndChar

StartChar: uni0E20
Encoding: 3616 3616 155
Width: 1350
Flags: W
HStem: -10 120<217.401 318.526> 280 111<216.367 318.125> 949 200<593.409 900.638>
VStem: 84 125<113.833 275.432> 318 220<111.322 279.709 363 558.301> 992 220<0 849.854>
LayerCount: 2
Fore
SplineSet
209 195 m 0
 209 155 229 110 269 110 c 0
 309 110 329 155 329 195 c 0
 329 235 309 280 269 280 c 0
 229 280 209 235 209 195 c 0
754 1149 m 0
 1039 1149 1212 976 1212 673 c 2
 1212 0 l 1
 992 0 l 1
 992 657 l 2
 992 848 913 949 754 949 c 0
 648 949 570 906 520 831 c 1
 594 795 646 739 676 663 c 1
 572 551 538 536 538 376 c 2
 538 303 l 2
 538 148 516 -10 295 -10 c 0
 142 -10 84 114 84 206 c 0
 84 329 168 391 246 391 c 0
 276 391 300 382 318 363 c 1
 318 384 l 2
 318 523 344 565 446 671 c 1
 399 726 333 767 248 792 c 1
 272 912 438 1149 754 1149 c 0
EndSplineSet
EndChar

StartChar: uni0E21
Encoding: 3617 3617 156
Width: 1350
Flags: W
HStem: -10 166<317.285 448.429> 748 110<261.916 366.729> 1028 121<260.998 366.395>
VStem: 141 113<860.751 1023.68> 161 155<157.687 309.425> 374 220<479.751 776 860.531 1022.02> 933 220<246 1139>
LayerCount: 2
Fore
SplineSet
254 943 m 0xf6
 254 903 274 858 314 858 c 0
 354 858 374 903 374 943 c 0
 374 983 354 1028 314 1028 c 0
 274 1028 254 983 254 943 c 0xf6
161 244 m 0xee
 161 376 246 474 374 487 c 1
 374 776 l 1
 355 757 329 748 296 748 c 0
 216 748 141 811 141 932 c 0xf6
 141 1090 262 1149 345 1149 c 0
 496 1149 594 1070 594 927 c 2
 594 410 l 1
 933 246 l 1
 933 1139 l 1
 1153 1139 l 1
 1153 0 l 1
 933 0 l 1
 594 164 l 1
 594 63 509 -10 394 -10 c 0
 275 -10 161 61 161 244 c 0xee
349 156 m 0
 373 156 389 167 389 222 c 2
 389 317 l 1
 345 317 316 272 316 219 c 0xee
 316 177 327 156 349 156 c 0
EndSplineSet
EndChar

StartChar: uni0E22
Encoding: 3618 3618 157
Width: 1200
Flags: W
HStem: 0 200<421 807> 495 133<460.98 624> 752 106<421.53 499.911> 1028 121<396.273 499.079>
VStem: 184 205<771.552 1024.84> 201 220<200 462.638> 509 135<862.375 1023.44> 807 220<200 1139>
LayerCount: 2
Fore
SplineSet
389 943 m 0xfb
 389 903 409 858 449 858 c 0
 489 858 509 903 509 943 c 0
 509 983 489 1028 449 1028 c 0
 409 1028 389 983 389 943 c 0xfb
399 1149 m 0
 600 1149 644 1018 644 935 c 0
 644 835 574 752 463 752 c 0
 450 752 436 753 421 756 c 1
 421 708 478 628 552 628 c 2
 624 628 l 1
 624 495 l 1
 552 495 l 2
 466 495 421 432 421 347 c 2
 421 200 l 1
 807 200 l 1
 807 1139 l 1
 1027 1139 l 1
 1027 0 l 1
 201 0 l 1
 201 410 l 2xf7
 201 457 245 520 310 562 c 1
 215 613 184 669 184 831 c 0
 184 960 187 1024 261 1093 c 0
 310 1138 373 1149 399 1149 c 0
EndSplineSet
EndChar

StartChar: uni0E23
Encoding: 3619 3619 158
Width: 1100
Flags: W
HStem: -10 120<611.345 827> 280 121<612.523 717.034> 864 200<775.42 1002> 949 200<432.403 755.265>
VStem: 487 117<113.631 276.969> 724 220<114.787 277.469 393 602.573>
LayerCount: 2
Fore
SplineSet
604 195 m 0xcc
 604 155 624 110 664 110 c 0
 704 110 724 155 724 195 c 0
 724 235 704 280 664 280 c 0
 624 280 604 235 604 195 c 0xcc
724 529 m 2
 724 662 457 680 104 742 c 1
 152 976 281 1149 573 1149 c 0xdc
 772 1149 795 1064 966 1064 c 0
 991 1064 1016 1067 1041 1072 c 1
 1002 872 l 1
 985 868 965 864 943 864 c 0xec
 775 864 724 949 562 949 c 0xdc
 489 949 423 919 404 872 c 1
 704 814 944 779 944 553 c 2
 944 303 l 2
 944 114 916 -10 738 -10 c 0
 516 -10 487 126 487 202 c 0
 487 327 573 401 657 401 c 0
 679 401 710 402 724 393 c 1
 724 529 l 2
EndSplineSet
EndChar

StartChar: uni0E24
Encoding: 3620 3620 159
Width: 1240
Flags: W
HStem: -10 120<408.892 509.723> 280 111<408.643 509.814> 949 200<469.81 770.638>
VStem: 188 220<115.657 279.709 363 557.871> 517 125<113.245 275.708> 862 220<-380 849.854>
LayerCount: 2
Fore
SplineSet
118 792 m 1
 143 912 308 1149 624 1149 c 0
 909 1149 1082 976 1082 673 c 2
 1082 -380 l 1
 862 -380 l 1
 862 657 l 2
 862 848 783 949 624 949 c 0
 518 949 441 906 390 831 c 1
 464 795 514 739 546 663 c 1
 441 550 408 536 408 376 c 2
 408 363 l 1
 425 382 448 391 479 391 c 0
 539 391 642 343 642 206 c 0
 642 101 575 -10 431 -10 c 0
 229 -10 188 116 188 303 c 2
 188 366 l 2
 188 523 210 560 316 671 c 1
 267 726 203 767 118 792 c 1
457 280 m 0
 417 280 397 235 397 195 c 0
 397 155 422 110 457 110 c 0
 498 110 517 155 517 195 c 0
 517 235 497 280 457 280 c 0
EndSplineSet
EndChar

StartChar: uni0E25
Encoding: 3621 3621 160
Width: 1250
Flags: W
HStem: -10 120<419.611 521.504> 280 111<415.943 521.045> 540 200<448.936 762.031> 949 200<396.796 731.582>
VStem: 190 220<115.998 277.988 363 499.062> 529 115<114.468 275.708> 833 220<0 466.709 658 850.063>
LayerCount: 2
Fore
SplineSet
469 280 m 0
 429 280 409 235 409 195 c 0
 409 155 434 110 469 110 c 0
 510 110 529 155 529 195 c 0
 529 235 509 280 469 280 c 0
126 929 m 1
 209 1071 410 1149 567 1149 c 0
 822 1149 1053 1038 1053 713 c 2
 1053 0 l 1
 833 0 l 1
 833 283 l 2
 833 516 720 540 570 540 c 0
 505 540 410 512 410 403 c 2
 410 363 l 1
 427 382 450 391 481 391 c 0
 546 391 644 343 644 206 c 0
 644 96 575 -10 433 -10 c 0
 194 -10 190 174 190 303 c 2
 190 438 l 2
 190 634 352 740 566 740 c 0
 717 740 806 694 833 658 c 1
 833 714 l 2
 833 896 684 949 570 949 c 0
 434 949 321 875 266 775 c 1
 126 929 l 1
EndSplineSet
EndChar

StartChar: uni0E26
Encoding: 3622 3622 161
Width: 1350
Flags: W
HStem: -10 120<217.401 318.526> 280 111<216.367 318.125> 949 200<600.061 900.638>
VStem: 84 125<113.833 275.432> 318 220<111.322 279.709 363 558.301> 992 220<-380 849.854>
LayerCount: 2
Fore
SplineSet
209 195 m 0
 209 155 229 110 269 110 c 0
 309 110 329 155 329 195 c 0
 329 235 309 280 269 280 c 0
 229 280 209 235 209 195 c 0
248 792 m 1
 274 912 438 1149 754 1149 c 0
 1039 1149 1212 976 1212 673 c 2
 1212 -380 l 1
 992 -380 l 1
 992 657 l 2
 992 848 913 949 754 949 c 0
 648 949 572 906 520 831 c 1
 594 795 646 739 676 663 c 1
 572 551 538 536 538 376 c 2
 538 303 l 2
 538 148 516 -10 295 -10 c 0
 142 -10 84 114 84 206 c 0
 84 329 168 391 246 391 c 0
 276 391 300 382 318 363 c 1
 318 384 l 2
 318 523 344 565 446 671 c 1
 399 726 333 767 248 792 c 1
EndSplineSet
EndChar

StartChar: uni0E27
Encoding: 3623 3623 162
Width: 1150
Flags: W
HStem: -11 121<699.028 913.455> 280 115<700.173 804.989> 949 200<339.867 702.124>
VStem: 577 115<113.207 276.137> 812 220<116.931 277.469 377 844.878>
LayerCount: 2
Fore
SplineSet
692 195 m 0
 692 155 712 110 752 110 c 0
 792 110 812 155 812 195 c 0
 812 235 792 280 752 280 c 0
 712 280 692 235 692 195 c 0
512 949 m 0
 333 949 237 835 208 775 c 1
 68 929 l 1
 200 1078 315 1149 510 1149 c 0
 765 1149 1032 1059 1032 714 c 2
 1032 303 l 2
 1032 148 1022 -11 801 -11 c 0
 666 -11 577 75 577 211 c 0
 577 325 656 395 734 395 c 0
 796 395 809 379 812 377 c 1
 812 714 l 2
 812 896 656 949 512 949 c 0
EndSplineSet
EndChar

StartChar: uni0E28
Encoding: 3624 3624 163
Width: 1300
Flags: W
HStem: 0 21G<186 420.5 914 1134> 305 111<593.52 717.882> 574 142<595.147 716.602> 949 200<451.683 781.267>
VStem: 103 214<389.809 818.311> 726 119<422.691 566.283> 914 220<0 823.871>
LayerCount: 2
Fore
SplineSet
726 495 m 0
 726 535 696 574 656 574 c 0
 616 574 586 535 586 495 c 0
 586 455 616 416 656 416 c 0
 696 416 726 455 726 495 c 0
914 0 m 1
 914 664 l 2
 914 878 736 949 613 949 c 0
 511 949 317 890 317 647 c 0
 317 567 346 434 349 384 c 1
 410 592 506 716 648 716 c 0
 754 716 845 612 845 514 c 0
 845 409 752 305 635 305 c 0
 590 305 551 325 546 338 c 1
 516 304 422 52 419 0 c 1
 186 0 l 1
 186 108 l 2
 186 252 103 485 103 676 c 0
 103 1052 444 1149 617 1149 c 0
 750 1149 843 1119 938 1061 c 1
 986 1094 1027 1148 1062 1224 c 1
 1280 1224 l 1
 1243 1108 1172 1012 1069 937 c 1
 1112 870 1134 774 1134 651 c 2
 1134 0 l 1
 914 0 l 1
EndSplineSet
EndChar

StartChar: uni0E29
Encoding: 3625 3625 164
Width: 1350
Flags: W
HStem: 0 200<516 902> 417 147<847.147 902> 697 87<703.216 792.438> 749 109<186.859 294.729> 1026 125<186.329 291.497>
VStem: 66 114<861.819 1022.25> 296 220<200 759 859.516 1019.39> 606 97<609.769 696.008> 793 91<607.53 696.403> 902 220<200 421 642 1139> 1161 133<645.114 771>
AnchorPoint: "AboveBase" 1127 1227 basechar 0
LayerCount: 2
Fore
SplineSet
239 1026 m 0xdfe0
 199 1026 180 982 180 942 c 0
 180 902 199 858 239 858 c 0
 279 858 302 902 302 942 c 0
 302 982 279 1026 239 1026 c 0xdfe0
516 881 m 2
 516 200 l 1
 902 200 l 1
 902 421 l 1
 889 418 865 417 840 417 c 0
 730 417 606 490 606 625 c 0
 606 762 711 784 745 784 c 0xefe0
 820 784 884 752 884 655 c 0
 884 631 883 607 847 575 c 1
 850 568 862 564 883 564 c 1
 891 563 897 564 902 566 c 1
 902 1139 l 1
 1122 1139 l 1
 1122 642 l 1
 1148 668 1161 711 1161 771 c 1
 1294 771 l 1
 1294 606 1247 528 1122 463 c 1
 1122 0 l 1
 296 0 l 1
 296 759 l 1
 282 754 264 749 242 749 c 0
 139 749 66 821 66 929 c 0
 66 1104 191 1151 280 1151 c 0
 457 1151 516 1052 516 881 c 2
703 652 m 0
 703 625 721 607 748 607 c 0
 775 607 793 625 793 652 c 0
 793 659 775 697 748 697 c 0
 721 697 703 679 703 652 c 0
EndSplineSet
EndChar

StartChar: uni0E2A
Encoding: 3626 3626 165
Width: 1250
Flags: W
HStem: -10 120<419.611 521.504> 280 111<415.943 521.045> 540 200<448.936 749.423> 949 200<403.256 738.122>
VStem: 190 220<115.998 277.988 363 499.062> 529 115<114.468 275.708> 833 220<0 453.037 658 855.508>
LayerCount: 2
Fore
SplineSet
469 280 m 0
 429 280 409 235 409 195 c 0
 409 155 434 110 469 110 c 0
 510 110 529 155 529 195 c 0
 529 235 509 280 469 280 c 0
833 658 m 1
 833 714 l 2
 833 899 684 949 570 949 c 0
 434 949 321 865 266 775 c 1
 126 929 l 1
 209 1071 410 1149 567 1149 c 0
 702 1149 807 1119 880 1059 c 1
 931 1094 972 1144 1002 1209 c 1
 1270 1209 l 1
 1270 1119 1118 980 1020 915 c 1
 1042 862 1053 795 1053 713 c 2
 1053 0 l 1
 833 0 l 1
 833 263 l 2
 833 496 720 540 570 540 c 0
 505 540 410 512 410 403 c 2
 410 363 l 1
 427 382 450 391 481 391 c 0
 546 391 644 343 644 206 c 0
 644 96 575 -10 433 -10 c 0
 194 -10 190 174 190 303 c 2
 190 438 l 2
 190 634 352 740 566 740 c 0
 717 740 806 694 833 658 c 1
EndSplineSet
EndChar

StartChar: uni0E2B
Encoding: 3627 3627 166
Width: 1350
Flags: W
HStem: 0 21G<332 647 978 1198> 745 112<219.184 326.734> 1025 124<218.359 395.892 922.798 1040.39>
VStem: 99 113<859.148 1022.79> 332 220<385 759 860.04 1019.55> 766 145<865.887 1007.44> 978 220<0 605.199> 1051 143<867.198 1006.46>
LayerCount: 2
Fore
SplineSet
271 1025 m 0xfc
 231 1025 212 981 212 941 c 0
 212 901 231 857 271 857 c 0
 311 857 334 901 334 941 c 0
 334 981 311 1025 271 1025 c 0xfc
99 932 m 0
 99 1106 236 1149 323 1149 c 0
 465 1149 552 1035 552 921 c 2
 552 385 l 1
 622 510 l 1
 712 654 788 732 839 776 c 1
 790 827 766 885 766 948 c 0
 766 1057 857 1149 979 1149 c 0
 1104 1149 1194 1068 1194 946 c 0xfd
 1194 863 1165 802 1107 764 c 1
 1158 736 1198 672 1198 610 c 2
 1198 0 l 1
 978 0 l 1
 978 538 l 2xfe
 978 566 970 589 955 606 c 1
 842 532 688 245 606 0 c 1
 332 0 l 1
 332 759 l 1
 317 750 291 745 255 745 c 0
 157 745 99 829 99 932 c 0
911 937 m 0
 911 892 936 862 981 862 c 0
 1026 862 1051 892 1051 937 c 0
 1051 982 1026 1012 981 1012 c 0
 936 1012 911 982 911 937 c 0
EndSplineSet
EndChar

StartChar: uni0E2C
Encoding: 3628 3628 167
Width: 1400
Flags: W
HStem: 0 21G<311 538.933 993.267 1221> 749 111<201.673 309.729> 1028 123<201.855 306.724> 1154 147<1222 1315.86> 1428 129<951.224 1071.56>
VStem: 81 114<862.819 1025.72> 311 220<500 759 861.516 1022.29> 828 120<1305.6 1424.66> 1001 220<500 1154> 1076 146<1305.07 1424> 1359 134<1347.27 1487>
AnchorPoint: "AboveBase" 792 1227 basechar 0
LayerCount: 2
Fore
SplineSet
254 1028 m 0xff20
 214 1028 195 984 195 944 c 0
 195 904 214 860 254 860 c 0
 294 860 317 904 317 944 c 0
 317 984 294 1028 254 1028 c 0xff20
531 909 m 2
 531 500 l 1
 735 1039 l 1
 792 1039 l 1
 1001 500 l 1
 1001 1158 l 1xffa0
 896 1176 828 1252 828 1357 c 0
 828 1489 913 1557 1025 1557 c 0
 1129 1557 1180 1492 1198 1459 c 0
 1214 1428 1222 1383 1222 1325 c 2
 1222 1301 l 1xff60
 1308 1301 1359 1375 1359 1487 c 1
 1493 1487 l 1
 1493 1218 1308 1154 1221 1154 c 1
 1221 0 l 1
 1001 0 l 1xffa0
 769 600 l 1
 531 0 l 1
 311 0 l 1
 311 759 l 1
 297 754 279 749 257 749 c 0
 153 749 81 821 81 929 c 0
 81 1088 188 1151 295 1151 c 0
 482 1151 531 1038 531 909 c 2
948 1365 m 0
 948 1315 994 1302 1012 1302 c 0
 1049 1302 1076 1333 1076 1365 c 0xff60
 1076 1403 1042 1428 1012 1428 c 0
 973 1428 948 1396 948 1365 c 0
EndSplineSet
EndChar

StartChar: uni0E2D
Encoding: 3629 3629 168
Width: 1230
Flags: W
HStem: 0 200<443 830> 354 101<443.753 515.939> 625 123<413.004 516.956> 949 200<391.837 728.697>
VStem: 223 220<200 358> 223 181<458.105 617.765> 524 114<458.162 620.756> 830 220<200 854.478>
LayerCount: 2
Fore
SplineSet
464 625 m 0xf7
 424 625 404 580 404 540 c 0
 404 500 429 455 464 455 c 0
 505 455 524 500 524 540 c 0
 524 580 504 625 464 625 c 0xf7
565 1149 m 0
 819 1149 1050 1019 1050 751 c 2
 1050 0 l 1
 223 0 l 1
 223 434 l 2xf7
 223 612 255 748 431 748 c 0
 596 748 638 610 638 525 c 0
 638 457 582 354 478 354 c 0
 465 354 453 355 443 358 c 1
 443 200 l 1xfb
 830 200 l 1
 830 715 l 2
 830 896 680 949 568 949 c 0
 426 949 323 881 263 775 c 1
 116 936 l 1
 218 1078 368 1149 565 1149 c 0
EndSplineSet
EndChar

StartChar: uni0E2E
Encoding: 3630 3630 169
Width: 1250
Flags: W
HStem: 0 200<450 837> 354 101<450.753 522.939> 625 123<420.004 523.956> 746 148<478.523 734.435> 972 177<475.177 733.181>
VStem: 230 220<200 358> 230 181<458.105 617.765> 531 114<458.162 620.756> 837 220<200 807.256>
LayerCount: 2
Fore
SplineSet
471 625 m 0xeb80
 431 625 411 580 411 540 c 0
 411 500 436 455 471 455 c 0
 512 455 531 500 531 540 c 0
 531 580 511 625 471 625 c 0xeb80
450 358 m 1xed80
 450 200 l 1xed80
 837 200 l 1
 837 741 l 2
 837 770 836 793 833 808 c 1
 760 767 673 746 572 746 c 0
 400 746 200 810 200 944 c 0
 200 1071 408 1149 585 1149 c 0
 702 1149 807 1121 898 1064 c 1
 925 1099 943 1131 950 1158 c 1
 1072 1116 l 1
 1049 1061 1023 1014 994 975 c 1
 1036 914 1057 851 1057 786 c 2
 1057 0 l 1
 230 0 l 1
 230 434 l 2xdb80
 230 612 262 748 438 748 c 0
 603 748 645 610 645 525 c 0
 645 457 589 354 485 354 c 0
 472 354 460 355 450 358 c 1xed80
475 932 m 0
 475 902 553 894 582 894 c 0xd980
 684 894 731 930 736 935 c 1
 712 957 665 972 595 972 c 0
 540 972 475 952 475 932 c 0
EndSplineSet
EndChar

StartChar: uni0E2F
Encoding: 3631 3631 170
Width: 1150
Flags: W
HStem: 0 21G<805 1025> 657 200<514 682.562> 1023 124<265.347 391.111>
VStem: 127 133<892.976 1019.4> 396 152<893.43 1019.03> 805 220<0 776 987.448 1149>
LayerCount: 2
Fore
SplineSet
548 972 m 0
 548 950 543 886 514 857 c 1
 549 857 l 2
 723 857 805 1032 805 1149 c 1
 1025 1149 l 1
 1025 0 l 1
 805 0 l 1
 805 776 l 1
 734 683 583 657 487 657 c 0
 207 657 127 800 127 930 c 0
 127 1074 228 1147 347 1147 c 0
 435 1147 548 1092 548 972 c 0
328 1023 m 0
 288 1023 260 996 260 956 c 0
 260 916 288 889 328 889 c 0
 368 889 396 916 396 956 c 0
 396 996 368 1023 328 1023 c 0
EndSplineSet
EndChar

StartChar: uni0E30
Encoding: 3632 3632 171
Width: 1100
Flags: W
HStem: 79 154<511 640.456> 388 110<290.895 409.275> 603 154<511 640.456> 912 110<290.895 409.275>
VStem: 171 117<269.825 384.586 793.825 908.586> 412 126<269.824 385.371 793.823 909.371> 756 166<347.664 480 871.664 1004>
LayerCount: 2
Fore
SplineSet
492 79 m 0
 260 79 171 218 171 312 c 0
 171 456 274 498 366 498 c 0
 486 498 538 402 538 340 c 0
 538 300 529 257 511 233 c 1
 620 233 756 334 756 480 c 1
 922 480 l 1
 922 241 731 79 492 79 c 0
412 328 m 0
 412 368 390 388 350 388 c 0
 310 388 288 368 288 328 c 0
 288 288 310 268 350 268 c 0
 390 268 412 288 412 328 c 0
492 603 m 0
 260 603 171 742 171 836 c 0
 171 980 274 1022 366 1022 c 0
 486 1022 538 926 538 864 c 0
 538 824 529 781 511 757 c 1
 620 757 756 858 756 1004 c 1
 922 1004 l 1
 922 765 731 603 492 603 c 0
412 852 m 0
 412 892 390 912 350 912 c 0
 310 912 288 892 288 852 c 0
 288 812 310 792 350 792 c 0
 390 792 412 812 412 852 c 0
EndSplineSet
EndChar

StartChar: uni0E31
Encoding: 3633 3633 172
Width: 0
Flags: W
HStem: 1233 154<-394 -264.544> 1542 110<-614.105 -495.725>
VStem: -734 117<1423.83 1538.59> -493 126<1423.82 1539.37> -149 166<1501.66 1634>
AnchorPoint: "AboveMark" -262 1740 basemark 0
AnchorPoint: "AboveBase" -180 1227 mark 0
LayerCount: 2
Fore
SplineSet
-413 1233 m 0
 -645 1233 -734 1372 -734 1466 c 0
 -734 1610 -631 1652 -539 1652 c 0
 -419 1652 -367 1556 -367 1494 c 0
 -367 1454 -376 1411 -394 1387 c 1
 -285 1387 -149 1488 -149 1634 c 1
 17 1634 l 1
 17 1395 -174 1233 -413 1233 c 0
-493 1482 m 0
 -493 1522 -515 1542 -555 1542 c 0
 -595 1542 -617 1522 -617 1482 c 0
 -617 1442 -595 1422 -555 1422 c 0
 -515 1422 -493 1442 -493 1482 c 0
EndSplineSet
EndChar

StartChar: uni0E32
Encoding: 3634 3634 173
Width: 1150
Flags: W
HStem: 0 21G<736 956> 949 200<413.536 668.092>
VStem: 736 220<0 875.305>
LayerCount: 2
Fore
SplineSet
120 846 m 1
 181 999 340 1149 522 1149 c 0
 783 1149 956 1011 956 753 c 2
 956 0 l 1
 736 0 l 1
 736 729 l 2
 736 864 665 949 533 949 c 0
 404 949 334 820 318 764 c 1
 120 846 l 1
EndSplineSet
EndChar

StartChar: uni0E34
Encoding: 3636 3636 175
Width: 0
Flags: W
HStem: 1520 159<-836.931 -500.108>
AnchorPoint: "AboveMark" -290 1740 basemark 0
AnchorPoint: "AboveBase" -163 1227 mark 0
LayerCount: 2
Fore
SplineSet
-163 1228 m 1
 -386 1277 -919 1331 -1164 1331 c 1
 -1081 1545 -901 1679 -673 1679 c 0
 -389 1679 -215 1497 -163 1228 c 1
-418 1392 m 1
 -468 1481 -553 1520 -694 1520 c 0
 -772 1520 -836 1490 -877 1441 c 1
 -755 1441 -545 1423 -418 1392 c 1
EndSplineSet
EndChar

StartChar: uni0E35
Encoding: 3637 3637 176
Width: 0
Flags: W
HStem: 1499 143<-796.829 -480.411>
VStem: -353 182<1546 1735>
AnchorPoint: "AboveMark" -262 1740 basemark 0
AnchorPoint: "AboveBase" -163 1227 mark 0
LayerCount: 2
Fore
SplineSet
-642 1642 m 0
 -540 1642 -437 1620 -353 1546 c 1
 -353 1735 l 1
 -171 1735 l 1
 -171 1260 l 1
 -170 1255 -167 1244 -164 1228 c 1
 -367 1272 -874 1323 -1108 1323 c 1
 -1062 1476 -890 1642 -642 1642 c 0
-412 1387 m 1
 -453 1455 -535 1499 -665 1499 c 0
 -733 1499 -791 1470 -827 1429 c 1
 -715 1429 -537 1413 -412 1387 c 1
EndSplineSet
EndChar

StartChar: uni0E36
Encoding: 3638 3638 177
Width: 0
Flags: W
HStem: 1321 116<-202.886 -135.644> 1500 140<-792.873 -506.109> 1559 122<-259.349 -137.026>
VStem: -133 118<1441.89 1555.42>
AnchorPoint: "AboveMark" -197 1740 basemark 0
AnchorPoint: "AboveBase" -90 1227 mark 0
LayerCount: 2
Fore
SplineSet
-636 1640 m 0xd0
 -492 1640 -415 1595 -382 1562 c 1
 -357 1637 -281 1681 -206 1681 c 0xb0
 -96 1681 -15 1600 -15 1502 c 0
 -15 1390 -103 1321 -203 1321 c 1
 -198 1306 -190 1275 -181 1228 c 1
 -384 1272 -891 1323 -1125 1323 c 1
 -1083 1469 -911 1640 -636 1640 c 0xd0
-133 1498 m 0
 -133 1533 -163 1559 -198 1559 c 0
 -233 1559 -263 1533 -263 1498 c 0
 -263 1463 -233 1437 -198 1437 c 0
 -163 1437 -133 1463 -133 1498 c 0
-432 1376 m 1
 -467 1436 -540 1500 -654 1500 c 0xd0
 -738 1500 -822 1444 -839 1419 c 1
 -707 1419 -511 1395 -432 1376 c 1
EndSplineSet
EndChar

StartChar: uni0E37
Encoding: 3639 3639 178
Width: 0
Flags: W
HStem: 1506 128<-796.624 -563.744>
VStem: -563 176<1625 1723> -341 170<1551 1722>
AnchorPoint: "AboveMark" -364 1740 basemark 0
AnchorPoint: "AboveBase" -163 1227 mark 0
LayerCount: 2
Fore
SplineSet
-1089 1323 m 1
 -1035 1482 -871 1634 -631 1634 c 0
 -609 1634 -592 1632 -563 1625 c 1
 -563 1723 l 1
 -387 1723 l 1
 -387 1587 l 1
 -371 1583 -356 1571 -341 1551 c 1
 -341 1722 l 1
 -171 1722 l 1
 -171 1285 l 1
 -169 1228 l 1
 -377 1273 -884 1323 -1089 1323 c 1
-383 1370 m 1
 -438 1487 -559 1506 -600 1506 c 0
 -741 1506 -789 1482 -844 1414 c 1
 -694 1414 -418 1380 -383 1370 c 1
EndSplineSet
EndChar

StartChar: uni0E38
Encoding: 3640 3640 179
Width: 0
Flags: W
HStem: -378 82<-432.905 -361.341> -176 91<-432.862 -343.055>
VStem: -525 89<-294.149 -177.536> -361 200<-534 -370> -340 179<-295.788 -177.278>
AnchorPoint: "BelowBase" -161 -85 mark 0
LayerCount: 2
Fore
SplineSet
-352 -85 m 0xf0
 -191 -85 -161 -199 -161 -313 c 2xe8
 -161 -534 l 1
 -361 -534 l 1
 -361 -370 l 1
 -373 -375 -385 -378 -397 -378 c 0
 -439 -378 -525 -350 -525 -238 c 0
 -525 -170 -486 -85 -352 -85 c 0xf0
-436 -236 m 0
 -436 -278 -408 -296 -388 -296 c 0
 -368 -296 -340 -278 -340 -236 c 0
 -340 -194 -368 -176 -388 -176 c 0
 -408 -176 -436 -194 -436 -236 c 0
EndSplineSet
Substitution2: "Thai Sara U Mai Ek Reordering" uni0E48.low
Substitution2: "Thai Sara U Mai Tho Reordering" uni0E49.low
Substitution2: "Thai Sara U Mai Tri Reordering" uni0E4A.low
Substitution2: "Thai Sara U Mai Chattawa Reordering" uni0E4B.low
Substitution2: "Thai Sara U Thanthakhat Reordering" uni0E4C.low
Substitution2: "Thai Sara U Nikhahit Reordering" uni0E4D
EndChar

StartChar: uni0E39
Encoding: 3641 3641 180
Width: 0
Flags: W
HStem: -504 129<-476 -360> -351 73<-759.355 -676.469> -158 83<-761.085 -673.249>
VStem: -849 85<-276.955 -158.718> -676 200<-375 -335 -277.987 -159.362> -360 200<-375 -98>
AnchorPoint: "BelowBase" -161 -85 mark 0
LayerCount: 2
Fore
SplineSet
-764 -218 m 0
 -764 -260 -736 -278 -716 -278 c 0
 -696 -278 -668 -260 -668 -218 c 0
 -668 -176 -696 -158 -716 -158 c 0
 -736 -158 -764 -176 -764 -218 c 0
-725 -351 m 0
 -784 -351 -849 -305 -849 -227 c 0
 -849 -153 -791 -75 -705 -75 c 0
 -491 -75 -476 -186 -476 -290 c 2
 -476 -375 l 1
 -360 -375 l 1
 -360 -98 l 1
 -160 -98 l 1
 -160 -504 l 1
 -676 -504 l 1
 -676 -335 l 1
 -686 -345 -704 -351 -725 -351 c 0
EndSplineSet
Substitution2: "Thai Sara UU Mai Ek Reordering" uni0E48.low
Substitution2: "Thai Sara UU Mai Tho Reordering" uni0E49.low
Substitution2: "Thai Sara UU Mai Tri Reordering" uni0E4A.low
Substitution2: "Thai Sara UU Mai Chattawa Reordering" uni0E4B.low
Substitution2: "Thai Sara UU Thanthakhat Reordering" uni0E4C.low
Substitution2: "Thai Sara UU Nikhahit Reordering" uni0E4D
EndChar

StartChar: uni0E3A
Encoding: 3642 3642 181
Width: 0
Flags: W
HStem: -330 270<-343.436 -148.824>
VStem: -380 269<-292.157 -96.4768>
AnchorPoint: "BelowBase" -158 -65 mark 0
LayerCount: 2
Fore
SplineSet
-380 -195 m 0
 -380 -131 -329 -60 -246 -60 c 0
 -161 -60 -111 -134 -111 -195 c 0
 -111 -268 -174 -330 -246 -330 c 0
 -315 -330 -380 -270 -380 -195 c 0
EndSplineSet
Substitution2: "Thai Phinthu Maitaikhu Reordering" uni0E47
Substitution2: "Thai Phinthu Mai Ek Reordering" uni0E48.low
Substitution2: "Thai Phinthu Mai Tho Reordering" uni0E49.low
Substitution2: "Thai Phinthu Mai Tri Reordering" uni0E4A.low
Substitution2: "Thai Phinthu Mai Chattawa Reordering" uni0E4B.low
Substitution2: "Thai Phinthu Thanthakhat Reordering" uni0E4C.low
Substitution2: "Thai Phinthu Nikhahit Reordering" uni0E4D
EndChar

StartChar: uni0E3F
Encoding: 3647 3647 182
Width: 1250
Flags: W
HStem: 0 190<368 541 702 849.705> 689 227<368 541 702 835.241> 1291 198<368 541 702 839.721>
VStem: 132 236<190 689 916 1291> 541 161<-133 0 194 687 916 1291 1489 1595> 885 246<963.571 1250.17> 953 247<295.709 608.082>
LayerCount: 2
Fore
SplineSet
702 1489 m 1xfa
 1070 1489 1131 1282 1131 1144 c 0xfc
 1131 968 1080 872 962 836 c 1
 962 827 l 1
 1111 785 1200 654 1200 457 c 0
 1200 176 976 0 702 0 c 1
 702 -133 l 1
 541 -133 l 1
 541 0 l 1
 132 0 l 1
 132 1489 l 1
 541 1489 l 1
 541 1595 l 1
 702 1595 l 1
 702 1489 l 1xfa
541 916 m 1
 541 1291 l 1
 368 1291 l 1
 368 916 l 1
 541 916 l 1
702 916 m 1
 840 916 885 985 885 1124 c 0
 885 1261 804 1291 702 1291 c 1
 702 916 l 1
541 190 m 1
 541 689 l 1
 368 689 l 1
 368 190 l 1
 541 190 l 1
702 194 m 1
 862 194 953 298 953 449 c 0xfa
 953 642 836 687 702 687 c 1
 702 194 l 1
EndSplineSet
EndChar

StartChar: uni0E40
Encoding: 3648 3648 183
Width: 700
Flags: W
HStem: -10 120<364.892 465.723> 280 111<364.643 464.651> 1126 20G<144 364>
VStem: 144 220<115.657 279.709 364 1146> 473 125<113.245 275.708>
LayerCount: 2
Fore
SplineSet
364 364 m 1
 381 383 404 391 435 391 c 0
 498 391 598 343 598 206 c 0
 598 101 531 -10 387 -10 c 0
 185 -10 144 116 144 303 c 2
 144 1146 l 1
 364 1146 l 1
 364 364 l 1
413 280 m 0
 373 280 353 235 353 195 c 0
 353 155 378 110 413 110 c 0
 454 110 473 155 473 195 c 0
 473 235 453 280 413 280 c 0
EndSplineSet
EndChar

StartChar: uni0E41
Encoding: 3649 3649 184
Width: 1320
Flags: W
HStem: -10 120<396.892 497.723 989.892 1090.72> 280 111<396.643 496.651 989.643 1089.65> 1126 20G<176 396 769 989>
VStem: 176 220<115.657 279.709 364 1146> 505 125<113.245 275.708> 769 220<115.657 279.709 364 1146> 1098 125<113.245 275.708>
LayerCount: 2
Fore
SplineSet
989 364 m 1
 1006 383 1029 391 1060 391 c 0
 1123 391 1223 343 1223 206 c 0
 1223 101 1156 -10 1012 -10 c 0
 810 -10 769 116 769 303 c 2
 769 1146 l 1
 989 1146 l 1
 989 364 l 1
1038 280 m 0
 998 280 978 235 978 195 c 0
 978 155 1003 110 1038 110 c 0
 1079 110 1098 155 1098 195 c 0
 1098 235 1078 280 1038 280 c 0
396 364 m 1
 413 383 436 391 467 391 c 0
 530 391 630 343 630 206 c 0
 630 101 563 -10 419 -10 c 0
 217 -10 176 116 176 303 c 2
 176 1146 l 1
 396 1146 l 1
 396 364 l 1
445 280 m 0
 405 280 385 235 385 195 c 0
 385 155 410 110 445 110 c 0
 486 110 505 155 505 195 c 0
 505 235 485 280 445 280 c 0
EndSplineSet
EndChar

StartChar: uni0E42
Encoding: 3650 3650 185
Width: 1100
Flags: W
HStem: -10 120<761.892 862.723> 280 111<761.643 861.651> 1263 200<671.058 969.858> 1364 200<370.224 606.316>
VStem: 541 220<115.657 279.709 364 1029.16> 870 125<113.245 275.708>
LayerCount: 2
Fore
SplineSet
761 364 m 1xdc
 778 383 801 391 832 391 c 0
 895 391 995 343 995 206 c 0
 995 101 928 -10 784 -10 c 0
 582 -10 541 116 541 303 c 2
 541 850 l 2
 541 1048 505 1117 21 1175 c 1
 82 1400 232 1564 423 1564 c 0xdc
 564 1564 740 1463 872 1463 c 0
 950 1463 1011 1483 1056 1524 c 1
 1004 1325 l 1
 948 1295 886 1263 818 1263 c 0xec
 678 1263 562 1364 445 1364 c 0
 392 1364 372 1327 358 1295 c 1
 666 1236 761 1096 761 902 c 2
 761 364 l 1xdc
810 280 m 0
 770 280 750 235 750 195 c 0
 750 155 775 110 810 110 c 0
 851 110 870 155 870 195 c 0
 870 235 850 280 810 280 c 0
EndSplineSet
EndChar

StartChar: uni0E43
Encoding: 3651 3651 186
Width: 1000
Flags: W
HStem: -10 120<714.893 815.723> 280 111<714.643 814.651> 942 161<270.868 420.534> 1350 211<528 665.065>
VStem: 66 193<1113.22 1256.71> 433 183<1115.22 1257.49> 494 220<115.657 279.709 364 842.783> 722 206<1039.16 1291.23> 823 125<113.245 275.708>
LayerCount: 2
Fore
SplineSet
714 364 m 1xfb
 731 383 754 391 785 391 c 0
 848 391 948 343 948 206 c 0
 948 101 881 -10 737 -10 c 0
 535 -10 495 116 494 303 c 1
 494 633 l 1xfa80
 493 820 542 881 620 962 c 1
 719 1077 722 1130 722 1165 c 0
 722 1254 684 1344 528 1350 c 1
 581 1343 616 1247 616 1173 c 0xfd
 616 1034 506 942 336 942 c 0
 156 942 66 1073 66 1217 c 0
 66 1494 332 1561 501 1561 c 0
 780 1561 928 1422 928 1166 c 0
 928 934 714 925 714 685 c 2
 714 364 l 1xfb
763 280 m 0
 723 280 703 235 703 195 c 0
 703 155 728 110 763 110 c 0
 804 110 823 155 823 195 c 0
 823 235 803 280 763 280 c 0
346 1269 m 0
 291 1269 259 1226 259 1186 c 0
 259 1146 291 1103 346 1103 c 0
 401 1103 433 1146 433 1186 c 0xfc
 433 1226 401 1269 346 1269 c 0
EndSplineSet
EndChar

StartChar: uni0E44
Encoding: 3652 3652 187
Width: 1140
Flags: W
HStem: -10 120<849.892 950.723> 280 111<849.643 949.651> 1082 200<290.347 391.674> 1291 281<549.971 720.562>
VStem: 629 220<115.657 279.709 364 1290.98> 958 125<113.245 275.708>
LayerCount: 2
Fore
SplineSet
898 280 m 0
 858 280 838 235 838 195 c 0
 838 155 863 110 898 110 c 0
 939 110 958 155 958 195 c 0
 958 235 938 280 898 280 c 0
849 364 m 1
 866 383 889 391 920 391 c 0
 983 391 1083 343 1083 206 c 0
 1083 101 1016 -10 872 -10 c 0
 670 -10 629 116 629 303 c 2
 629 1229 l 2
 629 1270 617 1291 594 1291 c 0
 579 1291 564 1277 551 1250 c 2
 516 1183 l 1
 476 1116 413 1082 326 1082 c 0
 221 1082 129 1152 64 1366 c 1
 23 1521 l 1
 220 1521 l 1
 253 1405 292 1282 336 1282 c 0
 359 1282 381 1302 402 1343 c 1
 455 1454 l 1
 503 1542 556 1572 624 1572 c 0
 813 1572 849 1419 849 1341 c 2
 849 364 l 1
EndSplineSet
EndChar

StartChar: uni0E45
Encoding: 3653 3653 188
Width: 1000
Flags: W
HStem: 949 200<341.536 591.599>
VStem: 664 220<-380 878.461>
LayerCount: 2
Fore
SplineSet
450 1149 m 0
 715 1149 884 996 884 773 c 2
 884 -380 l 1
 664 -380 l 1
 664 729 l 2
 664 864 593 949 461 949 c 0
 332 949 262 820 246 764 c 1
 48 846 l 1
 109 999 268 1149 450 1149 c 0
EndSplineSet
EndChar

StartChar: uni0E46
Encoding: 3654 3654 189
Width: 1100
Flags: W
HStem: 457 129<285.406 390.807> 754 108<356 387.304> 1129 20G<328 421.444 668.333 772.5>
VStem: 106 171<589.777 749.916> 399 131<591.806 749.04> 763 220<-380 896.223>
LayerCount: 2
Fore
SplineSet
336 754 m 0
 296 754 277 710 277 670 c 0
 277 630 296 586 336 586 c 0
 376 586 399 630 399 670 c 0
 399 710 376 754 336 754 c 0
695 1149 m 1
 850 1108 983 924 983 771 c 2
 983 -380 l 1
 763 -380 l 1
 763 771 l 2
 763 822 724 903 695 929 c 1
 551 821 l 1
 392 929 l 1
 369 897 356 869 356 862 c 1
 498 862 530 742 530 674 c 0
 530 553 445 457 318 457 c 0
 148 457 106 615 106 703 c 0
 106 948 264 1096 392 1149 c 1
 551 1041 l 1
 695 1149 l 1
EndSplineSet
EndChar

StartChar: uni0E47
Encoding: 3655 3655 190
Width: 0
Flags: W
HStem: 1284 202<-490.896 -414.152> 1284 143<-635.419 -527> 1372 167<-787.137 -669.916> 1562 74<-491.19 -414.529>
VStem: -1036 175<1487.83 1592.83> -576 84<1486.41 1561.87> -412 119<1424.5 1560.88>
AnchorPoint: "AboveBase" -310 1227 mark 0
LayerCount: 2
Fore
SplineSet
-412 1524 m 0x9e
 -412 1543 -428 1562 -452 1562 c 0
 -476 1562 -492 1543 -492 1524 c 0
 -492 1505 -476 1486 -452 1486 c 0
 -428 1486 -412 1505 -412 1524 c 0x9e
-773 1539 m 0x3e
 -691 1539 -609 1427 -551 1427 c 0x5e
 -533 1427 -528 1434 -527 1434 c 1
 -559 1454 -576 1483 -576 1522 c 0
 -576 1574 -529 1636 -449 1636 c 0
 -302 1636 -293 1521 -293 1476 c 0
 -293 1373 -359 1284 -469 1284 c 0x9e
 -544 1284 -608 1300 -661 1333 c 1
 -689 1348 -714 1372 -755 1372 c 0x3e
 -800 1372 -783 1288 -796 1284 c 1x5e
 -988 1284 -1036 1425 -1036 1510 c 0
 -1036 1614 -965 1722 -850 1751 c 0
 -671 1796 -458 1741 -408 1894 c 1
 -226 1894 l 1
 -237 1792 -354 1682 -444 1660 c 0
 -614 1619 -861 1654 -861 1522 c 0
 -861 1505 -856 1497 -850 1486 c 1x9e
 -832 1521 -806 1539 -773 1539 c 0x3e
EndSplineSet
Substitution2: "Thai Mark High Variant" uni0E47.high
Substitution2: "Thai Phinthu Maitaikhu Reordering" uni0E3A
EndChar

StartChar: uni0E48
Encoding: 3656 3656 191
Width: 0
Flags: W
HStem: 1826 280<-378 -147>
VStem: -378 231<1826 2106>
AnchorPoint: "AboveMark" -262 1740 mark 0
LayerCount: 2
Fore
SplineSet
-378 2106 m 1
 -147 2106 l 1
 -147 1826 l 1
 -378 1826 l 1
 -378 2106 l 1
EndSplineSet
MultipleSubs2: "Thai Tone Nikhahit Attachment" uni0E4D uni0E48
Substitution2: "Thai Tone Low Variant" uni0E48.low
Substitution2: "Thai Sara U Mai Ek Reordering" uni0E38
Substitution2: "Thai Sara UU Mai Ek Reordering" uni0E39
Substitution2: "Thai Phinthu Mai Ek Reordering" uni0E3A
EndChar

StartChar: uni0E49
Encoding: 3657 3657 192
Width: 0
Flags: W
HStem: 1878 89<-582.411 -500.322> 2073 97<-581.786 -476.723>
VStem: -680 97<1969.28 2071.33> -475 125<1968.25 2072.06>
AnchorPoint: "AboveMark" -286 1740 mark 0
LayerCount: 2
Fore
SplineSet
-364 1915 m 1
 -306 1927 -175 1982 -116 2156 c 1
 66 2156 l 1
 10 1930 -205 1761 -485 1716 c 0
 -512 1712 -547 1708 -592 1703 c 1
 -592 1810 l 1
 -571 1815 -510 1832 -500 1885 c 1
 -513 1880 -528 1878 -543 1878 c 0
 -624 1878 -680 1946 -680 2030 c 0
 -680 2104 -616 2170 -540 2170 c 0
 -432 2170 -350 2090 -350 2009 c 0
 -350 1973 -354 1941 -364 1915 c 1
-583 2020 m 0
 -583 1988 -561 1967 -529 1967 c 0
 -497 1967 -475 1988 -475 2020 c 0
 -475 2052 -497 2073 -529 2073 c 0
 -561 2073 -583 2052 -583 2020 c 0
EndSplineSet
MultipleSubs2: "Thai Tone Nikhahit Attachment" uni0E4D uni0E49
Substitution2: "Thai Tone Low Variant" uni0E49.low
Substitution2: "Thai Sara U Mai Tho Reordering" uni0E38
Substitution2: "Thai Sara UU Mai Tho Reordering" uni0E39
Substitution2: "Thai Phinthu Mai Tho Reordering" uni0E3A
EndChar

StartChar: uni0E4A
Encoding: 3658 3658 193
Width: 0
Flags: W
HStem: 1668 89<-755.995 -599.995> 1837 77<-678.961 -599.506>
VStem: -872 159<1886 1958.79> -599 74<1758.27 1835.91>
DStem2: -153 1918 -4 1832 0.357493 0.933916<0 269.447>
AnchorPoint: "AboveMark" -458 1740 mark 0
LayerCount: 2
Fore
SplineSet
-639 1757 m 0
 -614 1757 -599 1772 -599 1797 c 0
 -599 1815 -614 1837 -639 1837 c 0
 -664 1837 -679 1822 -679 1797 c 0
 -679 1772 -664 1757 -639 1757 c 0
-365 2154 m 1
 -253 2112 -152 2029 -152 1930 c 0
 -152 1926 -153 1922 -153 1918 c 1
 -55 2169 l 1
 125 2169 l 1
 -4 1832 l 2
 -62 1683 -266 1672 -325 1672 c 1
 -300 1711 -287 1755 -287 1802 c 0
 -287 1901 -338 1959 -365 1976 c 1
 -507 1858 l 1
 -647 1976 l 1
 -676 1965 -713 1930 -713 1886 c 1
 -692 1905 -666 1914 -635 1914 c 0
 -568 1914 -525 1868 -525 1793 c 0
 -525 1717 -585 1668 -677 1668 c 0
 -833 1668 -872 1800 -872 1882 c 0
 -872 2044 -717 2129 -647 2154 c 1
 -507 2036 l 1
 -365 2154 l 1
EndSplineSet
MultipleSubs2: "Thai Tone Nikhahit Attachment" uni0E4D uni0E4A
Substitution2: "Thai Tone Low Variant" uni0E4A.low
Substitution2: "Thai Sara U Mai Tri Reordering" uni0E38
Substitution2: "Thai Sara UU Mai Tri Reordering" uni0E39
Substitution2: "Thai Phinthu Mai Tri Reordering" uni0E3A
EndChar

StartChar: uni0E4B
Encoding: 3659 3659 194
Width: 0
Flags: W
HStem: 1793 174<-590 -459 -287 -164>
VStem: -459 172<1670 1793 1967 2096>
AnchorPoint: "AboveMark" -373 1640 mark 0
LayerCount: 2
Fore
SplineSet
-164 1793 m 1
 -287 1793 l 1
 -287 1670 l 1
 -459 1670 l 1
 -459 1793 l 1
 -590 1793 l 1
 -590 1967 l 1
 -459 1967 l 1
 -459 2096 l 1
 -287 2096 l 1
 -287 1967 l 1
 -164 1967 l 1
 -164 1793 l 1
EndSplineSet
MultipleSubs2: "Thai Tone Nikhahit Attachment" uni0E4D uni0E4B
Substitution2: "Thai Tone Low Variant" uni0E4B.low
Substitution2: "Thai Sara U Mai Chattawa Reordering" uni0E38
Substitution2: "Thai Sara UU Mai Chattawa Reordering" uni0E39
Substitution2: "Thai Phinthu Mai Chattawa Reordering" uni0E3A
EndChar

StartChar: uni0E4C
Encoding: 3660 3660 195
Width: 0
Flags: W
HStem: 1621 112<-478.187 -346.759>
VStem: -618 136<1738.39 1849.45> -342 132<1738.18 1852.07>
AnchorPoint: "AboveMark" -415 1740 mark 0
LayerCount: 2
Fore
SplineSet
-618 1805 m 0
 -618 2118 -234 1976 -128 2169 c 1
 52 2169 l 1
 -2 2022 -192 1918 -280 1918 c 1
 -241 1898 -210 1850 -210 1789 c 0
 -210 1716 -274 1621 -390 1621 c 0
 -524 1621 -618 1698 -618 1805 c 0
-342 1795 m 0
 -342 1830 -372 1857 -412 1857 c 0
 -452 1857 -482 1830 -482 1795 c 0
 -482 1760 -452 1733 -412 1733 c 0
 -372 1733 -342 1760 -342 1795 c 0
EndSplineSet
MultipleSubs2: "Thai Tone Nikhahit Attachment" uni0E4D uni0E4C
Substitution2: "Thai Tone Low Variant" uni0E4C.low
Substitution2: "Thai Sara U Thanthakhat Reordering" uni0E38
Substitution2: "Thai Sara UU Thanthakhat Reordering" uni0E39
Substitution2: "Thai Phinthu Thanthakhat Reordering" uni0E3A
EndChar

StartChar: uni0E4D
Encoding: 3661 3661 196
Width: 0
Flags: W
HStem: 1212 153<-369.717 -226.283> 1515 153<-369.717 -226.283>
VStem: -528 148<1375.69 1504.31> -216 148<1375.69 1504.31>
AnchorPoint: "AboveMark" -261 1740 basemark 0
AnchorPoint: "AboveBase" -105 1227 mark 0
LayerCount: 2
Fore
SplineSet
-528 1440 m 0
 -528 1570 -428 1668 -298 1668 c 0
 -168 1668 -68 1570 -68 1440 c 0
 -68 1310 -168 1212 -298 1212 c 0
 -428 1212 -528 1310 -528 1440 c 0
-298 1365 m 0
 -258 1365 -216 1400 -216 1440 c 0
 -216 1480 -258 1515 -298 1515 c 0
 -338 1515 -380 1480 -380 1440 c 0
 -380 1400 -338 1365 -298 1365 c 0
EndSplineSet
Substitution2: "Thai Mark High Variant" uni0E4D.high
Substitution2: "Thai Sara U Nikhahit Reordering" uni0E38
Substitution2: "Thai Sara UU Nikhahit Reordering" uni0E39
Substitution2: "Thai Phinthu Nikhahit Reordering" uni0E3A
EndChar

StartChar: uni0E4E
Encoding: 3662 3662 197
Width: 0
Flags: W
HStem: 1444 122<-357.722 -135> 1675 129<-343.674 -168> 1909 127<-346.024 -104.856>
VStem: -543 182<1580.49 1664.92> -518 170<1813.84 1906.74>
AnchorPoint: "AboveBase" -135 1227 mark 0
LayerCount: 2
Fore
SplineSet
-518 1884 m 0xe8
 -518 1982 -410 2036 -279 2036 c 0
 -224 2036 -165 2028 -102 2013 c 1
 -102 1885 l 1
 -161 1900 -216 1909 -270 1909 c 0
 -309 1909 -348 1906 -348 1866 c 0xe8
 -348 1824 -301 1804 -238 1804 c 2
 -168 1804 l 1
 -168 1675 l 1
 -233 1675 l 2
 -302 1675 -361 1663 -361 1617 c 0
 -361 1568 -220 1566 -213 1566 c 2
 -135 1566 l 1
 -135 1444 l 1
 -219 1444 l 2
 -378 1444 -543 1506 -543 1616 c 0xf0
 -543 1693 -472 1734 -450 1744 c 1
 -495 1776 -518 1816 -518 1884 c 0xe8
EndSplineSet
EndChar

StartChar: uni0E4F
Encoding: 3663 3663 198
Width: 1250
Flags: W
HStem: -21 184<457.711 775.498> 258 148<537.642 696.066> 609 154<536.995 696.734> 852 188<457.711 775.498>
VStem: 97 183<338.057 671.907> 363 157<424.597 590.993> 716 154<424.597 590.993> 955 182<347.891 668.271>
LayerCount: 2
Fore
SplineSet
617 852 m 0
 432 852 280 692 280 507 c 0
 280 322 432 163 617 163 c 0
 802 163 955 322 955 507 c 0
 955 692 802 852 617 852 c 0
520 508 m 0
 520 452 561 406 617 406 c 0
 673 406 716 452 716 508 c 0
 716 564 673 609 617 609 c 0
 561 609 520 564 520 508 c 0
1137 509 m 0
 1137 214 911 -21 616 -21 c 0
 321 -21 97 214 97 509 c 0
 97 804 321 1040 616 1040 c 0
 911 1040 1137 804 1137 509 c 0
870 511 m 0
 870 364 763 258 616 258 c 0
 469 258 363 364 363 511 c 0
 363 658 469 763 616 763 c 0
 763 763 870 658 870 511 c 0
EndSplineSet
EndChar

StartChar: uni0E50
Encoding: 3664 3664 199
Width: 1250
Flags: W
HStem: -10 240<494.239 758.059> 686 238<490.529 758.576>
VStem: 150 253<318.119 597.109> 853 259<326.48 592.87>
LayerCount: 2
Fore
SplineSet
403 458 m 0
 403 328 496 230 624 230 c 0
 758 230 853 336 853 458 c 0
 853 596 743 686 624 686 c 0
 501 686 403 591 403 458 c 0
1112 458 m 0
 1112 199 893 -10 622 -10 c 0
 347 -10 150 193 150 458 c 0
 150 747 383 924 622 924 c 0
 924 924 1112 699 1112 458 c 0
EndSplineSet
EndChar

StartChar: uni0E51
Encoding: 3665 3665 200
Width: 1300
Flags: W
HStem: -9 187<388.303 750.309> 203 211<466.777 679.5> 603 84<588.345 705.97> 722 203<500.828 785.308>
VStem: 213 229<436.234 661.251> 489 96<487.582 600.892> 709 145<416.5 600.469> 885 219<316.14 619.38>
LayerCount: 2
Fore
SplineSet
586 178 m 0
 798 178 885 338 885 463 c 0
 885 555 840 722 633 722 c 0
 469 722 442 598 442 544 c 0
 442 490 476 414 530 414 c 0
 539 414 549 417 558 422 c 1
 516 444 489 483 489 550 c 0
 489 635 554 687 653 687 c 0
 828 687 854 530 854 462 c 0
 854 371 787 203 572 203 c 0
 357 203 213 357 213 552 c 0
 213 747 363 925 627 925 c 0
 807 925 1104 833 1104 463 c 0
 1104 86 810 -9 574 -9 c 0
 340 -9 228 79 185 115 c 1
 282 292 l 1
 382 215 456 178 586 178 c 0
647 603 m 0
 612 603 585 579 585 544 c 0
 585 509 612 485 647 485 c 0
 682 485 709 509 709 544 c 0
 709 579 682 603 647 603 c 0
EndSplineSet
EndChar

StartChar: uni0E52
Encoding: 3666 3666 201
Width: 1350
Flags: W
HStem: 0 200<499.88 1004> 343 118<603.247 706.624>
VStem: 456 144<463.097 681> 708 118<463.051 561.362> 1004 210<200 678.737>
LayerCount: 2
Fore
SplineSet
654 563 m 0
 624 563 600 542 600 512 c 0
 600 482 624 461 654 461 c 0
 684 461 708 482 708 512 c 0
 708 542 684 563 654 563 c 0
659 343 m 0
 505 343 456 427 456 586 c 0
 456 776 598 874 718 924 c 1
 718 923 756 892 832 831 c 1
 936 924 l 1
 1100 860 1214 724 1214 506 c 2
 1214 0 l 1
 545 0 l 2
 292 0 240 231 232 307 c 1
 208 611 l 1
 187 802 142 976 75 1134 c 1
 309 1134 l 1
 433 812 434 458 457 334 c 1
 475 222 553 200 627 200 c 2
 1004 200 l 1
 1004 506 l 2
 1004 578 981 675 936 702 c 1
 936 701 901 678 832 632 c 1
 718 702 l 1
 712 696 707 687 703 674 c 1
 750 664 826 606 826 511 c 0
 826 446 780 343 659 343 c 0
EndSplineSet
EndChar

StartChar: uni0E53
Encoding: 3667 3667 202
Width: 1400
Flags: W
HStem: -10 114<320.16 427.916> 198 135<349.636 426.861> 724 200<354.442 541.54 863.287 1019.07>
VStem: 86 234<331.253 691.289> 428 123<106.714 196.398> 600 203<304 658.417> 1055 244<112.675 691.689>
LayerCount: 2
Fore
SplineSet
374 198 m 0
 344 198 320 179 320 151 c 24
 320 123 344 104 374 104 c 0
 404 104 428 123 428 151 c 0
 428 179 404 198 374 198 c 0
392 333 m 0
 462 333 551 266 551 163 c 0
 551 48 481 -10 341 -10 c 0
 286 -10 227 33 196 96 c 0
 191 106 86 322 86 561 c 0
 86 837 238 924 403 924 c 0
 591 924 663 849 705 792 c 1
 749 877 852 924 967 924 c 0
 1188 924 1299 778 1299 487 c 0
 1299 287 1241 48 1229 0 c 1
 1000 0 l 1
 1037 165 1055 347 1055 503 c 0
 1055 645 1023 716 960 716 c 0
 822 716 803 589 803 414 c 2
 803 304 l 1
 600 304 l 1
 600 497 614 724 436 724 c 0
 360 724 321 659 321 550 c 0
 321 492 326 422 356 328 c 1
 369 331 381 333 392 333 c 0
EndSplineSet
EndChar

StartChar: uni0E54
Encoding: 3668 3668 203
Width: 1550
Flags: W
HStem: -6 200<485.349 814.527> 557 135<973.093 1100.64> 724 200<475.645 1107.81>
VStem: 127 245<312.959 624.219> 813 156<428.163 550.32> 1105 135<428.852 553.523> 1278 232<1106.43 1262>
LayerCount: 2
Back
SplineSet
127 469 m 0
 127 833 436 924 672 924 c 2
 918 924 l 2
 1130 924 1250 1037 1278 1262 c 1
 1510 1262 l 1
 1505 1083 1390 901 1310 830 c 0
 1216 746 1087 704 924 704 c 2
 664 704 l 6
 439 704 372 607 372 462 c 0
 372 348 484 231 585 231 c 0
 634 231 735 252 887 295 c 2
 909 301 l 1
 834 360 813 427 813 459 c 0
 813 624 923 692 1036 692 c 0
 1206 692 1240 565 1240 500 c 0
 1240 394 1175 313 1088 313 c 1
 1172 277 1253 308 1410 173 c 1
 1253 -2 l 1
 1178 68 1108 76 1030 76 c 0
 906 76 752 -6 580 -6 c 0
 330 -6 127 196 127 469 c 0
969 490 m 0
 969 454 1000 423 1037 423 c 0
 1070 423 1105 451 1105 490 c 0
 1105 522 1083 557 1037 557 c 0
 1001 557 969 531 969 490 c 0
EndSplineSet
Fore
SplineSet
1396 156 m 1
 1253 -2 l 1
 1178 68 1108 76 1030 76 c 0
 906 76 752 -6 580 -6 c 0
 330 -6 127 196 127 469 c 0
 127 833 436 924 672 924 c 2
 918 924 l 2
 1130 924 1250 1037 1278 1262 c 1
 1510 1262 l 1
 1505 1083 1390 901 1310 830 c 0
 1223 753 1087 724 924 724 c 2
 664 724 l 2
 439 724 372 617 372 462 c 0
 372 329 484 194 585 194 c 0
 634 194 735 215 887 258 c 1
 940 278 l 1
 846 324 813 427 813 459 c 0
 813 624 923 692 1036 692 c 0
 1206 692 1240 565 1240 500 c 0
 1240 394 1175 313 1088 313 c 1
 1216 243 1234 301 1396 156 c 1
969 490 m 0
 969 454 1000 423 1037 423 c 0
 1070 423 1105 451 1105 490 c 0
 1105 522 1083 557 1037 557 c 0
 1001 557 969 531 969 490 c 0
EndSplineSet
EndChar

StartChar: uni0E55
Encoding: 3669 3669 204
Width: 1550
Flags: W
HStem: -6 200<485.349 814.527> 557 135<973.093 1100.64> 724 213<731.705 852.097> 724 198<475.51 618 969 1103.21> 1057 129<733.929 850.688>
VStem: 127 245<312.959 629.001> 602 128<939.594 1053.45> 813 156<428.163 550.32> 854 129<939.7 1053.84> 1105 135<428.852 553.523> 1278 232<1104.01 1262>
LayerCount: 2
Back
SplineSet
969 490 m 0xfe80
 969 454 1000 423 1037 423 c 0
 1070 423 1105 451 1105 490 c 0
 1105 522 1083 557 1037 557 c 0
 1001 557 969 531 969 490 c 0xfe80
127 469 m 0
 127 732 324 922 618 922 c 1
 607 947 602 972 602 997 c 0
 602 1100 686 1186 793 1186 c 0
 898 1186 983 1101 983 997 c 0xfd80
 983 972 978 948 969 926 c 1
 1150 945 1253 1057 1278 1262 c 1
 1510 1262 l 1
 1505 1083 1390 901 1310 830 c 0
 1216 746 1087 704 924 704 c 2
 664 704 l 2
 439 704 372 607 372 462 c 0
 372 348 484 231 585 231 c 0
 634 231 735 252 887 295 c 2
 909 301 l 1
 834 360 813 427 813 459 c 0
 813 624 923 692 1036 692 c 0
 1206 692 1240 565 1240 500 c 0
 1240 394 1175 313 1088 313 c 1
 1172 277 1253 308 1410 173 c 1
 1253 -2 l 1
 1178 68 1108 76 1030 76 c 0
 906 76 752 -6 580 -6 c 0
 330 -6 127 196 127 469 c 0
730 995 m 0
 730 963 760 937 793 937 c 0
 820 937 854 960 854 995 c 0
 854 1034 823 1057 793 1057 c 0
 762 1057 730 1034 730 995 c 0
EndSplineSet
Fore
SplineSet
1253 -2 m 1xdf60
 1179 68 1108 76 1030 76 c 0
 906 76 752 -6 580 -6 c 0
 330 -6 127 196 127 469 c 0
 127 732 324 922 618 922 c 1
 607 947 602 972 602 997 c 0
 602 1100 686 1186 793 1186 c 0
 898 1186 983 1101 983 997 c 0xdee0
 983 972 978 948 969 926 c 1
 1150 945 1253 1057 1278 1262 c 1
 1510 1262 l 1
 1505 1083 1447 956 1310 830 c 24
 1195 724 1087 724 924 724 c 2
 664 724 l 2
 439 724 372 617 372 462 c 0
 372 329 484 194 585 194 c 0
 634 194 735 215 887 258 c 1
 940 278 l 1
 846 324 813 427 813 459 c 0
 813 624 923 692 1036 692 c 0
 1206 692 1240 565 1240 500 c 0
 1240 394 1175 313 1088 313 c 1
 1216 243 1234 301 1396 156 c 1
 1253 -2 l 1xdf60
969 490 m 0xcf60
 969 454 1000 423 1037 423 c 0
 1070 423 1105 451 1105 490 c 0
 1105 522 1083 557 1037 557 c 0
 1001 557 969 531 969 490 c 0xcf60
730 995 m 0
 730 963 760 937 793 937 c 0
 820 937 854 960 854 995 c 0xeee0
 854 1034 823 1057 793 1057 c 0
 762 1057 730 1034 730 995 c 0
EndSplineSet
EndChar

StartChar: uni0E56
Encoding: 3670 3670 205
Width: 1300
Flags: W
HStem: -16 222<653.877 885.766> 465 129<492.163 613.339> 708 220<470.342 849.979>
VStem: 328 161<246 459.323> 617 124<347.511 461.427> 975 221<292.031 591.73>
LayerCount: 2
Fore
SplineSet
732 206 m 0
 886 206 975 299 975 429 c 0
 975 623 847 708 653 708 c 0
 540 708 438 689 348 650 c 1
 203 1001 88 1186 12 1262 c 1
 315 1262 l 1
 396 1135 450 1015 477 900 c 1
 580 927 618 928 653 928 c 0
 972 928 1196 734 1196 436 c 0
 1196 159 989 -16 719 -16 c 0
 489 -16 328 154 328 338 c 0
 328 485 420 594 551 594 c 0
 657 594 741 508 741 406 c 0
 741 339 708 279 651 244 c 1
 662 209 716 206 732 206 c 0
489 404 m 0
 489 372 521 343 553 343 c 0
 585 343 617 372 617 404 c 0
 617 436 585 465 553 465 c 0
 521 465 489 436 489 404 c 0
EndSplineSet
EndChar

StartChar: uni0E57
Encoding: 3671 3671 206
Width: 1540
Flags: W
HStem: -16 125<334.505 449.115> 0 21G<771 1177> 234 132<344.145 451.442> 720 203<350.765 466.684 739.302 853.162>
VStem: 127 209<153.328 713.697> 454 130<112.078 230.973> 492 216<467 698.159> 879 219<218.475 700.565> 1185 232<237.668 1130>
LayerCount: 2
Back
SplineSet
433 923 m 0
 519 923 569 888 602 825 c 1
 626 894 695 924 799 924 c 0
 920 924 1098 845 1098 436 c 0
 1098 282 1088 258 1077 216 c 1
 1092 216 l 2
 1150 216 1185 263 1185 338 c 2
 1185 1130 l 1
 1417 1130 l 1
 1417 334 l 2
 1417 111 1297 0 1057 0 c 2
 771 0 l 1
 807 88 879 265 879 436 c 0
 879 583 852 657 799 657 c 0
 723 657 708 599 708 467 c 1
 492 467 l 1
 477 610 490 657 406 657 c 0
 333 657 336 546 336 445 c 0
 336 409 340 380 347 358 c 1
 363 365 379 366 400 366 c 0
 492 366 584 282 584 172 c 0
 584 72 504 -16 393 -16 c 0
 287 -16 127 59 127 436 c 0
 127 832 269 923 433 923 c 0
332 173 m 0
 332 133 360 109 393 109 c 0
 442 109 454 154 454 173 c 0
 454 218 413 234 393 234 c 0
 355 234 332 204 332 173 c 0
EndSplineSet
Fore
SplineSet
433 923 m 0xbd80
 519 923 569 888 602 825 c 1
 626 894 695 924 799 924 c 0
 920 924 1098 845 1098 436 c 0
 1098 282 1088 258 1077 216 c 1
 1092 216 l 2
 1150 216 1185 263 1185 338 c 2
 1185 1130 l 1
 1417 1130 l 1
 1417 334 l 2
 1417 111 1297 0 1057 0 c 2
 771 0 l 1
 807 88 879 265 879 499 c 0
 879 646 852 720 799 720 c 0
 723 720 708 599 708 467 c 1
 492 467 l 1x7b80
 477 610 490 720 406 720 c 0
 333 720 336 609 336 508 c 0
 336 472 340 380 347 358 c 1
 363 365 379 366 400 366 c 0
 492 366 584 282 584 172 c 0
 584 72 504 -16 393 -16 c 0
 287 -16 127 59 127 436 c 0
 127 832 269 923 433 923 c 0xbd80
332 173 m 0
 332 133 360 109 393 109 c 0
 442 109 454 154 454 173 c 0xbd80
 454 218 413 234 393 234 c 0
 355 234 332 204 332 173 c 0
EndSplineSet
EndChar

StartChar: uni0E58
Encoding: 3672 3672 207
Width: 1580
Flags: W
HStem: -12 223<1023.71 1209.39> 283 200<709.194 799.833> 309 114<1134.89 1211.77> 575 113<1136.48 1272.34> 739 178<508.511 1080.12>
VStem: 127 254<341.687 641.196> 1014 114<430.762 568.03> 1213 245<218.108 472> 1278 238<1075.19 1263> 1280 178<224.5 565.413>
LayerCount: 2
Back
SplineSet
575 0 m 2
 320 0 127 193 127 469 c 0
 127 649 203 887 613 917 c 0
 972 935 1278 895 1278 1263 c 1
 1518 1263 l 1
 1516 1195 l 2
 1498 984 1410 853 1353 804 c 0
 1292 750 1150 711 987 699 c 0
 805 686 626 712 462 636 c 0
 414 615 381 552 381 478 c 0
 381 381 451 318 516 306 c 1
 516 483 647 516 717 516 c 0
 823 516 899 435 967 354 c 2
 1042 267 l 2
 1076 232 1114 215 1157 215 c 0
 1205 215 1213 267 1213 280 c 0
 1213 292 1209 302 1202 309 c 1
 1092 309 1014 399 1014 500 c 0
 1014 601 1098 688 1204 688 c 0
 1356 688 1458 563 1458 381 c 0
 1458 68 1278 -12 1155 -12 c 0
 936 -12 809 283 743 283 c 0
 714 283 700 236 700 141 c 2
 700 0 l 1
 575 0 l 2
1128 499 m 0
 1128 457 1162 423 1204 423 c 0
 1246 423 1280 457 1280 499 c 0
 1280 541 1246 575 1204 575 c 0
 1162 575 1128 541 1128 499 c 0
EndSplineSet
Fore
SplineSet
575 0 m 2xdf
 320 0 127 193 127 469 c 0
 127 649 203 887 613 917 c 1
 972 935 1278 895 1278 1263 c 1
 1518 1263 l 1
 1516 1195 l 1
 1498 984 1410 893 1353 844 c 1
 1292 790 1150 751 987 739 c 0
 805 726 626 752 462 676 c 1
 414 655 381 572 381 478 c 0
 381 364 451 285 516 273 c 1
 516 450 647 483 717 483 c 0xde80
 823 483 899 402 967 321 c 1
 1042 234 l 1
 1060 216 1079 211 1099 211 c 0
 1158 211 1213 216 1213 280 c 0
 1213 292 1209 302 1202 309 c 1xbf
 1092 309 1014 399 1014 500 c 0
 1014 601 1098 688 1204 688 c 0
 1356 688 1458 563 1458 381 c 0
 1458 68 1278 -12 1155 -12 c 0
 936 -12 809 283 743 283 c 0
 714 283 700 236 700 141 c 2
 700 0 l 1
 575 0 l 2xdf
1128 499 m 0
 1128 457 1162 423 1204 423 c 0
 1246 423 1280 457 1280 499 c 0xbe40
 1280 541 1246 575 1204 575 c 0
 1162 575 1128 541 1128 499 c 0
EndSplineSet
EndChar

StartChar: uni0E59
Encoding: 3673 3673 208
Width: 1500
Flags: W
HStem: -16 123<334.41 448.893> 0 21G<795.038 1022> 236 126<344.039 450.804> 724 200<379.643 549.011 866.686 948.461> 724 14<909 1108>
VStem: 127 210<153.793 682.316> 454 130<111.434 231.793> 1202 212<824.03 1130>
DStem2: 826 595 598 586 0.312874 -0.949795<-47.4993 557.619>
LayerCount: 2
Back
SplineSet
1202 1130 m 1xee
 1414 1130 l 1
 1414 906 1372 727 1341 633 c 0
 1298 517 1224 468 1146 468 c 0xee
 928 468 972 618 879 618 c 0
 856 618 844 620 812 552 c 1
 1029 0 l 1
 802 0 l 1
 598 477 l 2
 562 565 537 615 464 615 c 0
 387 615 337 537 337 435 c 0
 337 405 340 379 346 356 c 1
 362 366 374 362 395 362 c 0
 510 362 584 270 584 172 c 0
 584 72 504 -16 393 -16 c 0
 287 -16 127 59 127 436 c 0
 127 710 219 924 467 924 c 0
 571 924 649 875 702 776 c 1
 745 875 802 924 874 924 c 0xde
 1004 924 1024 738 1108 738 c 0
 1183 738 1187 939 1202 1130 c 1xee
331 173 m 0
 331 136 358 107 392 107 c 0
 429 107 454 139 454 173 c 0
 454 204 430 236 392 236 c 256
 355 236 331 204 331 173 c 0
EndSplineSet
Fore
SplineSet
1202 1130 m 1x2f
 1414 1130 l 1
 1414 906 1372 836 1341 742 c 1
 1298 626 1224 538 1146 538 c 0
 958 538 959 724 909 724 c 0
 886 724 860 673 826 595 c 1
 1022 0 l 1
 802 0 l 1x77
 598 586 l 1
 562 674 537 724 464 724 c 0
 387 724 337 646 337 544 c 0
 337 514 340 379 346 356 c 1
 362 366 374 362 395 362 c 0
 510 362 584 270 584 172 c 0
 584 72 504 -16 393 -16 c 0
 287 -16 127 59 127 436 c 0
 127 710 219 924 467 924 c 0
 596 924 699 875 752 776 c 1
 795 875 832 924 904 924 c 0xb7
 1058 924 1039 738 1108 738 c 0
 1183 738 1187 939 1202 1130 c 1x2f
331 173 m 0
 331 136 358 107 392 107 c 0xa7
 429 107 454 139 454 173 c 0
 454 204 430 236 392 236 c 256
 355 236 331 204 331 173 c 0
EndSplineSet
EndChar

StartChar: uni0E5A
Encoding: 3674 3674 209
Width: 1400
Flags: W
HStem: 0 21G<805 1025 1065 1285> 657 200<514 682.562> 1023 124<265.347 391.111>
VStem: 127 133<892.976 1019.4> 396 152<893.43 1019.03> 805 220<0 776 987.448 1149> 1065 220<0 1149>
LayerCount: 2
Fore
SplineSet
548 972 m 0
 548 950 543 886 514 857 c 1
 549 857 l 2
 723 857 805 1032 805 1149 c 1
 1025 1149 l 1
 1025 0 l 1
 805 0 l 1
 805 776 l 1
 734 683 583 657 487 657 c 0
 207 657 127 800 127 930 c 0
 127 1074 228 1147 347 1147 c 0
 435 1147 548 1092 548 972 c 0
328 1023 m 0
 288 1023 260 996 260 956 c 0
 260 916 288 889 328 889 c 0
 368 889 396 916 396 956 c 0
 396 996 368 1023 328 1023 c 0
1285 0 m 1
 1065 0 l 1
 1065 1149 l 1
 1285 1149 l 1
 1285 0 l 1
EndSplineSet
EndChar

StartChar: uni0E5B
Encoding: 3675 3675 210
Width: 2370
Flags: W
HStem: -11 233<440.833 802.545> 198 166<1874.18 2358> 272 170<541.503 733.47> 300 315<1104.61 1222.47 1419.16 1490.92> 300 207<1737.74 1825.63> 463 98<540.461 619.853> 643 93<536.328 618.977> 786 200<431.652 708.815>
VStem: 133 195<336.408 665.815> 381 155<448.799 471 504.907 641.261> 620 95<561.684 642.031> 777 185<483.935 718.164>
LayerCount: 2
Fore
SplineSet
777 603 m 0x27f0
 777 713 686 786 562 786 c 0
 429 786 328 680 328 464 c 0
 328 403 374 222 610 222 c 0
 998 222 972 615 1151 615 c 0
 1291 615 1243 410 1292 410 c 0
 1370 410 1308 615 1457 615 c 0x93f0
 1570 615 1545 384 1618 384 c 0
 1674 384 1660 507 1760 507 c 0x0bf0
 1848 507 1837 364 1979 364 c 2
 2358 364 l 1
 2358 198 l 1
 1973 198 l 2x43f0
 1844 198 1796 300 1776 300 c 0x0bf0
 1726 300 1709 94 1600 94 c 0
 1507 94 1508 304 1452 304 c 0
 1407 304 1398 88 1292 88 c 0
 1148 88 1164 300 1134 300 c 0
 1104 300 1042 -11 640 -11 c 0
 300 -11 133 244 133 483 c 0
 133 885 444 986 578 986 c 0
 895 986 962 755 962 615 c 0x93f0
 962 392 774 272 609 272 c 0
 456 272 381 386 381 503 c 0
 381 625 466 736 570 736 c 0
 630 736 715 694 715 595 c 0
 715 513 644 463 581 463 c 0
 567 463 553 465 540 471 c 1
 540 461 572 442 621 442 c 0
 751 442 777 549 777 603 c 0x27f0
536 602 m 0
 536 582 553 561 580 561 c 0x07f0
 603 561 620 579 620 601 c 0
 620 629 600 643 578 643 c 0
 554 643 536 623 536 602 c 0
EndSplineSet
EndChar

StartChar: zerowidthjoiner
Encoding: 8205 8205 212
Width: 0
Flags: W
LayerCount: 2
Back
SplineSet
36 -275 m 1
 -36 -275 l 1
 -36 1114 l 1
 -170 978 l 1
 -219 1027 l 1
 -48 1196 l 1
 -219 1364 l 1
 -170 1413 l 1
 0 1242 l 1
 170 1413 l 1
 219 1364 l 1
 48 1196 l 1
 219 1027 l 1
 170 978 l 1
 36 1114 l 1
 36 -275 l 1
EndSplineSet
EndChar

StartChar: afii299
Encoding: 8206 8206 213
Width: 0
Flags: W
LayerCount: 2
Back
SplineSet
430 1198 m 1
 213 984 l 1
 164 1033 l 1
 301 1163 l 1
 35 1163 l 1
 35 -275 l 1
 -36 -275 l 1
 -36 1234 l 1
 301 1234 l 1
 164 1364 l 1
 213 1413 l 1
 430 1198 l 1
EndSplineSet
EndChar

StartChar: afii300
Encoding: 8207 8207 214
Width: 0
Flags: W
LayerCount: 2
Back
SplineSet
35 -275 m 1
 -36 -275 l 1
 -36 1163 l 1
 -302 1163 l 1
 -165 1033 l 1
 -214 984 l 1
 -431 1198 l 1
 -214 1413 l 1
 -165 1364 l 1
 -302 1234 l 1
 35 1234 l 1
 35 -275 l 1
EndSplineSet
EndChar

StartChar: uni2010
Encoding: 8208 8208 215
Width: 973
Flags: W
HStem: 548 220<190 815>
VStem: 190 625<548 768>
LayerCount: 2
Fore
SplineSet
190 768 m 1
 815 768 l 1
 815 548 l 1
 190 548 l 1
 190 768 l 1
EndSplineSet
EndChar

StartChar: endash
Encoding: 8211 8211 216
Width: 1125
Flags: W
HStem: 530 220<0 1126>
LayerCount: 2
Fore
SplineSet
1126 530 m 1
 0 530 l 1
 0 750 l 1
 1126 750 l 1
 1126 530 l 1
EndSplineSet
EndChar

StartChar: emdash
Encoding: 8212 8212 217
Width: 1886
Flags: W
HStem: 530 220<0 1870>
LayerCount: 2
Fore
SplineSet
1870 530 m 1
 0 530 l 1
 0 750 l 1
 1870 750 l 1
 1870 530 l 1
EndSplineSet
EndChar

StartChar: horizontalbar
Encoding: 8213 8213 218
Width: 1862
Flags: W
HStem: 577 220<110 1752>
LayerCount: 2
Fore
SplineSet
1752 577 m 1
 110 577 l 1
 110 797 l 1
 1752 797 l 1
 1752 577 l 1
EndSplineSet
EndChar

StartChar: underscoredbl
Encoding: 8215 8215 219
Width: 1118
Flags: W
HStem: -423 130<-16 1134> -212 130<-16 1134>
LayerCount: 2
Fore
SplineSet
1134 -212 m 1
 -16 -212 l 1
 -16 -82 l 1
 1134 -82 l 1
 1134 -212 l 1
1134 -423 m 1
 -16 -423 l 1
 -16 -293 l 1
 1134 -293 l 1
 1134 -423 l 1
EndSplineSet
EndChar

StartChar: quoteleft
Encoding: 8216 8216 220
Width: 450
Flags: W
HStem: 997 559<197 222>
VStem: -64 443
LayerCount: 2
Fore
SplineSet
379 997 m 1
 197 997 l 1
 -64 1556 l 1
 222 1556 l 1
 379 997 l 1
EndSplineSet
EndChar

StartChar: quoteright
Encoding: 8217 8217 221
Width: 580
Flags: W
HStem: 997 559<209 235>
VStem: 52 444
LayerCount: 2
Fore
SplineSet
496 1556 m 1
 235 997 l 1
 52 997 l 1
 209 1556 l 1
 496 1556 l 1
EndSplineSet
EndChar

StartChar: quotesinglbase
Encoding: 8218 8218 222
Width: 432
Flags: W
HStem: -276 559<144 170>
VStem: -13 444
LayerCount: 2
Fore
SplineSet
431 283 m 1
 170 -276 l 1
 -13 -276 l 1
 144 283 l 1
 431 283 l 1
EndSplineSet
EndChar

StartChar: quotereversed
Encoding: 8219 8219 223
Width: 432
Flags: W
HStem: 997 559<197 223>
VStem: -64 444
LayerCount: 2
Fore
SplineSet
380 1556 m 1
 223 997 l 1
 -64 997 l 1
 197 1556 l 1
 380 1556 l 1
EndSplineSet
EndChar

StartChar: quotedblleft
Encoding: 8220 8220 224
Width: 850
Flags: W
HStem: 997 559<263 285 612 634>
LayerCount: 2
Fore
SplineSet
725 997 m 1
 546 997 l 1
 285 1556 l 1
 568 1556 l 1
 725 997 l 1
376 997 m 1
 197 997 l 1
 -64 1556 l 1
 219 1556 l 1
 376 997 l 1
EndSplineSet
EndChar

StartChar: quotedblright
Encoding: 8221 8221 225
Width: 1000
Flags: W
HStem: 997 559<264 286 613 635>
LayerCount: 2
Fore
SplineSet
896 1556 m 1
 635 997 l 1
 456 997 l 1
 613 1556 l 1
 896 1556 l 1
547 1556 m 1
 286 997 l 1
 107 997 l 1
 264 1556 l 1
 547 1556 l 1
EndSplineSet
EndChar

StartChar: quotedblbase
Encoding: 8222 8222 226
Width: 814
Flags: W
HStem: -276 559<149 171 543 565>
LayerCount: 2
Fore
SplineSet
826 283 m 1
 565 -276 l 1
 386 -276 l 1
 543 283 l 1
 826 283 l 1
432 283 m 1
 171 -276 l 1
 -8 -276 l 1
 149 283 l 1
 432 283 l 1
EndSplineSet
EndChar

StartChar: dagger
Encoding: 8224 8224 227
Width: 1118
Flags: W
HStem: 998 200<119 454 664 999>
VStem: 449 220<119 1003 1193 1572>
LayerCount: 2
Fore
SplineSet
999 998 m 1
 664 1003 l 1
 669 119 l 1
 449 119 l 1
 454 1003 l 1
 119 998 l 1
 119 1198 l 1
 454 1193 l 1
 449 1572 l 1
 669 1572 l 1
 664 1193 l 1
 999 1198 l 1
 999 998 l 1
EndSplineSet
EndChar

StartChar: daggerdbl
Encoding: 8225 8225 228
Width: 1118
Flags: W
HStem: 471 200<119 449 669 999> 1008 200<119 449 669 999>
VStem: 449 220<108 476 666 1008 1208 1572>
LayerCount: 2
Fore
SplineSet
999 471 m 1
 669 476 l 1
 674 108 l 1
 444 108 l 1
 449 476 l 1
 119 471 l 1
 119 671 l 1
 449 666 l 1
 449 1008 l 1
 119 1003 l 1
 119 1213 l 1
 449 1208 l 1
 444 1572 l 1
 674 1572 l 1
 669 1208 l 1
 999 1213 l 1
 999 1003 l 1
 669 1008 l 1
 669 666 l 1
 999 671 l 1
 999 471 l 1
EndSplineSet
EndChar

StartChar: bullet
Encoding: 8226 8226 229
Width: 950
Flags: W
HStem: 295 734<289.928 635.949>
VStem: 98 735<488.7 834.413>
LayerCount: 2
Fore
SplineSet
465 1029 m 3
 677 1029 833 859 833 662 c 3
 833 463 676 295 465 295 c 3
 262 295 98 456 98 662 c 3
 98 865 259 1029 465 1029 c 3
EndSplineSet
EndChar

StartChar: ellipsis
Encoding: 8230 8230 230
Width: 1650
Flags: W
HStem: -16 255<161 397 719 955 1277 1513>
VStem: 161 236<-16 239> 719 236<-16 239> 1277 236<-16 239>
CounterMasks: 1 70
LayerCount: 2
Fore
SplineSet
1513 -16 m 1
 1277 -16 l 1
 1277 239 l 1
 1513 239 l 1
 1513 -16 l 1
955 -16 m 1
 719 -16 l 1
 719 239 l 1
 955 239 l 1
 955 -16 l 1
397 -16 m 1
 161 -16 l 1
 161 239 l 1
 397 239 l 1
 397 -16 l 1
EndSplineSet
EndChar

StartChar: perthousand
Encoding: 8240 8240 231
Width: 2848
Flags: W
HStem: -29 200<1444.48 1645.08 2288.48 2489.08> 0 21G<510 721.477> 602 200<354.482 555.08> 686 200<1444.48 1645.08 2288.48 2489.08> 1317 200<354.482 555.08>
VStem: 86 220<849.219 1269.32> 603 220<849.891 1269.99> 1176 220<218.219 638.32> 1693 220<218.891 638.992> 2020 220<218.219 638.32> 2537 220<218.891 638.992>
DStem2: 510 0 711 0 0.464029 0.88582<93.2699 1680.93>
LayerCount: 2
Back
SplineSet
455 1517 m 0x2fe0
 675 1517 823 1386 823 1060 c 0
 823 733 675 602 455 602 c 0
 234 602 86 736 86 1059 c 0
 86 1384 234 1517 455 1517 c 0x2fe0
1491 1489 m 1
 711 0 l 1
 510 0 l 1x4fe0
 1290 1489 l 1
 1491 1489 l 1
1545 886 m 0x9fe0
 1765 886 1913 755 1913 429 c 0
 1913 104 1765 -29 1545 -29 c 0
 1324 -29 1176 104 1176 428 c 0
 1176 753 1324 886 1545 886 c 0x9fe0
455 767 m 0x2fe0
 548 767 613 806 613 1060 c 0
 613 1314 548 1352 455 1352 c 0
 361 1352 296 1310 296 1059 c 0
 296 801 361 767 455 767 c 0x2fe0
1545 136 m 0x9fe0
 1638 136 1703 175 1703 429 c 0
 1703 683 1638 721 1545 721 c 0
 1451 721 1386 679 1386 428 c 0
 1386 170 1451 136 1545 136 c 0x9fe0
2389 886 m 0
 2609 886 2757 755 2757 429 c 0
 2757 104 2609 -29 2389 -29 c 0
 2168 -29 2020 104 2020 428 c 0
 2020 753 2168 886 2389 886 c 0
2389 136 m 0
 2482 136 2547 175 2547 429 c 0
 2547 683 2482 721 2389 721 c 0
 2295 721 2230 679 2230 428 c 0
 2230 170 2295 136 2389 136 c 0
EndSplineSet
Fore
SplineSet
2389 886 m 3x9fe0
 2609 886 2757 756 2757 429 c 3
 2757 103 2609 -29 2389 -29 c 3
 2168 -29 2020 102 2020 428 c 3
 2020 755 2168 886 2389 886 c 3x9fe0
2389 171 m 3
 2472 171 2537 210 2537 429 c 3
 2537 648 2472 686 2389 686 c 3
 2306 686 2240 647 2240 428 c 3
 2240 209 2306 171 2389 171 c 3
1545 886 m 3
 1765 886 1913 756 1913 429 c 3
 1913 103 1765 -29 1545 -29 c 3
 1324 -29 1176 102 1176 428 c 3
 1176 755 1324 886 1545 886 c 3
1545 171 m 3
 1628 171 1693 210 1693 429 c 3
 1693 648 1628 686 1545 686 c 3
 1462 686 1396 647 1396 428 c 3
 1396 209 1462 171 1545 171 c 3
455 1517 m 3
 675 1517 823 1387 823 1060 c 3
 823 734 675 602 455 602 c 3x2fe0
 234 602 86 733 86 1059 c 3
 86 1386 234 1517 455 1517 c 3
1491 1489 m 1
 711 0 l 1
 510 0 l 1x4fe0
 1290 1489 l 1
 1491 1489 l 1
455 802 m 3x2fe0
 538 802 603 841 603 1060 c 3
 603 1279 538 1317 455 1317 c 3
 372 1317 306 1278 306 1059 c 3
 306 840 372 802 455 802 c 3x2fe0
EndSplineSet
EndChar

StartChar: minute
Encoding: 8242 8242 232
Width: 602
Flags: W
HStem: 870 619
VStem: 92 479
LayerCount: 2
Fore
SplineSet
571 1489 m 1
 273 870 l 1
 92 870 l 1
 286 1489 l 1
 571 1489 l 1
EndSplineSet
EndChar

StartChar: second
Encoding: 8243 8243 233
Width: 972
Flags: W
HStem: 870 619
LayerCount: 2
Fore
SplineSet
567 1489 m 1
 269 870 l 1
 92 870 l 1
 286 1489 l 1
 567 1489 l 1
961 1489 m 1
 663 870 l 1
 486 870 l 1
 680 1489 l 1
 961 1489 l 1
EndSplineSet
EndChar

StartChar: guilsinglleft
Encoding: 8249 8249 234
Width: 784
Flags: W
VStem: 107 542
DStem2: 107 704 327 652 0.760345 0.64952<133.501 556.3> 327 652 107 601 0.759652 -0.65033<0 422.798>
LayerCount: 2
Fore
SplineSet
649 137 m 1
 107 601 l 1
 107 704 l 1
 649 1167 l 1
 649 926 l 1
 327 652 l 1
 649 378 l 1
 649 137 l 1
EndSplineSet
EndChar

StartChar: guilsinglright
Encoding: 8250 8250 235
Width: 784
Flags: W
VStem: 135 542
DStem2: 135 1167 135 926 0.760345 -0.64952<156.534 579.334> 135 378 135 137 0.759652 0.65033<0 422.798>
LayerCount: 2
Fore
SplineSet
677 601 m 1
 135 137 l 1
 135 378 l 1
 457 652 l 1
 135 926 l 1
 135 1167 l 1
 677 704 l 1
 677 601 l 1
EndSplineSet
EndChar

StartChar: uni203E
Encoding: 8254 8254 237
Width: 1118
Flags: W
HStem: 1642 163<-48 1118>
LayerCount: 2
Fore
SplineSet
1118 1642 m 1
 -48 1642 l 1
 -48 1805 l 1
 1118 1805 l 1
 1118 1642 l 1
EndSplineSet
EndChar

StartChar: fraction
Encoding: 8260 8260 238
Width: 886
Flags: W
HStem: 0 21G<-47 164.49>
DStem2: -47 0 154 0 0.464496 0.885575<93.3637 1681.39>
LayerCount: 2
Fore
SplineSet
935 1489 m 1
 154 0 l 1
 -47 0 l 1
 734 1489 l 1
 935 1489 l 1
EndSplineSet
EndChar

StartChar: uni207F
Encoding: 8319 8319 239
Width: 1010
Flags: W
HStem: 1319 200<419.604 653.01>
VStem: 109 220<566 1248.92 1406 1488> 686 220<566 1291.11>
LayerCount: 2
Fore
SplineSet
586 1519 m 3
 700 1519 906 1472 906 1147 c 2
 906 566 l 1
 686 566 l 1
 686 1072 l 2
 686 1243 678 1319 541 1319 c 3
 496 1319 433 1310 329 1213 c 1
 329 566 l 1
 109 566 l 1
 109 1488 l 1
 329 1488 l 1
 329 1406 l 1
 447 1514 529 1519 586 1519 c 3
EndSplineSet
EndChar

StartChar: dottedcircle
Encoding: 9676 9676 240
Width: 1247
Flags: W
HStem: -9 153<542.149 680.317> 52 153<836.149 975> 82 153<277.149 416.116> 218 153<1002.15 1141> 233 153<134.149 272.317> 429 153<13.1488 152.116 1080.53 1212.68> 663 153<28.1488 166.317 1063.15 1202.12> 852 153<134.149 273> 875 153<956.149 1094.32> 995 153<323.149 462.116> 1018 153<768.149 907> 1063 153<549.149 688.116>
VStem: 6 153<435.978 575> 21 153<670.149 808.961> 127 153<240.149 378.961 859.149 998.116> 270 153<88.9782 228> 316 153<1001.98 1141> 535 153<-1.8512 136.961 1073.3 1205.66> 761 153<1025.15 1164.12> 829 153<59.1488 198.116> 949 153<882.149 1020.96> 995 153<225.149 364.116> 1070 153<428.978 568 678.276 800.649>
LayerCount: 2
Fore
SplineSet
203 852 m 0x070240
 159 852 127 886 127 928 c 0
 127 970 158 1005 203 1005 c 0
 249 1005 280 970 280 928 c 0
 280 884 245 852 203 852 c 0x070240
392 995 m 0x0640c0
 348 995 316 1029 316 1071 c 0
 316 1113 348 1148 392 1148 c 0
 434 1148 469 1117 469 1071 c 0
 469 1026 434 995 392 995 c 0x0640c0
618 1063 m 0x061040
 574 1063 542 1097 542 1139 c 0
 542 1181 574 1216 618 1216 c 0
 660 1216 695 1185 695 1139 c 0
 695 1094 660 1063 618 1063 c 0x061040
82 429 m 0
 38 429 6 463 6 505 c 0
 6 547 38 582 82 582 c 0
 124 582 159 551 159 505 c 0x060840
 159 460 124 429 82 429 c 0
203 233 m 0x0e0240
 159 233 127 267 127 309 c 0
 127 351 159 386 203 386 c 0
 247 386 280 350 280 309 c 0
 280 265 245 233 203 233 c 0x0e0240
346 82 m 0x260140
 302 82 270 116 270 158 c 0
 270 200 301 235 346 235 c 0
 388 235 423 204 423 158 c 0
 423 113 388 82 346 82 c 0x260140
611 -9 m 0x860040
 567 -9 535 25 535 67 c 0
 535 109 567 144 611 144 c 0
 655 144 688 108 688 67 c 0
 688 23 653 -9 611 -9 c 0x860040
905 52 m 0x460050
 861 52 829 86 829 128 c 0
 829 170 860 205 905 205 c 0
 951 205 982 170 982 128 c 0
 982 84 947 52 905 52 c 0x460050
1071 218 m 0x160044
 1027 218 995 252 995 294 c 0
 995 336 1026 371 1071 371 c 0
 1117 371 1148 336 1148 294 c 0
 1148 250 1113 218 1071 218 c 0x160044
1146 422 m 0
 1102 422 1070 456 1070 498 c 0
 1070 540 1101 575 1146 575 c 0
 1188 575 1223 544 1223 498 c 0x060042
 1223 453 1188 422 1146 422 c 0
1132 663 m 0
 1088 663 1056 697 1056 739 c 0
 1056 781 1088 816 1132 816 c 0
 1174 816 1209 785 1209 739 c 0
 1209 694 1174 663 1132 663 c 0
1025 875 m 0x068048
 981 875 949 909 949 951 c 0
 949 993 981 1028 1025 1028 c 0
 1069 1028 1102 992 1102 951 c 0
 1102 907 1067 875 1025 875 c 0x068048
837 1018 m 0x062060
 793 1018 761 1052 761 1094 c 0
 761 1136 792 1171 837 1171 c 0
 883 1171 914 1136 914 1094 c 0
 914 1050 879 1018 837 1018 c 0x062060
97 663 m 0
 53 663 21 697 21 739 c 0
 21 781 53 816 97 816 c 0
 141 816 174 780 174 739 c 0x060440
 174 695 139 663 97 663 c 0
EndSplineSet
EndChar

StartChar: uni0E10.descless
Encoding: 63232 63232 241
Width: 1100
Flags: W
HStem: -10 200<572.378 679.82> 260 113<231.431 340.982> 541 123<231.928 339.38> 864 200<709.036 935> 949 200<367.252 688.992>
VStem: 111 115<376.273 538.833> 346 220<198.702 289 374.661 535.426> 686 220<195.632 599.023>
LayerCount: 2
Fore
SplineSet
226 457 m 0xe7
 226 401 248 373 286 373 c 0
 324 373 346 401 346 457 c 0
 346 513 324 541 286 541 c 0
 248 541 226 513 226 457 c 0xe7
333 664 m 0
 436 664 566 618 566 433 c 2
 566 263 l 2
 566 214 586 190 626 190 c 0
 666 190 686 213 686 259 c 2
 686 529 l 2
 686 562 671 587 641 603 c 1
 562 636 l 1
 453 672 278 707 37 742 c 1
 85 976 213 1149 506 1149 c 0xef
 705 1149 727 1064 899 1064 c 0
 926 1064 951 1067 974 1072 c 1
 935 872 l 1
 915 867 888 864 860 864 c 0xf7
 722 864 653 949 495 949 c 0xef
 422 949 376 929 357 892 c 1
 699 826 906 764 906 573 c 2
 906 279 l 2
 906 86 813 -10 626 -10 c 0
 439 -10 346 88 346 283 c 2
 346 289 l 1
 326 267 291 260 267 260 c 0
 202 262 111 317 111 440 c 0
 111 603 223 664 333 664 c 0
EndSplineSet
EndChar

StartChar: uni0E48.low
Encoding: 63242 63242 251
Width: 0
Flags: W
HStem: 1309 280<-350 -119>
VStem: -350 231<1309 1589>
AnchorPoint: "AboveBase" -119 1227 mark 0
LayerCount: 2
Fore
SplineSet
-350 1589 m 1
 -119 1589 l 1
 -119 1309 l 1
 -350 1309 l 1
 -350 1589 l 1
EndSplineSet
EndChar

StartChar: uni0E49.low
Encoding: 63243 63243 252
Width: 0
Flags: W
HStem: 1420 88<-716.989 -636.461> 1615 97<-718.367 -613.457>
VStem: -816 97<1508.97 1612.89> -611 125<1508.88 1612.89>
AnchorPoint: "AboveBase" -240 1227 mark 0
LayerCount: 2
Fore
SplineSet
-500 1457 m 1
 -436 1470 -308 1530 -252 1698 c 1
 -70 1698 l 1
 -125 1473 -341 1303 -621 1258 c 0
 -652 1253 -687 1249 -728 1245 c 1
 -728 1352 l 1
 -671 1366 -641 1394 -636 1427 c 1
 -650 1422 -664 1420 -679 1420 c 0
 -762 1420 -816 1488 -816 1572 c 0
 -816 1652 -755 1712 -676 1712 c 0
 -560 1712 -486 1626 -486 1551 c 0
 -486 1515 -490 1483 -500 1457 c 1
-719 1562 m 0
 -719 1528 -699 1508 -665 1508 c 0
 -631 1508 -611 1528 -611 1562 c 0
 -611 1596 -631 1615 -665 1615 c 0
 -699 1615 -719 1596 -719 1562 c 0
EndSplineSet
EndChar

StartChar: uni0E4A.low
Encoding: 63244 63244 253
Width: 0
Flags: W
HStem: 1247 89<-701.995 -545.995> 1416 77<-624.956 -545.969>
VStem: -818 193<1337.96 1505.67> -545 74<1337.27 1414.96>
AnchorPoint: "AboveBase" 0 1227 mark 0
LayerCount: 2
Fore
SplineSet
-585 1336 m 0
 -560 1336 -545 1351 -545 1376 c 0
 -545 1394 -560 1416 -585 1416 c 0
 -610 1416 -625 1401 -625 1376 c 0
 -625 1351 -610 1336 -585 1336 c 0
-311 1733 m 1
 -199 1691 -98 1608 -98 1509 c 0
 -98 1505 -99 1501 -99 1497 c 1
 -1 1748 l 1
 179 1748 l 2
 178 1748 135 1636 50 1411 c 1
 -8 1262 -212 1251 -271 1251 c 1
 -246 1290 -233 1334 -233 1381 c 0
 -233 1480 -284 1538 -311 1555 c 1
 -453 1437 l 1
 -593 1555 l 1
 -622 1544 -656 1511 -659 1465 c 1
 -638 1484 -612 1493 -581 1493 c 0
 -514 1494 -471 1447 -471 1372 c 0
 -471 1296 -531 1247 -623 1247 c 0
 -779 1247 -818 1379 -818 1461 c 0
 -818 1623 -663 1708 -593 1733 c 1
 -453 1615 l 1
 -311 1733 l 1
EndSplineSet
EndChar

StartChar: uni0E4B.low
Encoding: 63245 63245 254
Width: 0
Flags: W
HStem: 1348 174<-470 -339 -167 -44>
VStem: -339 172<1225 1348 1522 1651>
AnchorPoint: "AboveBase" -60 1227 mark 0
LayerCount: 2
Fore
SplineSet
-44 1348 m 1
 -167 1348 l 1
 -167 1225 l 1
 -339 1225 l 1
 -339 1348 l 1
 -470 1348 l 1
 -470 1522 l 1
 -339 1522 l 1
 -339 1651 l 1
 -167 1651 l 1
 -167 1522 l 1
 -44 1522 l 1
 -44 1348 l 1
EndSplineSet
EndChar

StartChar: uni0E4C.low
Encoding: 63246 63246 255
Width: 0
Flags: W
HStem: 1250 112<-568.187 -436.759>
VStem: -708 136<1367.39 1477.52> -432 132<1367.18 1481.07>
AnchorPoint: "AboveBase" -300 1227 mark 0
LayerCount: 2
Fore
SplineSet
-38 1798 m 1
 -92 1651 -282 1550 -370 1547 c 1
 -331 1527 -300 1479 -300 1418 c 0
 -300 1345 -364 1250 -480 1250 c 0
 -614 1250 -708 1327 -708 1434 c 0
 -708 1657 -502 1655 -370 1692 c 0
 -283 1716 -234 1769 -218 1798 c 1
 -38 1798 l 1
-432 1424 m 0
 -432 1459 -462 1486 -502 1486 c 0
 -542 1486 -572 1459 -572 1424 c 0
 -572 1389 -542 1362 -502 1362 c 0
 -462 1362 -432 1389 -432 1424 c 0
EndSplineSet
EndChar

StartChar: uni0E0D.descless
Encoding: 63247 63247 256
Width: 1745
Flags: W
HStem: -10 120<461.892 562.871> 0 200<1135 1360> 280 111<461.801 562.717> 949 200<516.409 823.452>
VStem: 241 220<115.657 279.709 363 557.871> 570 125<113.959 274.117> 915 220<200 849.854> 1360 220<200 1139>
LayerCount: 2
Fore
SplineSet
369 671 m 1xbf
 323 726 256 767 171 792 c 1
 195 912 361 1149 677 1149 c 0
 961 1149 1135 976 1135 673 c 2
 1135 200 l 1
 1360 200 l 1
 1360 1139 l 1
 1580 1139 l 1
 1580 0 l 1
 915 0 l 1x7f
 915 657 l 2
 915 848 836 949 677 949 c 0
 571 949 493 906 443 831 c 1
 517 795 570 739 599 663 c 1
 494 550 461 536 461 376 c 2
 461 363 l 1
 478 382 501 391 532 391 c 1
 592 393 695 343 695 206 c 1
 698 101 628 -10 484 -10 c 0
 282 -10 241 116 241 303 c 2
 241 366 l 2
 241 523 263 560 369 671 c 1xbf
510 280 m 0
 470 280 450 235 450 195 c 0
 450 155 475 110 510 110 c 0xbf
 551 110 570 155 570 195 c 0
 570 235 550 280 510 280 c 0
EndSplineSet
EndChar

StartChar: uniF71B
Encoding: 63259 63259 268
Width: 1000
Flags: W
HStem: 1065 20G<215 830>
VStem: 215 615<61 1085>
LayerCount: 2
Fore
SplineSet
830 1085 m 1
 830 61 l 1
 215 61 l 1
 215 1085 l 1
 830 1085 l 1
EndSplineSet
EndChar

StartChar: uniF71C
Encoding: 63260 63260 269
Width: 700
Flags: W
HStem: -423 269<234 290>
VStem: 97 434
LayerCount: 2
Fore
SplineSet
97 -423 m 1
 234 -154 l 1
 531 -154 l 1
 290 -423 l 1
 97 -423 l 1
EndSplineSet
EndChar

StartChar: uniF71D
Encoding: 63261 63261 270
Width: 800
Flags: W
HStem: -236 211<182 294 508 616> -150 125<294 508>
VStem: 182 112<-236 -150> 508 108<-236 -150>
LayerCount: 2
Fore
SplineSet
616 -236 m 1xb0
 508 -236 l 1xb0
 508 -150 l 1
 294 -150 l 1x70
 294 -236 l 1
 182 -236 l 1
 182 -25 l 1
 616 -25 l 1
 616 -236 l 1xb0
EndSplineSet
EndChar

StartChar: zerowidthnonjoiner
Encoding: 8204 8204 271
Width: 0
Flags: W
LayerCount: 2
Back
SplineSet
36 1289 m 1
 36 -275 l 1
 -36 -275 l 1
 -36 1289 l 1
 36 1289 l 1
EndSplineSet
EndChar

StartChar: ff
Encoding: 64256 64256 274
Width: 1024
Flags: W
HStem: 0 21G<157 377 726 946> 862 200<19 157 377 726 946 1105> 1315 200<430.305 741.171 982.981 1206.41>
VStem: 157 220<0 862 1062 1257.11> 726 220<0 862 1062 1277.94>
LayerCount: 2
Back
SplineSet
1093 1315 m 3
 1007 1315 946 1271 946 1132 c 2
 946 1062 l 1
 1105 1062 l 1
 1105 862 l 1
 946 862 l 1
 946 0 l 1
 726 0 l 1
 726 862 l 1
 588 862 l 1
 588 1062 l 1
 726 1062 l 1
 726 1175 l 2
 726 1447 899 1515 1031 1515 c 3
 1098 1515 1158 1506 1209 1488 c 1
 1209 1288 l 1
 1149 1307 1128 1315 1093 1315 c 3
726 862 m 1
 377 862 l 1
 377 0 l 1
 157 0 l 1
 157 862 l 1
 19 862 l 1
 19 1062 l 1
 157 1062 l 1
 157 1175 l 2
 157 1447 330 1515 592 1515 c 3
 659 1515 837 1506 901 1443 c 1
 901 1243 l 1
 828 1307 689 1315 654 1315 c 3
 438 1315 377 1271 377 1132 c 2
 377 1062 l 1
 726 1062 l 1
 726 862 l 1
EndSplineSet
Fore
SplineSet
377 1132 m 2
 377 1062 l 1
 726 1062 l 1
 726 1175 l 2
 726 1226 732 1270 743 1307 c 1
 703 1314 669 1315 654 1315 c 3
 438 1315 377 1271 377 1132 c 2
861 1470 m 1
 915 1503 976 1515 1031 1515 c 3
 1098 1515 1158 1506 1209 1488 c 1
 1209 1288 l 1
 1149 1307 1128 1315 1093 1315 c 3
 1007 1315 946 1271 946 1132 c 2
 946 1062 l 1
 1105 1062 l 1
 1105 862 l 1
 946 862 l 1
 946 0 l 1
 726 0 l 1
 726 862 l 1
 377 862 l 1
 377 0 l 1
 157 0 l 1
 157 862 l 1
 19 862 l 1
 19 1062 l 1
 157 1062 l 1
 157 1175 l 2
 157 1447 330 1515 592 1515 c 3
 648 1515 781 1509 861 1470 c 1
EndSplineSet
LCarets2: 1 0 
Ligature2: "'liga' Standard Ligatures lookup 0" f f
EndChar

StartChar: fi
Encoding: 64257 64257 275
Width: 1024
Flags: W
HStem: 0 21G<157 377 685 905> 862 200<19 157 377 685> 1315 200<430.305 858.706>
VStem: 157 220<0 862 1062 1257.11> 685 220<0 862>
LayerCount: 2
Back
SplineSet
524 1315 m 3xdc
 438 1315 377 1271 377 1132 c 2
 377 1062 l 1
 905 1062 l 1
 905 0 l 1
 685 0 l 1
 685 862 l 1
 377 862 l 1
 377 0 l 1
 157 0 l 1
 157 862 l 1
 19 862 l 1
 19 1062 l 1
 157 1062 l 1
 157 1175 l 2
 157 1447 330 1515 462 1515 c 3
 529 1515 589 1506 640 1488 c 1
 640 1288 l 1
 580 1307 559 1315 524 1315 c 3xdc
690 1220 m 1xec
 690 1466 l 1
 901 1466 l 1
 901 1220 l 1
 690 1220 l 1xec
EndSplineSet
Fore
SplineSet
654 1315 m 3
 438 1315 377 1271 377 1132 c 2
 377 1062 l 1
 905 1062 l 1
 905 0 l 1
 685 0 l 1
 685 862 l 1
 377 862 l 1
 377 0 l 1
 157 0 l 1
 157 862 l 1
 19 862 l 1
 19 1062 l 1
 157 1062 l 1
 157 1175 l 2
 157 1447 330 1515 592 1515 c 3
 659 1515 837 1506 901 1443 c 1
 901 1243 l 1
 828 1307 689 1315 654 1315 c 3
EndSplineSet
LCarets2: 1 0 
Ligature2: "'liga' Standard Ligatures lookup 0" f i
EndChar

StartChar: fl
Encoding: 64258 64258 276
Width: 1024
Flags: W
HStem: 0 21G<157 377 681 901> 862 200<19 157 377 536> 1315 200<433.693 680.125>
VStem: 157 220<0 862 1062 1257.11> 681 220<0 1314.54>
LayerCount: 2
Back
SplineSet
681 0 m 1
 681 1466 l 1
 901 1466 l 1
 901 0 l 1
 681 0 l 1
654 1315 m 3
 438 1315 377 1271 377 1132 c 2
 377 1062 l 1
 536 1062 l 1
 536 862 l 1
 377 862 l 1
 377 0 l 1
 157 0 l 1
 157 862 l 1
 19 862 l 1
 19 1062 l 1
 157 1062 l 1
 157 1175 l 2
 157 1447 330 1515 592 1515 c 3
 659 1515 837 1506 901 1466 c 1
 901 1266 l 1
 828 1307 689 1315 654 1315 c 3
EndSplineSet
Fore
SplineSet
377 1132 m 2
 377 1062 l 1
 536 1062 l 1
 536 862 l 1
 377 862 l 1
 377 0 l 1
 157 0 l 1
 157 862 l 1
 19 862 l 1
 19 1062 l 1
 157 1062 l 1
 157 1175 l 2
 157 1447 330 1515 592 1515 c 3
 659 1515 837 1506 901 1466 c 1
 901 0 l 1
 681 0 l 1
 681 1312 l 1
 655 1314 632 1315 610 1315 c 3
 441 1315 377 1254 377 1132 c 2
EndSplineSet
LCarets2: 1 0 
Ligature2: "'liga' Standard Ligatures lookup 0" f l
EndChar

StartChar: ffi
Encoding: 64259 64259 277
Width: 1593
Flags: W
HStem: 0 21G<157 377 726 946 1254 1474> 862 200<19 157 377 726 946 1254> 1315 200<430.305 740.746 996.317 1427.71>
VStem: 157 220<0 862 1062 1257.11> 726 220<0 862 1062 1264.16> 1254 220<0 862>
LayerCount: 2
Back
SplineSet
377 1132 m 2
 377 1062 l 1
 726 1062 l 1
 726 1175 l 2
 726 1447 899 1515 1161 1515 c 0
 1228 1515 1406 1506 1470 1443 c 1
 1470 1243 l 1
 1397 1307 1258 1315 1223 1315 c 0
 1007 1315 946 1271 946 1132 c 2
 946 1062 l 1
 1474 1062 l 1
 1474 0 l 1
 1254 0 l 1
 1254 862 l 1
 946 862 l 1
 946 0 l 1
 726 0 l 1
 726 862 l 1
 377 862 l 1
 377 0 l 1
 157 0 l 1
 157 862 l 1
 19 862 l 1
 19 1062 l 1
 157 1062 l 1
 157 1175 l 2
 157 1447 330 1515 592 1515 c 0
 659 1515 837 1506 901 1443 c 1
 901 1243 l 1
 828 1307 689 1315 654 1315 c 0
 438 1315 377 1271 377 1132 c 2
EndSplineSet
Fore
SplineSet
377 1132 m 2
 377 1062 l 1
 726 1062 l 1
 726 1175 l 2
 726 1226 732 1270 743 1307 c 1
 703 1314 669 1315 654 1315 c 3
 438 1315 377 1271 377 1132 c 2
873 1464 m 1
 947 1502 1045 1515 1161 1515 c 3
 1228 1515 1406 1506 1470 1443 c 1
 1470 1243 l 1
 1397 1307 1258 1315 1223 1315 c 3
 1007 1315 946 1271 946 1132 c 2
 946 1062 l 1
 1474 1062 l 1
 1474 0 l 1
 1254 0 l 1
 1254 862 l 1
 946 862 l 1
 946 0 l 1
 726 0 l 1
 726 862 l 1
 377 862 l 1
 377 0 l 1
 157 0 l 1
 157 862 l 1
 19 862 l 1
 19 1062 l 1
 157 1062 l 1
 157 1175 l 2
 157 1447 330 1515 592 1515 c 3
 651 1515 795 1509 873 1464 c 1
EndSplineSet
LCarets2: 2 0 0 
Ligature2: "'liga' Standard Ligatures lookup 0" ff i
Ligature2: "'liga' Standard Ligatures lookup 0" f f i
EndChar

StartChar: ffl
Encoding: 64260 64260 278
Width: 1593
Flags: W
HStem: 0 21G<157 377 726 946 1250 1470> 862 200<19 157 377 726 946 1105> 1315 200<430.305 740.746 1001.96 1249.12>
VStem: 157 220<0 862 1062 1257.11> 726 220<0 862 1062 1260.27> 1250 220<0 1314.54>
LayerCount: 2
Back
SplineSet
1250 0 m 1
 1250 1466 l 1
 1470 1466 l 1
 1470 0 l 1
 1250 0 l 1
1223 1315 m 3
 1007 1315 946 1271 946 1132 c 2
 946 1062 l 1
 1105 1062 l 1
 1105 862 l 1
 946 862 l 1
 946 0 l 1
 726 0 l 1
 726 862 l 1
 588 862 l 1
 588 1062 l 1
 726 1062 l 1
 726 1175 l 2
 726 1447 899 1515 1161 1515 c 3
 1228 1515 1406 1506 1470 1466 c 1
 1470 1266 l 1
 1397 1307 1258 1315 1223 1315 c 3
726 862 m 1
 377 862 l 1
 377 0 l 1
 157 0 l 1
 157 862 l 1
 19 862 l 1
 19 1062 l 1
 157 1062 l 1
 157 1175 l 2
 157 1447 330 1515 592 1515 c 3
 659 1515 837 1506 901 1443 c 1
 901 1243 l 1
 828 1307 689 1315 654 1315 c 3
 438 1315 377 1271 377 1132 c 2
 377 1062 l 1
 726 1062 l 1
 726 862 l 1
EndSplineSet
Fore
SplineSet
946 1132 m 2
 946 1062 l 1
 1105 1062 l 1
 1105 862 l 1
 946 862 l 1
 946 0 l 1
 726 0 l 1
 726 862 l 1
 377 862 l 1
 377 0 l 1
 157 0 l 1
 157 862 l 1
 19 862 l 1
 19 1062 l 1
 157 1062 l 1
 157 1175 l 2
 157 1447 330 1515 592 1515 c 3
 651 1515 795 1509 873 1464 c 1
 947 1502 1045 1515 1161 1515 c 3
 1228 1515 1406 1506 1470 1466 c 1
 1470 0 l 1
 1250 0 l 1
 1250 1312 l 1
 1224 1314 1201 1315 1179 1315 c 3
 1010 1315 946 1254 946 1132 c 2
743 1307 m 1
 703 1314 669 1315 654 1315 c 3
 438 1315 377 1271 377 1132 c 2
 377 1062 l 1
 726 1062 l 1
 726 1175 l 2
 726 1226 732 1270 743 1307 c 1
EndSplineSet
LCarets2: 2 0 0 
Ligature2: "'liga' Standard Ligatures lookup 0" ff l
Ligature2: "'liga' Standard Ligatures lookup 0" f f l
EndChar

StartChar: dotlessi
Encoding: 305 305 279
Width: 455
Flags: W
HStem: 0 21G<116 336> 1042 20G<116 336>
VStem: 116 220<0 1062>
LayerCount: 2
Fore
SplineSet
116 0 m 1
 116 1062 l 1
 336 1062 l 1
 336 0 l 1
 116 0 l 1
EndSplineSet
EndChar

StartChar: dotlessj
Encoding: 567 567 280
Width: 455
Flags: W
HStem: -428 200<-92.032 79.6707> 1042 20G<120 340>
VStem: 120 220<-185.337 1062>
LayerCount: 2
Fore
SplineSet
340 -58 m 2
 340 -336 230 -428 65 -428 c 3
 8 -428 -45 -423 -94 -412 c 1
 -94 -220 l 1
 -59 -225 -30 -228 -21 -228 c 3
 64 -228 120 -176 120 -20 c 2
 120 1062 l 1
 340 1062 l 1
 340 -58 l 2
EndSplineSet
EndChar

StartChar: ae
Encoding: 230 230 281
Width: 1839
Flags: W
HStem: -13 200<335.481 677.831 1125.38 1449.74> 475 200<1007 1529> 495 200<607.963 775> 895 200<405.793 715.877 1111.65 1439.84>
VStem: 74 220<226.365 390.79> 775 226<321.018 475> 1529 226<265.529 333 675 793.967>
LayerCount: 2
Back
SplineSet
995 445 m 2xbe
 995 173 762 -13 437 -13 c 3
 149 -13 74 164 74 289 c 3
 74 499 230 600 492 633 c 0
 600 646 695 666 776 695 c 1
 770 836 707 895 558 895 c 3
 422 895 342 818 318 738 c 1
 105 768 l 1
 152 991 304 1095 584 1095 c 3
 864 1095 995 1017 995 694 c 2
 995 445 l 2xbe
294 308 m 3
 294 212 412 187 487 187 c 3
 675 187 775 262 775 444 c 2
 775 495 l 1
 554 414 294 469 294 308 c 3
1282 187 m 3
 1475 187 1512 293 1520 333 c 1
 1748 333 l 1
 1706 118 1539 -13 1281 -13 c 3
 949 -13 775 188 775 525 c 3
 775 870 950 1095 1271 1095 c 3
 1576 1095 1755 878 1755 539 c 3
 1755 521 1754 493 1753 475 c 1
 1001 475 l 1xde
 1012 313 1109 187 1282 187 c 3
1529 675 m 1
 1515 818 1433 895 1272 895 c 3
 1115 895 1015 795 1007 675 c 1
 1529 675 l 1
EndSplineSet
Fore
SplineSet
1529 675 m 1xde
 1515 818 1433 895 1272 895 c 3
 1115 895 1015 795 1007 675 c 1
 1529 675 l 1xde
1282 187 m 3
 1475 187 1512 293 1520 333 c 1
 1748 333 l 1
 1706 118 1539 -13 1281 -13 c 3
 1100 -13 967 46 882 155 c 1
 783 49 625 -13 437 -13 c 3
 149 -13 74 164 74 289 c 3
 74 499 230 600 492 633 c 0
 600 646 695 666 776 695 c 1xbe
 770 836 707 895 558 895 c 3
 422 895 342 818 318 738 c 1
 105 768 l 1
 152 991 304 1095 584 1095 c 3
 754 1095 869 1067 933 972 c 1
 1015 1051 1129 1095 1271 1095 c 3
 1576 1095 1755 878 1755 539 c 3
 1755 521 1754 493 1753 475 c 1
 1001 475 l 1
 1012 313 1109 187 1282 187 c 3
294 308 m 3
 294 212 412 187 487 187 c 3
 675 187 775 262 775 444 c 2
 775 495 l 1
 554 414 294 469 294 308 c 3
EndSplineSet
EndChar

StartChar: oe
Encoding: 339 339 282
Width: 1890
Flags: W
HStem: -13 200<410.297 726.289 1194.06 1517.74> 475 200<1075 1597> 895 200<410.297 724.576 1179.3 1507.84>
VStem: 68 220<316.445 765.555> 843 226<321.433 475 675 723> 1597 226<265.529 333 675 793.967>
LayerCount: 2
Back
SplineSet
1350 187 m 3
 1543 187 1580 293 1588 333 c 1
 1816 333 l 1
 1774 118 1607 -13 1349 -13 c 3
 1017 -13 843 188 843 525 c 3
 843 870 1018 1095 1339 1095 c 3
 1644 1095 1823 878 1823 539 c 3
 1823 521 1822 493 1821 475 c 1
 1069 475 l 1
 1080 313 1177 187 1350 187 c 3
1597 675 m 1
 1583 818 1501 895 1340 895 c 3
 1183 895 1083 795 1075 675 c 1
 1597 675 l 1
566 -13 m 3
 244 -13 68 187 68 541 c 3
 68 895 244 1095 566 1095 c 3
 888 1095 1063 895 1063 541 c 3
 1063 187 888 -13 566 -13 c 3
566 895 m 3
 340 895 288 723 288 541 c 3
 288 359 340 187 566 187 c 3
 792 187 843 359 843 541 c 3
 843 723 792 895 566 895 c 3
EndSplineSet
Fore
SplineSet
566 895 m 3
 340 895 288 723 288 541 c 3
 288 359 340 187 566 187 c 3
 792 187 843 359 843 541 c 3
 843 723 792 895 566 895 c 3
566 -13 m 3
 244 -13 68 187 68 541 c 3
 68 895 244 1095 566 1095 c 3
 742 1095 874 1035 958 923 c 1
 1042 1032 1170 1095 1339 1095 c 3
 1644 1095 1823 878 1823 539 c 0
 1823 521 1822 493 1821 475 c 1
 1069 475 l 1
 1080 313 1177 187 1350 187 c 3
 1543 187 1580 293 1588 333 c 1
 1816 333 l 1
 1774 118 1607 -13 1349 -13 c 3
 1170 -13 1037 45 952 152 c 1
 868 44 738 -13 566 -13 c 3
1597 675 m 1
 1583 818 1501 895 1340 895 c 3
 1183 895 1083 795 1075 675 c 1
 1597 675 l 1
EndSplineSet
EndChar

StartChar: OE
Encoding: 338 338 283
Width: 2158
Flags: W
HStem: -13 220<557.243 879.265 1324 2014> 626 220<1324 1838> 1230 220<1324 2014> 1262 220<553.078 872.143>
VStem: 104 240<463.822 997.643> 1084 240<457.977 626 846 997.726>
LayerCount: 2
Back
SplineSet
1084 0 m 1xec
 1084 1450 l 1
 2014 1450 l 1
 2014 1230 l 1
 1324 1230 l 1
 1324 846 l 1
 1838 846 l 1
 1838 626 l 1
 1324 626 l 1
 1324 219 l 1
 2014 219 l 1
 2014 0 l 1
 1084 0 l 1xec
714 -13 m 3
 376 -13 104 286 104 714 c 3
 104 1183 355 1482 715 1482 c 3xdc
 1061 1482 1324 1184 1324 731 c 3
 1324 291 1068 -13 714 -13 c 3
717 1262 m 3
 441 1262 344 995 344 712 c 3
 344 401 509 207 714 207 c 3
 990 207 1084 487 1084 731 c 3
 1084 1055 927 1262 717 1262 c 3
EndSplineSet
Fore
SplineSet
717 1262 m 3xdc
 441 1262 344 995 344 712 c 3
 344 401 509 207 714 207 c 3
 990 207 1084 487 1084 731 c 3
 1084 1055 927 1262 717 1262 c 3xdc
714 -13 m 3
 376 -13 104 286 104 714 c 3
 104 1183 355 1482 715 1482 c 3xdc
 856 1482 983 1433 1084 1344 c 1
 1084 1450 l 1
 2014 1450 l 1
 2014 1230 l 1
 1324 1230 l 1xec
 1324 846 l 1
 1838 846 l 1
 1838 626 l 1
 1324 626 l 1
 1324 219 l 1
 2014 219 l 1
 2014 0 l 1
 1084 0 l 1
 1084 124 l 1
 983 36 857 -13 714 -13 c 3
EndSplineSet
EndChar

StartChar: AE
Encoding: 198 198 284
Width: 1951
Flags: W
HStem: 0 220<1117 1807> 443 220<575 877> 626 220<1117 1631> 1230 220<839 877 1117 1807>
VStem: 877 240<220 443 846 1230>
DStem2: -2 0 273 0 0.415315 0.909678<114.212 602.338 842.753 1468.18>
LayerCount: 2
Back
SplineSet
877 0 m 1xb8
 877 1450 l 1
 1807 1450 l 1
 1807 1230 l 1
 1117 1230 l 1
 1117 846 l 1xb8
 1631 846 l 1
 1631 626 l 1
 1117 626 l 1xb4
 1117 220 l 1
 1807 220 l 1
 1807 0 l 1
 877 0 l 1xb8
1011 1230 m 1
 839 1230 l 1
 575 663 l 1
 973 663 l 1
 956 443 l 1
 478 443 l 1xd4
 273 0 l 1
 -2 0 l 1
 660 1450 l 1
 1027 1450 l 1
 1011 1230 l 1
EndSplineSet
Fore
SplineSet
660 1450 m 1xd8
 1807 1450 l 1
 1807 1230 l 1
 1117 1230 l 1
 1117 846 l 1
 1631 846 l 1
 1631 626 l 1
 1117 626 l 1xb8
 1117 220 l 1
 1807 220 l 1
 1807 0 l 1
 877 0 l 1
 877 443 l 1
 478 443 l 1
 273 0 l 1
 -2 0 l 1
 660 1450 l 1xd8
877 1230 m 1
 839 1230 l 1
 575 663 l 1
 877 663 l 1xd8
 877 1230 l 1
EndSplineSet
EndChar

StartChar: questiondown
Encoding: 191 191 285
Width: 1139
Flags: W
HStem: 0 220<414.537 675.361> 1123 20G<453 693> 1269 235<431 705>
VStem: 90 240<297.092 558.879> 431 274<1269 1504> 453 240<945.86 1143> 796 240<344.463 458>
LayerCount: 2
Fore
SplineSet
561 0 m 3xf6
 291 0 90 164 90 420 c 3
 90 480 103 580 231 722 c 0
 327 828 453 924 453 1143 c 1
 693 1143 l 1
 693 889 592 790 496 701 c 0
 342 558 330 473 330 416 c 3
 330 261 484 220 558 220 c 3
 685 220 796 371 796 458 c 1
 1036 458 l 1
 1036 204 833 0 561 0 c 3xf6
705 1504 m 1xfa
 705 1269 l 1
 431 1269 l 1
 431 1504 l 1
 705 1504 l 1xfa
EndSplineSet
EndChar

StartChar: guillemotright
Encoding: 187 187 286
Width: 1174
Flags: W
HStem: 1128 20G<87 110.318>
DStem2: 87 1148 87 918 0.75905 -0.651032<149.737 556.699> 87 386 87 156 0.758329 0.651872<0 406.963> 517 1177 517 939 0.753437 -0.65752<156.49 588.558> 517 365 517 127 0.752749 0.658308<0 432.072>
LayerCount: 2
Fore
SplineSet
87 156 m 1
 87 386 l 1
 395 652 l 1
 87 918 l 1
 87 1148 l 1
 607 702 l 1
 607 603 l 1
 87 156 l 1
517 127 m 1
 517 365 l 1
 840 652 l 1
 517 939 l 1
 517 1177 l 1
 1059 704 l 1
 1059 601 l 1
 517 127 l 1
EndSplineSet
EndChar

StartChar: trademark
Encoding: 8482 8482 287
Width: 1820
Flags: W
HStem: 605 845<288 508 846 1051 1459 1664> 1250 200<48 288 508 749>
VStem: 288 220<605 1250> 846 220<605 888> 1444 220<605 888>
LayerCount: 2
Fore
SplineSet
1331 605 m 1xb8
 1179 605 l 1
 1066 888 l 1
 1066 605 l 1
 846 605 l 1
 846 1450 l 1
 1051 1450 l 1
 1255 930 l 1
 1459 1450 l 1
 1664 1450 l 1
 1664 605 l 1
 1444 605 l 1
 1444 888 l 1
 1331 605 l 1xb8
288 605 m 1
 288 1250 l 1
 48 1250 l 1
 48 1450 l 1
 749 1450 l 1
 749 1250 l 1
 508 1250 l 1x78
 508 605 l 1
 288 605 l 1
EndSplineSet
EndChar

StartChar: germandbls
Encoding: 223 223 288
Width: 1238
Flags: W
HStem: -13 220<666.847 890.993> 1262 220<447.809 695.718>
VStem: 156 240<0 1207.73> 582 240<761.018 928.027> 712 240<1018.76 1242.43> 909 240<225.252 400.591>
LayerCount: 2
Fore
SplineSet
570 1262 m 3xe8
 431 1262 396 1191 396 957 c 2
 396 0 l 1
 156 0 l 1
 156 957 l 2
 156 1300 254 1482 573 1482 c 3
 784 1482 952 1383 952 1180 c 3xe8
 952 1014 822 914 822 843 c 3
 822 733 1149 564 1149 326 c 3
 1149 123 1013 -13 818 -13 c 3
 672 -13 566 33 495 161 c 1
 690 290 l 1
 718 237 753 207 794 207 c 3
 879 207 909 251 909 314 c 3
 909 428 582 626 582 782 c 3xf4
 582 886 712 1063 712 1158 c 3
 712 1227 669 1262 570 1262 c 3xe8
EndSplineSet
EndChar

StartChar: Thorn
Encoding: 222 222 289
Width: 1366
Flags: W
HStem: 0 21G<158 398> 290 220<398 931.062> 940 220<403 940.286> 1430 20G<158 403>
VStem: 158 240<0 290 510 940 1160 1450> 1037 240<600.087 858.144>
LayerCount: 2
Fore
SplineSet
1277 736 m 3
 1277 379 1006 290 728 290 c 2
 398 290 l 1
 398 0 l 1
 158 0 l 1
 158 1450 l 1
 403 1450 l 1
 403 1160 l 1
 711 1160 l 2
 1147 1160 1277 990 1277 736 c 3
1037 730 m 3
 1037 897 899 940 687 940 c 2
 398 940 l 1
 398 510 l 1
 691 510 l 2
 959 510 1037 601 1037 730 c 3
EndSplineSet
EndChar

StartChar: thorn
Encoding: 254 254 290
Width: 1139
Flags: W
HStem: -13 200<455.966 705.849> 895 200<448.203 701.237> 1446 20G<120 340>
VStem: 120 220<-390 86 326.859 765.841 999 1466> 821 220<322.673 761.149>
LayerCount: 2
Fore
SplineSet
1041 532 m 3
 1041 213 876 -13 591 -13 c 3
 504 -13 418 22 340 86 c 1
 340 -390 l 1
 120 -390 l 1
 120 1466 l 1
 340 1466 l 1
 340 999 l 1
 400 1048 477 1095 582 1095 c 3
 881 1095 1041 860 1041 532 c 3
567 895 m 3
 482 895 340 832 340 537 c 3
 340 342 434 187 574 187 c 3
 666 187 821 244 821 544 c 3
 821 761 728 895 567 895 c 3
EndSplineSet
EndChar

StartChar: Eth
Encoding: 208 208 291
Width: 1479
Flags: W
HStem: 0 220<408 882.346> 616 220<18 168 408 718> 1230 220<408 887.357>
VStem: 168 240<220 616 836 1230> 1140 240<489.272 979.137>
LayerCount: 2
Back
SplineSet
18 616 m 25
 18 836 l 25
 718 836 l 25
 718 616 l 25
 18 616 l 25
1380 733 m 3
 1380 147 1038 0 697 0 c 2
 168 0 l 1
 168 1450 l 1
 673 1450 l 2
 1239 1450 1380 1125 1380 733 c 3
675 220 m 2
 969 220 1140 424 1140 736 c 3
 1140 1053 970 1230 670 1230 c 2
 408 1230 l 1
 408 220 l 1
 675 220 l 2
EndSplineSet
Fore
SplineSet
675 220 m 2
 969 220 1140 424 1140 736 c 3
 1140 1053 970 1230 670 1230 c 2
 408 1230 l 1
 408 836 l 1
 718 836 l 1
 718 616 l 1
 408 616 l 1
 408 220 l 1
 675 220 l 2
1380 733 m 3
 1380 147 1038 0 697 0 c 2
 168 0 l 1
 168 616 l 1
 18 616 l 1
 18 836 l 1
 168 836 l 1
 168 1450 l 1
 673 1450 l 2
 1239 1450 1380 1125 1380 733 c 3
EndSplineSet
EndChar

StartChar: eth
Encoding: 240 240 292
Width: 1238
Flags: W
HStem: -13 200<471.378 767.323> 895 200<476.89 696.761> 1082 21G<364.323 414.476> 1434 20G<329 644 868.864 918.571>
VStem: 118 220<338.445 739.706> 911 220<346.706 721.592>
DStem2: 550 1281 629 1208 0.90145 0.432882<-244.799 0 238.706 394.849>
LayerCount: 2
Fore
SplineSet
784 983 m 1xdc
 727 1072 769 1015 629 1208 c 1
 374 1082 l 1xbc
 329 1175 l 1
 550 1281 l 1
 485 1340 408 1397 329 1454 c 1
 619 1454 l 1
 729 1366 l 1
 910 1454 l 1
 952 1356 l 1
 810 1291 l 1
 1046 1051 1131 814 1131 556 c 3
 1131 213 911 -13 619 -13 c 3
 341 -13 118 213 118 544 c 3
 118 839 304 1095 544 1095 c 3
 637 1095 709 1057 784 983 c 1xdc
619 895 m 3xdc
 429 895 338 717 338 540 c 3
 338 406 390 187 623 187 c 3
 809 187 911 355 911 530 c 3
 911 701 809 895 619 895 c 3xdc
EndSplineSet
EndChar

StartChar: Oslash
Encoding: 216 216 293
Width: 1593
Flags: W
HStem: -13 220<584.822 1012.23> 1262 220<588.05 1014.88>
VStem: 104 240<461.413 997.201> 1256 240<474.886 995.582>
DStem2: 71 41 211 -81 0.665175 0.746687<2.02873 267.029 506.412 1485.89 1744.55 1987.45>
LayerCount: 2
Back
SplineSet
71 41 m 25
 1393 1525 l 25
 1533 1403 l 25
 211 -81 l 25
 71 41 l 25
800 -13 m 3
 376 -13 104 286 104 714 c 3
 104 1183 355 1482 801 1482 c 3
 1233 1482 1496 1184 1496 731 c 3
 1496 291 1240 -13 800 -13 c 3
803 1262 m 3
 435 1262 344 993 344 712 c 3
 344 401 503 207 800 207 c 3
 1166 207 1256 487 1256 731 c 3
 1256 1053 1103 1262 803 1262 c 3
EndSplineSet
Fore
SplineSet
803 1262 m 3
 435 1262 344 993 344 712 c 3
 344 597 366 498 408 419 c 1
 1082 1176 l 1
 1011 1232 918 1262 803 1262 c 3
383 112 m 1
 211 -81 l 1
 71 41 l 1
 250 241 l 1
 156 365 104 527 104 714 c 3
 104 1183 355 1482 801 1482 c 3
 975 1482 1121 1434 1234 1347 c 1
 1393 1525 l 1
 1533 1403 l 1
 1362 1211 l 1
 1449 1086 1496 922 1496 731 c 3
 1496 291 1240 -13 800 -13 c 3
 636 -13 495 32 383 112 c 1
532 280 m 1
 602 233 692 207 800 207 c 3
 1166 207 1256 487 1256 731 c 3
 1256 845 1236 945 1198 1027 c 1
 532 280 l 1
EndSplineSet
EndChar

StartChar: oslash
Encoding: 248 248 294
Width: 1139
Flags: W
HStem: -13 200<408.11 721.558> 895 200<410.297 728.341>
VStem: 68 220<350.918 765.555> 843 220<316.445 708.484>
DStem2: 35 22 145 -71 0.654772 0.755826<1.73313 194.125 431.045 1036.07 1289.15 1440.55>
LayerCount: 2
Back
SplineSet
35 22 m 25
 978 1111 l 25
 1091 1021 l 25
 145 -71 l 25
 35 22 l 25
566 -13 m 3
 244 -13 68 187 68 541 c 3
 68 895 244 1095 566 1095 c 3
 888 1095 1063 895 1063 541 c 3
 1063 187 888 -13 566 -13 c 3
566 895 m 3
 340 895 288 723 288 541 c 3
 288 359 340 187 566 187 c 3
 792 187 843 359 843 541 c 3
 843 723 792 895 566 895 c 3
EndSplineSet
Fore
SplineSet
566 895 m 0
 340 895 288 723 288 541 c 0
 288 472 296 405 317 348 c 1
 743 840 l 1
 702 875 644 895 566 895 c 0
266 69 m 1
 145 -71 l 1
 35 22 l 1
 165 172 l 1
 101 264 68 388 68 541 c 0
 68 895 244 1095 566 1095 c 0
 696 1095 802 1062 882 1000 c 1
 978 1111 l 1
 1091 1021 l 1
 979 892 l 1
 1034 802 1063 684 1063 541 c 0
 1063 187 888 -13 566 -13 c 0
 445 -13 344 15 266 69 c 1
405 230 m 1
 445 203 498 187 566 187 c 0
 792 187 843 359 843 541 c 0
 843 601 837 659 822 711 c 1
 405 230 l 1
EndSplineSet
EndChar

StartChar: Ccedilla
Encoding: 199 199 295
Width: 1479
Flags: W
HStem: -428 200<404.633 661.082> -400 206<388 552.751> -6 213<613.853 681 901 964.733> 1262 220<591.647 984.166>
VStem: 102 240<505.637 991.349> 684 220<-203.061 -6.21945> 1158 240<367.89 480>
LayerCount: 2
Back
SplineSet
788 207 m 3
 967 207 1139 328 1158 480 c 1
 1398 480 l 1
 1327 201 1144 -13 791 -13 c 3
 356 -13 102 276 102 745 c 3
 102 1182 379 1482 794 1482 c 3
 1100 1482 1303 1304 1373 1050 c 1
 1133 1050 l 1
 1091 1182 965 1262 790 1262 c 3
 507 1262 342 1051 342 746 c 3
 342 438 528 207 788 207 c 3
416 -194 m 1x60
 460 -214 507 -228 555 -228 c 3
 641 -228 684 -190 684 -96 c 3
 684 -51 682 -40 679 47 c 1
 897 47 l 1
 900 11 904 -44 904 -78 c 3
 904 -354 712 -428 581 -428 c 3xa0
 543 -428 456 -420 388 -400 c 1
 388 -194 l 1
 416 -194 l 1x60
EndSplineSet
Fore
SplineSet
416 -194 m 1x7e
 460 -214 507 -228 555 -228 c 3
 641 -228 684 -190 684 -96 c 3
 684 -62 683 -47 681 -6 c 1
 313 39 102 317 102 745 c 3
 102 1182 379 1482 794 1482 c 3
 1100 1482 1303 1304 1373 1050 c 1
 1133 1050 l 1
 1091 1182 965 1262 790 1262 c 3
 507 1262 342 1051 342 746 c 3
 342 438 528 207 788 207 c 3
 967 207 1139 328 1158 480 c 1
 1398 480 l 1
 1335 232 1183 35 901 -5 c 1
 903 -31 904 -58 904 -78 c 3
 904 -354 712 -428 581 -428 c 3xbe
 543 -428 456 -420 388 -400 c 1
 388 -194 l 1
 416 -194 l 1x7e
EndSplineSet
EndChar

StartChar: ccedilla
Encoding: 231 231 296
Width: 1024
Flags: W
HStem: -428 200<163.633 420.082> -400 206<147 311.751> 895 200<425.848 702.462>
VStem: 80 220<324.304 750.524> 443 220<-204.71 -3.69967> 785 220<262.858 403 696 809.7>
LayerCount: 2
Back
SplineSet
175 -194 m 1x7e
 219 -214 266 -228 314 -228 c 3
 400 -228 443 -190 443 -96 c 3
 443 -51 441 -40 438 47 c 1
 656 47 l 1
 659 11 663 -44 663 -78 c 3
 663 -354 471 -428 340 -428 c 3xbe
 302 -428 215 -420 147 -400 c 1
 147 -194 l 1
 175 -194 l 1x7e
561 187 m 3
 701 187 782 256 785 403 c 1
 1005 403 l 1
 994 62 740 -13 563 -13 c 3
 271 -13 80 201 80 530 c 3
 80 867 245 1095 564 1095 c 3
 825 1095 1003 929 1003 696 c 1
 785 696 l 1
 783 814 682 895 571 895 c 3
 358 895 300 692 300 535 c 3
 300 334 386 187 561 187 c 3
EndSplineSet
Fore
SplineSet
561 187 m 3xbc
 701 187 782 256 785 403 c 1
 1005 403 l 1
 996 121 821 21 660 -5 c 1
 662 -31 663 -58 663 -78 c 3
 663 -354 471 -428 340 -428 c 3xbc
 302 -428 215 -420 147 -400 c 1
 147 -194 l 1
 175 -194 l 1x7c
 219 -214 266 -228 314 -228 c 3
 400 -228 443 -190 443 -96 c 3
 443 -61 442 -46 440 1 c 1
 219 53 80 250 80 530 c 3
 80 867 245 1095 564 1095 c 3
 825 1095 1003 929 1003 696 c 1
 785 696 l 1
 783 814 682 895 571 895 c 3
 358 895 300 692 300 535 c 3
 300 334 386 187 561 187 c 3xbc
EndSplineSet
EndChar

StartChar: multiply
Encoding: 215 215 297
Width: 1184
Flags: W
DStem2: 286 1194 116 1023 0.707107 -0.707107<0.707108 433.456 675.287 1108.04> 116 410 286 240 0.706655 0.707558<0 433.302 674.58 1107.88>
LayerCount: 2
Fore
SplineSet
116 1023 m 1
 286 1194 l 1
 593 887 l 1
 899 1194 l 1
 1070 1023 l 1
 763 717 l 1
 1070 410 l 1
 899 240 l 1
 593 546 l 1
 286 240 l 1
 116 410 l 1
 422 717 l 1
 116 1023 l 1
EndSplineSet
EndChar

StartChar: divide
Encoding: 247 247 298
Width: 1113
Flags: W
HStem: 201 244<436 676> 618 200<51 1064> 991 243<436 676>
VStem: 436 240<201 445 991 1234>
LayerCount: 2
Fore
SplineSet
436 991 m 1
 436 1234 l 1
 676 1234 l 1
 676 991 l 1
 436 991 l 1
51 618 m 1
 51 818 l 1
 1064 818 l 1
 1064 618 l 1
 51 618 l 1
436 201 m 1
 436 445 l 1
 676 445 l 1
 676 201 l 1
 436 201 l 1
EndSplineSet
EndChar

StartChar: circumflex
Encoding: 710 710 305
Width: 674
Flags: W
HStem: 1186 296<211 227 451 469>
VStem: 4 672
LayerCount: 2
Fore
SplineSet
4 1186 m 1
 211 1482 l 1
 469 1482 l 1
 676 1186 l 1
 451 1186 l 1
 337 1336 l 1
 227 1186 l 1
 4 1186 l 1
EndSplineSet
EndChar

StartChar: caron
Encoding: 711 711 306
Width: 674
Flags: W
HStem: 1186 296<211 227 451 469>
VStem: 4 672
LayerCount: 2
Fore
SplineSet
4 1482 m 1
 227 1482 l 1
 337 1332 l 1
 451 1482 l 1
 676 1482 l 1
 469 1186 l 1
 211 1186 l 1
 4 1482 l 1
EndSplineSet
EndChar

StartChar: ring
Encoding: 730 730 307
Width: 674
Flags: W
HStem: 1135 107<260.303 416.294> 1419 107<260.024 416.54>
VStem: 144 107<1249.85 1410.88> 425 107<1250.87 1411.31>
LayerCount: 2
Fore
SplineSet
338 1526 m 3
 450 1526 532 1437 532 1331 c 3
 532 1207 429 1135 338 1135 c 3
 230 1135 144 1213 144 1331 c 3
 144 1435 218 1526 338 1526 c 3
425 1331 m 3
 425 1390 397 1419 338 1419 c 3
 279 1419 251 1390 251 1331 c 3
 251 1272 279 1242 338 1242 c 3
 397 1242 425 1272 425 1331 c 3
EndSplineSet
EndChar

StartChar: tilde
Encoding: 732 732 308
Width: 674
Flags: W
HStem: 1197 165<334.251 533.399> 1283 165<120.965 324.197>
VStem: -12 128<1196 1278.67> 544 128<1370.31 1448>
LayerCount: 2
Fore
SplineSet
169 1448 m 3x70
 273 1448 374 1362 463 1362 c 3xb0
 510 1362 538 1391 544 1448 c 1
 672 1448 l 1x70
 672 1284 613 1197 497 1197 c 3xb0
 414 1197 262 1283 183 1283 c 3
 136 1283 116 1255 116 1196 c 1
 -12 1196 l 1
 -12 1356 29 1448 169 1448 c 3x70
EndSplineSet
EndChar

StartChar: uni00B9
Encoding: 185 185 354
Width: 1010
VWidth: 2614
Flags: W
VStem: 433 220<534 1139 1377.38 1512>
LayerCount: 2
Fore
SplineSet
253 1271 m 1
 368 1325 405 1373 440 1512 c 1
 653 1512 l 1
 653 534 l 1
 433 534 l 1
 433 1139 l 1
 352 1071 323 1066 253 1049 c 1
 253 1271 l 1
EndSplineSet
EndChar

StartChar: ordmasculine
Encoding: 186 186 355
Width: 1010
Flags: W
HStem: 735 200<414.274 592.176> 1282 200<418.158 588.637>
VStem: 160 220<966.084 1249.95> 629 220<966.653 1243.49>
LayerCount: 2
Fore
SplineSet
506 735 m 3
 279 735 160 899 160 1104 c 3
 160 1331 291 1482 506 1482 c 3
 703 1482 849 1350 849 1104 c 3
 849 935 780 735 506 735 c 3
380 1104 m 3
 380 995 424 935 503 935 c 3
 582 935 629 995 629 1104 c 3
 629 1213 582 1282 503 1282 c 3
 424 1282 380 1213 380 1104 c 3
EndSplineSet
EndChar

StartChar: onequarter
Encoding: 188 188 356
Width: 1691
VWidth: 2007
Flags: W
HStem: 130 200<1240 1361 1581 1691>
VStem: 237 220<526 1131 1369.46 1504> 1361 220<-73 130 330 520>
DStem2: 282 -85 514 -85 0.491588 0.870828<114.048 1824.7>
LayerCount: 2
Fore
SplineSet
1361 -73 m 1
 1361 130 l 1
 985 130 l 1
 985 308 l 1
 1376 905 l 1
 1581 905 l 1
 1581 330 l 1
 1691 330 l 1
 1691 130 l 1
 1581 130 l 1
 1581 -73 l 1
 1361 -73 l 1
1361 330 m 1
 1361 520 l 1
 1240 330 l 1
 1361 330 l 1
57 1263 m 1
 171 1320 209 1363 244 1504 c 1
 457 1504 l 1
 457 526 l 1
 237 526 l 1
 237 1131 l 1
 156 1063 127 1058 57 1041 c 1
 57 1263 l 1
514 -85 m 1
 282 -85 l 1
 1179 1504 l 1
 1411 1504 l 1
 514 -85 l 1
EndSplineSet
EndChar

StartChar: onehalf
Encoding: 189 189 357
Width: 1691
VWidth: 2007
Flags: W
HStem: -73 200<1305 1674> 711 200<1271.29 1440.86>
VStem: 237 220<526 1131 1369.38 1504> 1030 220<572 687.992> 1454 220<513.671 694.292>
DStem2: 249 -85 481 -85 0.491588 0.870828<114.048 1824.7>
LayerCount: 2
Fore
SplineSet
1357 911 m 3
 1544 911 1673 794 1673 626 c 3
 1673 391 1423 255 1305 127 c 1
 1674 127 l 1
 1674 -73 l 1
 1005 -73 l 1
 1018 74 1079 187 1153 261 c 0
 1294 403 1454 498 1454 629 c 3
 1454 675 1401 711 1356 711 c 3
 1276 711 1253 659 1250 572 c 1
 1030 572 l 1
 1030 778 1143 911 1357 911 c 3
57 1263 m 1
 172 1317 209 1365 244 1504 c 1
 457 1504 l 1
 457 526 l 1
 237 526 l 1
 237 1131 l 1
 156 1063 127 1058 57 1041 c 1
 57 1263 l 1
481 -85 m 1
 249 -85 l 1
 1146 1504 l 1
 1378 1504 l 1
 481 -85 l 1
EndSplineSet
EndChar

StartChar: threequarters
Encoding: 190 190 358
Width: 1691
VWidth: 2007
Flags: W
HStem: 130 200<1240 1361 1581 1691> 514 200<263.932 430.045> 932 200<234.268 396.013> 1304 200<265.421 398.274>
VStem: 12 220<742.332 849 1184 1275.59> 408 220<1147.39 1293.7> 452 220<737.392 907.44> 1361 220<-73 130 330 520>
DStem2: 281 -85 514 -85 0.491588 0.870828<114.54 1824.7>
LayerCount: 2
Fore
SplineSet
672 831 m 3xfb
 672 647 525 514 334 514 c 3
 143 514 12 645 12 849 c 1
 232 849 l 1
 244 770 280 714 334 714 c 3
 416 714 452 766 452 828 c 3xfb
 452 886 403 932 324 932 c 3
 290 932 260 922 233 914 c 1
 233 1132 l 1
 375 1132 408 1151 408 1238 c 3
 408 1266 362 1304 334 1304 c 3
 272 1304 252 1259 244 1184 c 1
 24 1184 l 1
 24 1372 138 1504 329 1504 c 3
 493 1504 628 1397 628 1235 c 3xfd
 628 1156 613 1095 570 1054 c 1
 645 1013 672 931 672 831 c 3xfb
514 -85 m 1
 281 -85 l 1
 1178 1504 l 1
 1409 1504 l 1
 514 -85 l 1
1361 -73 m 1
 1361 130 l 1
 985 130 l 1
 985 308 l 1
 1376 905 l 1
 1581 905 l 1
 1581 330 l 1
 1691 330 l 1
 1691 130 l 1
 1581 130 l 1
 1581 -73 l 1
 1361 -73 l 1
1361 330 m 1
 1361 520 l 1
 1240 330 l 1
 1361 330 l 1
EndSplineSet
EndChar
